ply
format ascii 1.0
element vertex 965
property float x
property float y
property float z
end_header
0.046092 -0.068383 0.122658
0.285160 0.028691 0.083289
0.139438 0.129229 0.013013
0.194239 -0.085824 0.059306
0.328818 0.092244 0.005160
0.395601 0.045671 0.017323
0.227445 0.144430 0.035834
-0.072952 0.031896 0.000287
0.409457 0.094160 0.092965
0.156439 0.011107 0.050104
0.121639 0.105762 0.066861
0.119241 -0.003786 0.108808
0.326450 0.037343 0.118761
0.241569 0.188622 0.077446
-0.046877 0.140999 -0.005238
0.306760 0.028824 0.049088
-0.042781 0.012384 0.048919
0.155572 0.024363 0.041737
0.186225 0.195274 0.059197
0.179403 0.133401 0.021431
-0.096341 0.161027 0.016907
0.073522 -0.071013 0.083609
0.118187 0.226699 0.063255
0.213721 0.126237 0.087378
-0.083303 0.017522 0.009668
0.048351 -0.023216 0.046830
0.233621 -0.070092 0.019564
-0.024947 0.194788 0.077134
0.171802 -0.085217 0.060139
-0.022954 0.155118 0.104689
0.373414 0.031297 0.058251
0.534916 0.156457 0.070059
0.312565 0.094108 0.012272
-0.028856 0.000969 0.023176
-0.023037 0.070391 0.015075
-0.064220 0.215069 0.093852
0.455724 0.093726 0.091042
0.062245 -0.045696 0.012138
0.159663 0.214090 0.051244
0.204790 0.084018 0.040602
0.047059 0.159015 0.087446
0.336486 -0.013278 0.018474
0.169448 -0.010870 0.115227
0.265720 0.082247 0.103956
0.099097 -0.120150 0.113898
-0.003251 0.121851 0.017136
0.183996 -0.039209 0.086395
0.300057 0.120092 0.050144
0.083325 -0.030405 0.137540
0.363625 -0.010215 0.042865
0.415278 0.006179 0.059101
0.545914 0.081986 0.057340
0.325817 0.117864 0.084089
0.375996 -0.021170 0.045829
0.183874 -0.103435 0.024926
-0.172061 0.136636 -0.007077
-0.008087 0.033689 0.012722
0.003736 0.054308 0.110154
0.116275 -0.039940 0.060417
0.041636 0.193128 0.051943
0.024051 0.180892 0.072124
0.144609 0.016270 0.105413
0.023182 0.043595 0.121331
0.240793 -0.026767 0.067309
0.083154 0.076743 -0.004094
-0.116520 0.165424 0.055823
0.480642 0.040642 0.021441
-0.080808 0.154510 0.033576
0.526659 0.128450 0.055443
-0.106839 0.131237 0.052279
0.160781 0.123574 0.031474
0.117336 -0.130779 0.065527
0.148001 0.065517 0.035062
0.158240 -0.073568 0.056441
0.048922 -0.004093 0.087388
0.367386 0.099252 0.096580
0.124373 -0.027864 0.147907
0.349129 -0.036473 0.004647
-0.030997 0.097230 -0.002938
0.160719 0.022670 -0.002528
0.075102 0.198737 0.044092
0.293856 0.119379 0.032077
0.106579 -0.060282 0.034027
0.179302 0.038096 -0.006050
0.102245 0.117804 0.024454
0.328300 -0.017888 0.088659
0.295078 0.055019 0.068609
0.352028 -0.034563 -0.009347
-0.017121 0.007384 0.021370
0.066055 -0.039477 0.100545
-0.005557 0.036231 0.069773
0.118712 -0.005716 0.047490
0.033386 0.179572 0.089695
0.268157 0.095454 0.056814
0.431535 0.066357 0.072563
0.117747 -0.057386 0.144263
-0.154522 0.137336 0.001881
-0.070576 0.143387 0.018904
0.418064 0.026558 -0.041653
0.150929 0.195951 0.067260
0.238338 0.018896 0.005003
0.489358 0.021106 0.026913
0.110323 0.087520 0.056143
0.240683 0.071057 0.066041
0.319604 0.053700 -0.024889
0.089797 0.099530 0.045067
0.282470 0.160927 0.051124
0.049891 0.075355 0.039414
0.098404 0.113416 0.086974
0.296808 0.113540 0.044130
0.057248 0.037756 -0.004700
0.232788 0.017440 -0.003506
-0.064308 -0.088009 0.043296
0.015054 0.102732 0.040221
0.051361 -0.030177 0.010567
0.365002 0.000346 0.067146
0.305446 0.040959 0.114556
0.273937 0.008437 0.113317
0.147624 0.085314 0.043211
0.295106 -0.017816 -0.006611
0.196279 0.187995 0.065295
0.074115 0.147865 0.096094
0.222501 0.004071 0.032045
0.340971 0.036023 0.081751
0.069872 0.026889 0.139287
-0.075995 0.157641 0.069474
0.056740 0.085724 -0.010854
0.137295 -0.050063 0.031694
0.065602 0.123955 0.021818
0.205325 0.018457 0.022902
0.275127 0.034015 -0.010623
0.140433 0.125784 0.026603
0.127359 0.072723 0.082518
0.086128 -0.103819 0.031634
0.492607 0.021681 0.038102
0.207242 0.075351 0.007932
0.187025 -0.107917 0.095819
0.255483 0.165755 0.071516
0.149573 -0.014508 0.108901
-0.061297 -0.003737 0.040020
0.096344 -0.102721 0.131936
-0.055582 0.182901 0.066923
0.349608 0.072530 0.092225
0.126619 0.043457 0.004354
0.033039 0.043841 0.106171
0.130397 -0.096262 0.101670
-0.022694 0.078503 0.057393
0.206044 0.079560 -0.014688
-0.013613 0.133377 -0.004331
0.136287 -0.132686 0.080043
0.116022 -0.047016 0.060762
0.183241 0.020282 0.119102
0.402861 0.094863 0.032739
0.132722 0.080020 -0.037126
0.148649 0.075553 0.101824
0.187343 0.053811 0.122983
0.292317 -0.048084 0.096901
0.135758 -0.026784 0.054348
-0.057282 0.202278 0.068452
0.058209 -0.075471 0.083034
0.111382 -0.146702 0.066254
0.127215 -0.088116 0.159810
0.055925 -0.100161 0.072854
0.172417 -0.010603 0.058977
0.250811 0.004973 0.081235
-0.023444 0.112266 0.006927
0.142510 0.044272 0.112741
0.201103 0.021245 0.023078
0.137134 -0.074814 0.143272
0.312000 0.098969 0.101274
0.110639 -0.091072 0.061815
0.108859 0.123744 0.008324
0.277626 -0.013527 0.055786
0.434559 0.036743 0.023305
-0.018845 -0.081556 0.094577
0.257955 -0.065117 0.139069
-0.167683 0.115416 -0.009655
0.276605 0.169040 0.055853
0.118326 0.111665 0.066187
0.225094 -0.001913 0.021614
0.416415 0.019077 0.008415
-0.044768 0.120450 0.072091
-0.000191 -0.008007 0.019621
0.416790 0.171585 0.051219
0.044787 0.122983 0.008717
0.124737 -0.029332 0.157148
0.032397 -0.031932 0.113955
0.216060 -0.049384 0.111767
0.073248 -0.080038 0.058362
0.248109 0.138822 0.092830
0.479917 0.041057 0.080107
0.177382 0.115703 0.037479
-0.115416 0.171640 0.089496
0.038825 0.101420 -0.026715
-0.000658 0.024253 0.099176
0.339032 0.177695 0.040075
0.135074 -0.033930 0.105521
-0.031844 0.003412 0.032811
0.122061 -0.016704 0.031574
-0.033657 0.141284 0.115581
-0.053909 0.066489 0.051584
0.419099 0.000984 -0.005939
0.368833 0.091218 0.043314
0.036723 0.194636 0.040727
0.467994 0.067812 0.026573
0.366155 0.145584 0.064930
0.309895 -0.069105 0.017690
-0.050897 0.062502 0.081965
0.488012 0.107302 0.063681
0.175167 0.042816 0.019218
-0.073004 0.185478 0.000688
0.098693 -0.035879 0.043188
0.054919 -0.069960 0.045693
0.351403 0.103119 0.084502
0.514034 0.026835 0.024644
0.143451 -0.141139 0.056550
0.039417 0.005833 0.012697
0.250958 0.076537 0.044662
0.399794 0.164044 0.059283
0.316140 0.066514 -0.032170
0.459857 0.123224 0.026356
0.297835 -0.072627 0.023497
0.038944 0.046381 0.120915
-0.073766 0.026068 0.046119
0.225996 0.036783 0.044473
0.618629 0.094614 0.039149
0.489124 0.084571 0.055635
0.204502 0.003028 0.043683
0.083582 -0.102957 0.106335
0.200414 -0.021654 0.043316
0.278797 -0.042114 0.034828
0.264778 -0.040302 0.003009
0.096780 -0.066794 0.082346
0.414571 0.104795 0.065936
0.347098 -0.030966 0.080555
0.152971 -0.091724 0.044661
0.123673 0.108821 0.006018
0.218475 0.065669 0.039864
0.014745 -0.012940 0.093212
0.105339 0.082874 0.062738
0.491457 0.052368 0.092669
0.134794 -0.073976 0.126709
-0.122093 0.086219 0.002091
-0.033934 0.006041 0.070590
0.440930 0.001057 0.044752
0.290088 -0.042809 0.139225
0.237007 -0.068137 0.091974
0.057137 0.137869 -0.007814
0.325859 0.020982 -0.033620
0.253075 -0.061656 0.069495
-0.136300 0.106864 -0.006240
0.338685 -0.012339 0.026635
0.128098 -0.063754 0.126086
0.142599 0.067531 0.048132
-0.087847 0.068942 -0.015173
0.038861 0.054889 0.112429
0.199443 -0.052050 0.153070
0.145057 0.070211 0.055083
0.236313 -0.060410 0.068369
0.132482 -0.030124 0.145428
0.248807 0.076028 0.047941
0.092390 -0.056366 0.119058
0.148468 0.212905 0.036501
0.083122 0.092448 0.013585
0.271618 -0.058810 0.016964
0.072580 0.132864 0.054528
0.216512 0.139583 0.065446
0.131334 -0.003933 0.023486
0.072784 0.075731 0.100279
0.427396 -0.016244 0.018319
0.011232 0.059053 0.058810
0.130988 0.000437 0.044116
0.026648 0.118519 0.092756
0.144267 -0.075755 0.071955
-0.003267 -0.062456 0.055688
-0.022248 0.111263 0.079949
0.238223 -0.062947 0.039719
0.251295 0.123263 0.080038
0.449714 0.135144 0.045968
0.204334 -0.083708 0.091809
0.145778 0.044773 0.114784
0.085471 -0.036539 0.026607
0.105556 0.094168 -0.006389
0.380199 0.006531 -0.010204
0.130650 -0.081495 0.063910
0.184123 0.089457 0.077632
0.172713 -0.094553 0.042046
0.333799 0.032164 0.106089
0.342615 0.053176 0.007363
0.144346 -0.041379 0.038435
0.143595 -0.042307 0.155881
0.201296 -0.098131 0.119582
0.076623 0.218241 0.056522
0.219377 -0.038997 0.114246
0.348579 0.026558 0.044474
-0.108524 0.100676 0.015022
-0.038430 -0.001060 0.061642
0.189223 0.013379 0.029569
0.510075 0.028552 0.049526
0.354598 0.087692 0.080821
0.210140 -0.088236 0.104315
-0.030627 0.081024 0.043771
0.125878 0.087194 0.033289
0.091502 0.137242 0.093092
0.260154 0.150092 0.077793
0.111300 0.087052 0.017212
0.235181 -0.005652 0.105764
0.111432 -0.058436 0.121014
-0.034768 -0.008129 0.036231
0.251647 -0.005474 0.078881
0.244241 -0.090777 0.060511
0.292410 -0.034338 -0.006954
0.254892 -0.071428 0.086821
0.216533 0.032719 0.003529
0.064597 -0.006666 0.031662
0.336868 0.090931 0.039693
0.222444 -0.048381 0.084927
0.257208 0.145387 0.032073
0.465326 0.022836 0.001761
0.125078 0.030422 0.035385
0.095686 0.138167 0.095816
0.187958 -0.089437 0.061776
0.141341 0.259320 0.066775
-0.038196 0.059281 -0.010792
0.049226 0.095613 0.088606
0.241076 0.102316 0.092105
0.015016 0.159517 0.042068
0.190606 0.046965 0.059959
0.247233 0.043841 -0.004433
0.073235 0.125199 0.029076
0.328335 0.041723 0.007971
0.181734 0.214486 0.059422
0.414667 0.027581 0.090039
0.218162 0.086374 0.094746
0.038264 0.003298 0.074318
0.072876 0.084401 0.119241
0.131632 -0.074783 0.125515
-0.082920 0.121223 0.019014
0.063689 0.053901 0.077127
0.066047 -0.165473 0.056090
0.390319 0.015263 -0.027699
0.138988 -0.081046 0.090306
0.269188 -0.002102 0.041954
0.166458 -0.044101 0.109106
0.202572 0.193821 0.026582
0.293323 0.000570 0.112640
-0.009826 0.006003 0.070228
0.033862 0.043600 0.038037
0.209836 0.027591 0.016383
0.154965 0.056667 -0.024357
-0.097656 0.027659 0.010015
0.316823 -0.045509 0.028968
0.080513 0.114184 0.113446
0.308032 0.080520 0.011279
0.059283 -0.128158 0.047425
0.002913 -0.042633 0.060949
0.319289 -0.039443 0.064364
0.177531 -0.086823 0.045571
0.552350 0.080358 0.058634
0.541001 0.121636 0.064467
-0.009138 0.174086 0.012060
-0.141215 0.137217 0.016077
0.307181 -0.055806 0.043336
0.066576 0.177028 0.011224
0.069586 -0.119549 0.053818
0.040866 0.023166 0.086207
0.103205 -0.146725 0.070018
-0.016049 0.066037 0.036300
0.036367 0.228663 0.063129
0.353947 0.067428 0.094310
-0.049756 0.118851 0.027876
0.024926 0.151326 0.037702
0.267932 -0.064316 0.026788
0.268781 -0.057709 0.114278
0.045411 0.205340 0.088417
0.036166 0.213820 -0.011162
0.287694 -0.021759 0.104894
0.172544 0.079920 0.051786
0.455983 0.072883 0.078248
-0.009474 0.091153 0.091378
0.035351 0.103196 0.015222
0.237032 0.052869 0.066829
0.053136 0.091674 0.127973
0.210891 0.110867 0.014574
0.160625 0.089380 0.009801
0.077508 -0.114595 0.105170
0.039477 -0.035254 0.048153
0.197422 -0.037400 0.110593
0.340849 0.114952 0.044136
0.160546 0.156774 0.074491
0.032875 0.014192 0.004108
0.016485 0.200400 0.083391
0.020282 0.165578 0.063134
0.038911 0.148542 0.090991
0.062930 0.186763 0.064730
0.455961 0.138495 0.058135
0.283566 0.159128 0.049781
0.013145 0.204095 0.095692
0.486200 0.127416 0.032711
-0.121395 0.128487 0.061061
-0.063365 0.016289 0.064738
0.034182 0.136444 0.105192
0.017641 0.134979 0.020302
0.430036 0.010980 0.010225
0.131216 -0.098699 0.023825
0.244035 0.061541 -0.009599
0.436677 0.033410 0.013256
0.137772 -0.109068 0.042977
0.272034 0.014699 0.064800
0.272601 0.159367 0.040905
0.005835 0.038438 0.115838
0.083554 0.085333 0.011073
0.177809 -0.058830 0.036784
0.285320 -0.002227 -0.014192
0.349203 0.040311 0.116165
0.050736 0.118465 0.032816
0.264677 0.103741 0.092256
0.152654 -0.094430 0.117848
-0.019648 0.096131 0.120571
0.355010 0.157069 0.049349
0.172903 0.194971 0.068104
0.519060 0.106793 0.043692
0.076465 0.195382 0.063136
0.093048 -0.128420 0.057296
-0.027238 0.140374 0.112907
-0.108386 0.058445 0.026887
-0.023797 0.035777 0.056890
0.288601 0.017839 0.118173
0.118806 0.045999 0.077023
0.052215 0.018154 0.006804
-0.034813 0.071767 0.103635
0.118551 -0.100557 0.029857
0.054675 -0.048946 0.042495
-0.016093 0.041171 0.016182
0.097459 0.172014 0.032717
0.272519 0.008987 -0.015147
0.438722 0.027959 0.019318
-0.116163 0.118895 0.025370
0.346191 0.106992 0.020453
0.530435 0.082953 0.074677
0.389310 0.029930 0.017930
-0.058140 0.107168 0.035942
0.624773 0.117526 0.072249
0.047016 -0.068507 0.081240
0.221067 -0.014148 0.041456
0.149987 0.022499 0.113868
0.223201 0.113851 0.063500
0.212475 -0.045740 0.155055
0.184713 0.110853 0.038413
0.150172 -0.128972 0.077619
0.179655 0.137878 0.042865
0.225127 -0.034734 0.104662
0.191151 -0.107023 0.075486
0.070590 0.139624 0.052943
0.364723 0.113372 0.042714
0.093848 -0.092889 0.046297
0.279037 -0.046463 0.106627
0.080778 0.081205 0.068845
0.079216 0.191052 0.058785
0.160813 -0.113818 0.090066
-0.073084 0.177917 0.088098
0.162219 -0.018124 0.105728
0.116615 -0.085268 0.119302
0.303831 0.095009 0.047894
-0.080577 -0.016398 0.025144
0.047122 0.145194 0.046507
0.224143 0.047460 0.090539
0.308707 0.051735 -0.031025
0.452419 0.021106 -0.024034
0.264724 0.092468 -0.007383
0.173179 0.043175 0.039185
0.045359 0.000678 0.124749
0.383554 0.112867 0.035600
0.358476 0.082516 -0.016336
0.126959 -0.023220 0.096192
0.045859 0.143291 0.004046
0.248329 0.148226 0.061005
0.030325 -0.023671 0.029969
-0.014456 0.070062 -0.008940
0.169717 0.139221 0.063966
0.194415 0.007854 0.119346
0.202193 0.106297 0.035406
0.397643 0.094951 0.079715
0.384238 0.044683 0.076058
0.076505 -0.165831 0.090950
0.448979 -0.015071 -0.010835
0.553360 0.028062 -0.039079
0.055820 -0.012674 0.085323
0.581986 0.097612 0.064927
0.277315 0.001074 0.074590
0.136196 -0.110441 0.036784
0.218266 -0.026093 0.022803
0.132438 0.187010 0.064176
0.283535 0.234909 0.062791
0.541720 0.115982 0.064370
0.031017 0.137363 -0.006700
0.085528 0.039940 0.083771
-0.104305 0.039226 0.017107
0.313591 0.127537 0.054626
0.108012 -0.068869 0.137604
0.267310 0.094551 0.056091
0.040604 0.043595 -0.003671
0.534483 0.136140 0.070500
0.211232 -0.035413 0.153547
-0.107204 0.161972 -0.037461
-0.108640 0.103995 0.069223
0.230050 0.034849 -0.005293
0.081306 0.103740 0.123582
0.162118 0.160120 0.120294
0.045267 0.103868 0.109944
0.151436 -0.012774 0.154436
0.175421 0.104146 0.104697
-0.012840 0.118049 0.102556
0.173660 0.035910 0.105283
0.028261 0.182911 0.097944
0.080357 -0.088390 0.150567
0.067442 0.079871 0.125249
0.158991 -0.006685 0.151399
0.112720 0.206957 0.073204
0.156930 0.048762 0.100879
0.023334 0.078186 0.110161
-0.003570 0.061085 0.116518
0.170946 0.072861 0.096591
0.164198 0.022580 0.118067
0.131037 0.072077 0.111275
0.105168 0.021013 0.144938
0.022624 0.188843 0.097992
0.136074 0.014841 0.131480
0.074214 0.065211 0.133070
0.136269 0.004208 0.140603
-0.026585 0.085152 0.102568
0.054618 0.158576 0.106105
-0.006399 0.077528 0.102868
0.076652 0.102321 0.122476
0.140240 -0.008939 0.150097
0.115811 0.019004 0.138959
0.012317 0.081534 0.104291
0.096804 0.189578 0.092044
0.065113 0.149588 0.112723
0.177859 0.105832 0.104570
0.178739 0.020107 0.123077
0.022855 0.108964 0.101249
0.169410 0.170267 0.112974
0.162801 -0.007138 0.152991
0.089339 0.120681 0.125892
0.117296 0.169421 0.122270
0.103739 0.061930 0.124942
0.178221 0.129663 0.111586
0.200726 0.005560 0.152484
0.032777 0.141745 0.104692
0.223412 0.041594 0.116016
0.115602 -0.025079 0.156392
0.075811 0.215576 0.056195
0.077980 0.211002 0.060170
0.009621 0.118086 0.100083
0.171979 0.074617 0.096684
0.174861 0.033478 0.107389
0.129892 0.036311 0.118523
0.211414 0.025337 0.128279
-0.003423 0.157982 0.112370
-0.000927 0.134106 0.104913
0.130163 0.047326 0.113483
0.058849 0.174431 0.098160
0.107427 0.050436 0.126582
0.024751 0.152680 0.104615
0.158719 0.173438 0.116303
-0.043820 0.105338 0.109778
0.133265 0.236338 0.055117
0.199045 0.092348 0.097868
0.086895 0.071862 0.128137
0.043192 0.195102 0.083892
0.194077 0.016289 0.133900
0.118476 0.203482 0.080503
0.184080 0.000360 0.152651
0.049180 0.029542 0.169974
0.065311 0.135427 0.115749
0.201634 -0.012807 0.173149
0.136867 0.087303 0.112404
0.175206 0.017198 0.126120
0.193067 0.007307 0.146862
0.148799 0.172884 0.119836
0.038190 0.161114 0.103205
0.096522 0.217605 0.055484
0.144330 -0.053152 0.165020
-0.010781 0.109976 0.100093
0.038514 0.114007 0.106090
0.016696 0.122840 0.101188
-0.044354 0.089712 0.108862
0.091449 0.115997 0.126134
0.198267 0.068383 0.095863
0.219008 0.026154 0.130207
0.149135 0.036056 0.109223
0.060261 0.041020 0.156589
0.056881 0.175659 0.097042
-0.053139 0.171547 0.133421
0.198913 0.064771 0.096341
0.127883 0.143449 0.130987
0.074922 0.086361 0.124374
0.062445 0.205125 0.068189
0.183720 0.143028 0.110710
0.118376 0.027249 0.131665
0.175983 0.023804 0.117746
0.074508 0.109403 0.121420
0.246415 0.001985 0.159656
0.120598 0.148023 0.131013
0.122457 0.092034 0.119192
0.144319 0.151179 0.128027
0.005537 0.190241 0.107564
0.023891 0.083812 0.107143
0.080918 0.080331 0.126332
0.025957 0.175748 0.101469
0.208265 -0.010492 0.172852
0.089396 -0.053040 0.155465
0.124655 0.067187 0.113936
0.123340 -0.006715 0.150513
0.162344 -0.003939 0.149631
0.077796 0.191609 0.083321
0.002944 0.183641 0.110687
0.195744 0.029453 0.116635
0.101663 0.003595 0.155646
0.211828 0.060017 0.101189
0.011182 0.201636 0.098894
-0.028760 0.150809 0.120118
0.003690 0.150559 0.108293
0.216822 0.028437 0.126544
0.144262 0.020303 0.123605
0.199504 0.004041 0.154113
0.185037 0.001527 0.151530
0.135102 -0.018782 0.154921
0.078039 0.183379 0.093548
-0.045083 0.145413 0.124013
0.095169 0.185087 0.097566
-0.032285 0.147834 0.120338
0.138375 -0.057183 0.162796
0.127580 0.169927 0.123508
0.062635 0.081132 0.123645
0.087303 0.225159 0.048840
0.191937 -0.027957 0.178923
0.159014 0.147586 0.122849
0.099007 0.205656 0.069755
0.000688 0.108729 0.098689
0.196376 0.013446 0.139123
0.092618 0.170528 0.112628
0.129262 -0.002292 0.146816
0.042113 0.085801 0.113919
0.141167 0.208980 0.081311
-0.013524 0.116714 0.102330
0.021232 0.111370 0.100879
0.081964 0.210610 0.060569
0.017860 0.147214 0.104880
0.095672 -0.015076 0.161307
0.136014 0.089059 0.113316
0.112555 0.046113 0.125069
0.118062 0.142485 0.131206
0.002790 0.181051 0.111153
0.083816 0.127305 0.124213
0.068898 0.003859 0.174180
0.066235 0.200855 0.071883
-0.021323 0.155339 0.118771
0.151681 0.061186 0.101075
0.129981 0.057015 0.111500
0.169275 0.157153 0.117364
0.050799 0.052627 0.144773
0.132461 0.047594 0.112076
0.053521 0.049655 0.148241
-0.026033 0.148553 0.118206
0.092679 0.048629 0.136367
0.082312 0.154873 0.118170
0.217285 -0.003669 0.168083
0.105974 0.126240 0.129290
0.103814 0.198922 0.081105
0.025115 0.088609 0.105524
0.180396 0.049635 0.097614
0.054923 0.112756 0.113122
0.038689 0.111273 0.106324
0.100445 0.168821 0.117321
0.130247 0.082542 0.113732
0.155344 0.185906 0.107787
-0.006974 0.083895 0.100238
-0.011453 0.131134 0.106506
-0.081923 0.105781 0.126435
0.084670 0.094705 0.124474
0.003028 0.171926 0.111488
0.081403 0.042250 0.146971
0.068694 0.126030 0.118205
0.156991 -0.022491 0.162314
0.163493 0.029510 0.110980
0.070828 0.116457 0.119694
0.011515 0.108220 0.099121
0.047947 0.083024 0.117749
-0.018818 0.163602 0.120156
0.103804 0.101905 0.125285
-0.029424 0.192188 0.126103
0.077973 0.055478 0.138648
-0.013937 0.077266 0.102947
0.199783 0.004579 0.153481
0.127277 0.041814 0.117345
0.169378 0.127032 0.114637
0.138381 0.031178 0.117057
0.172950 0.139117 0.115663
0.010549 0.193457 0.103244
0.171742 0.102246 0.105131
-0.000924 0.132878 0.104546
0.113541 0.170041 0.120852
0.070425 0.036263 0.157286
0.112417 0.050672 0.123366
0.008138 0.159736 0.108570
0.180742 0.121906 0.108687
0.016016 0.158480 0.106225
0.181325 0.131679 0.110676
0.217193 -0.014231 0.176578
0.084517 0.074653 0.127673
0.188203 0.120393 0.105790
0.098418 0.062972 0.127118
0.003178 0.153730 0.109140
0.218113 0.023261 0.133619
0.071814 0.109079 0.120490
0.123304 0.186540 0.106390
0.014808 0.050947 0.136427
0.058079 0.079238 0.123320
0.024211 0.068160 0.118778
0.126941 -0.034531 0.157656
0.033467 0.057767 0.134470
0.117266 -0.016002 0.154845
0.025197 0.152585 0.104580
0.155601 0.011433 0.131122
0.127763 0.200365 0.088550
0.124220 0.217939 0.064823
0.065578 0.036702 0.158957
0.040856 0.092678 0.110652
0.181938 0.061947 0.094883
0.142371 0.186342 0.109170
-0.024611 0.145610 0.116522
0.025828 0.192203 0.094512
0.167579 0.004147 0.141727
0.045825 0.192126 0.085304
0.159263 0.010354 0.132520
0.128116 0.235050 0.053548
0.095546 0.094408 0.124861
0.012110 0.130633 0.102427
0.082986 0.047887 0.142001
0.037602 0.203499 0.080188
0.042268 0.202030 0.078762
0.176877 0.036305 0.105173
0.086386 0.030879 0.152119
-0.009132 0.180425 0.117614
0.134686 0.010356 0.135878
0.088347 0.155877 0.120334
-0.036825 0.160386 0.126445
0.220292 -0.006968 0.171352
0.232069 0.017616 0.144330
0.145204 -0.031728 0.161764
0.143226 -0.053318 0.164561
0.016839 0.164683 0.106101
0.122361 -0.001060 0.148020
0.194769 0.023581 0.123728
0.053314 0.025085 0.172520
0.049172 0.155081 0.105966
0.031162 0.048996 0.145521
0.003132 0.148328 0.107922
0.057813 0.192106 0.082347
0.115226 0.026879 0.134079
0.131748 -0.013371 0.152461
0.070069 0.119075 0.119240
0.176205 0.041083 0.101722
0.002137 0.149768 0.108549
0.223023 0.025347 0.132612
0.014950 0.156644 0.106354
0.112782 0.026669 0.135933
0.169745 0.074111 0.097062
-0.005963 0.135934 0.106669
0.032651 0.080892 0.112394
0.002274 0.115378 0.099696
0.102478 0.106456 0.126086
0.170809 0.124113 0.113183
0.118794 0.117855 0.127476
0.070613 0.180480 0.094857
0.111459 0.020008 0.141190
0.227454 0.020323 0.140174
0.230834 0.013403 0.149439
0.101561 0.100648 0.125226
0.075591 0.033450 0.156904
0.101526 -0.064091 0.152724
0.189483 0.031834 0.111837
0.091225 0.155818 0.121561
0.133159 0.096866 0.117078
0.074866 0.129036 0.120626
0.143283 0.097963 0.113748
0.094963 0.090411 0.124740
0.080457 0.125523 0.123056
0.171533 0.061169 0.095720
0.049045 0.056481 0.140180
-0.025074 0.149023 0.118011
0.198468 0.009475 0.145934
-0.025497 0.067610 0.109940
0.116007 0.114615 0.126970
0.126004 0.229761 0.055701
0.114707 0.023666 0.136575
0.143924 0.197379 0.096131
0.211206 0.058897 0.101307
0.231260 0.022085 0.138747
0.017315 0.113819 0.100268
0.109445 -0.067483 0.153520
0.119084 0.188383 0.102651
0.053990 0.172217 0.099164
0.156910 0.084808 0.103711
0.203728 0.025146 0.125305
-0.100173 0.190903 0.034520
0.386505 -0.011330 0.116906
0.552249 0.045002 0.037718
0.461052 0.012410 0.075695
-0.036748 0.222208 0.038376
0.588089 0.064985 0.047933
-0.160509 0.156314 0.014001
0.141083 -0.134770 0.093905
0.345868 -0.052158 0.041654
0.469925 -0.013559 -0.030107
-0.027718 0.236472 0.073290
0.009241 0.253820 0.072404
0.349257 -0.032909 0.103450
0.193988 -0.099657 0.128658
0.265182 -0.060351 0.147587
0.454484 0.004260 0.058097
-0.079245 0.207748 0.058625
0.363727 -0.019111 0.127652
0.560168 0.064511 0.092863
0.320070 -0.066726 0.033658
0.546559 0.059192 0.096935
0.498908 0.007174 -0.005822
0.436678 -0.002067 0.065639
0.259267 -0.067660 0.131848
0.247885 -0.067414 0.151700
-0.223496 0.123520 0.004198
0.072540 -0.175122 0.066890
-0.169270 0.149915 0.006201
0.205907 -0.082831 0.167731
0.532774 0.042570 0.061694
0.583152 0.062485 0.047410
0.395584 -0.019801 0.072075
0.196286 -0.102863 0.113590
-0.118211 0.190334 0.062627
-0.204528 0.129526 -0.006407
-0.050169 0.227379 0.078893
-0.098759 0.192444 0.037561
0.090371 -0.156363 0.102866
0.145260 -0.119672 0.139838
0.402924 -0.026842 0.035154
0.376929 -0.019347 0.104794
0.519959 0.017932 -0.003255
0.352856 -0.045112 0.054683
0.338794 -0.057587 0.034435
0.345647 -0.041341 0.079927
0.464294 -0.007430 0.000766
0.224136 -0.081993 0.140245
0.175230 -0.132679 0.044250
0.200903 -0.104628 0.099703
0.137883 -0.130591 0.113889
0.495329 0.032966 0.090527
0.395640 -0.016174 0.084688
0.388628 -0.007209 0.127806
0.440248 -0.002379 0.058591
0.142709 -0.133593 0.095316
0.121951 -0.143291 0.095974
0.278516 -0.058336 0.132399
0.473319 0.006306 0.033836
0.504734 0.016215 0.016136
0.531809 0.038521 0.049117
0.611884 0.085274 0.079321
0.251085 -0.087175 0.077119
0.582918 0.073706 0.087119
0.468893 0.018319 0.083315
0.409110 -0.000947 0.115568
0.221585 -0.077979 0.158569
0.428162 -0.005925 0.066333
0.219056 -0.081330 0.151046
0.620397 0.088702 0.077127
-0.059102 0.226002 0.088976
0.286952 -0.079612 0.043767
0.347276 -0.061308 0.007243
-0.166202 0.167766 0.063631
-0.068500 0.201147 0.017565
0.008085 0.242939 0.036207
0.579796 0.063081 0.055101
0.171989 -0.099640 0.165429
0.118802 -0.141085 0.108957
-0.159950 0.171978 0.067959
-0.187106 0.144283 0.016229
0.596777 0.075234 0.069346
0.534100 0.025787 0.000674
-0.135163 0.155834 -0.029975
0.277665 -0.070335 0.091773
-0.159456 0.169503 0.058460
0.175436 -0.106137 0.136912
0.119940 -0.136176 0.124258
0.147485 -0.120341 0.133783
0.241789 -0.094101 0.068364
0.264522 -0.097172 0.019664
0.133779 -0.125940 0.137035
-0.149258 0.153973 -0.012975
0.195594 -0.114211 0.074980
0.256241 -0.085301 0.075080
-0.144778 0.171864 0.042239
0.350283 -0.033644 0.099161
-0.123185 0.181596 0.040308
0.397035 -0.036906 0.009715
0.428441 -0.007539 0.060210
0.478477 0.017587 0.064757
0.526159 0.028333 0.022846
0.533854 0.035356 0.034614
0.162808 -0.108834 0.148533
0.332793 -0.062993 0.025505
0.498714 0.033778 0.087723
0.309080 -0.076823 0.016615
0.372658 -0.042603 0.030429
0.595036 0.061342 0.023577
0.462776 -0.006925 0.005069
0.314926 -0.077921 0.003014
0.347498 -0.032293 0.108542
0.500667 0.032189 0.078896
0.417382 -0.022810 0.025157
0.285934 -0.089427 0.011074
0.303969 -0.076502 0.026271
-0.014436 0.242880 0.073580
0.265961 -0.061815 0.141160
-0.125675 0.179941 0.038666
0.175046 -0.109520 0.125708
0.403126 -0.025372 0.039966
0.419831 -0.012924 0.055708
0.294009 -0.053864 0.122216
0.325958 -0.055096 0.064584
0.311739 -0.050313 0.105070
0.462647 0.021828 0.106034
0.460697 0.005530 0.052181
-0.077032 0.202181 0.035424
0.189768 -0.091374 0.164725
0.303573 -0.047468 0.128667
0.254256 -0.065206 0.148807
0.386548 -0.041655 0.010576
0.314418 -0.061308 0.062074
0.259117 -0.090593 0.051739
0.255263 -0.093606 0.047614
0.175903 -0.131628 0.046810
0.220345 -0.086895 0.129397
0.446813 -0.000491 0.054252
-0.065648 0.212909 0.054020
0.616983 0.072852 0.027286
0.496885 0.026961 0.066889
0.553922 0.033812 -0.004285
0.433585 0.007040 0.102713
0.301394 -0.051107 0.119551
-0.011033 0.243948 0.071645
0.098163 -0.168571 0.047086
0.257704 -0.080454 0.089625
0.207679 -0.121177 0.030404
0.451409 -0.018148 -0.015288
0.429383 -0.013216 0.038748
0.233913 -0.105654 0.041022
-0.049383 0.215532 0.036068
0.388987 -0.042609 0.003159
0.457906 0.004963 0.054851
0.378750 -0.037464 0.038272
0.579181 0.069350 0.078093
0.155160 -0.123877 0.108585
0.485881 0.019355 0.058597
-0.101849 0.183311 0.010716
