ply
format ascii 1.0
element vertex 667
property float x
property float y
property float z
end_header
0.235404 0.315852 0.012322
-0.027335 0.516642 0.266953
0.166973 0.574016 -0.009649
0.133150 0.471875 0.005970
0.017101 0.278941 0.209245
0.012452 0.538025 0.120731
0.006934 0.312314 0.166087
-0.039689 0.367829 0.201428
0.098668 0.342662 0.093369
0.202983 0.565974 0.034792
-0.057085 0.563648 0.240412
0.150181 0.480312 0.153001
0.130046 0.405270 0.043416
-0.038538 0.496186 0.165191
0.082037 0.360504 0.206654
0.019460 0.313119 0.188987
0.145390 0.342517 -0.052821
0.009890 0.289484 0.170603
0.099355 0.267877 0.137385
0.141126 0.397766 0.118339
0.169192 0.483243 0.031312
0.149739 0.506168 0.026441
0.181767 0.461658 -0.061086
0.134769 0.407927 0.126926
0.135230 0.416268 -0.031339
0.192283 0.532674 0.021994
0.102799 0.417365 0.091628
0.224650 0.549620 0.017015
-0.000259 0.456049 0.139661
0.123916 0.577851 0.026361
-0.032005 0.274771 0.241429
0.102597 0.558504 0.107092
0.126143 0.479869 -0.026240
0.093022 0.540752 0.237202
0.051747 0.540748 0.081997
0.184189 0.418291 -0.019471
-0.053967 0.561094 0.220459
0.012806 0.420816 0.192334
0.224398 0.526368 0.012453
0.045673 0.478159 0.113257
0.146799 0.266416 0.114601
0.036763 0.358378 0.143066
-0.006762 0.545585 0.177249
-0.043331 0.338599 0.208221
0.176255 0.382999 -0.063943
-0.083453 0.328372 0.183342
0.088687 0.542028 0.082862
-0.057363 0.434678 0.190357
0.035485 0.289690 0.184088
-0.047478 0.424481 0.199089
0.190161 0.386297 0.067592
0.202272 0.375987 0.003278
0.147131 0.581154 -0.012954
0.034069 0.519968 0.266803
0.156779 0.463055 0.009442
0.167140 0.294182 0.066145
0.002221 0.527110 0.291307
0.225688 0.351943 0.032953
0.173315 0.487561 -0.013945
0.120108 0.547469 0.148213
0.082688 0.328342 0.199038
0.191249 0.485615 -0.049951
0.155639 0.487817 -0.037670
0.138014 0.539577 0.116909
0.114566 0.463968 0.116541
0.196368 0.540924 0.003273
0.028156 0.244161 0.237470
0.013341 0.262585 0.225889
0.115137 0.414902 -0.002963
0.210291 0.283785 -0.026446
0.158831 0.425765 -0.019420
0.128182 0.396517 -0.036657
0.223080 0.269733 0.009503
0.184007 0.459729 -0.041973
0.068315 0.510744 0.145579
0.150945 0.504336 0.071886
0.258811 0.442175 0.015152
0.133262 0.370266 0.010213
0.112501 0.390076 0.139105
0.237291 0.459523 0.028657
-0.065167 0.478860 0.192717
-0.035757 0.436147 0.255742
0.065620 0.359100 0.091160
0.078478 0.495328 0.178882
0.146318 0.543529 0.043505
0.156896 0.477526 0.029772
0.165062 0.414335 0.109958
0.075468 0.515204 0.093692
0.014277 0.350552 0.119396
0.222956 0.518104 0.011521
0.068172 0.469792 0.143741
0.045459 0.418954 0.227020
0.091194 0.538293 0.131137
0.045722 0.310770 0.221355
0.220154 0.360555 0.016002
0.068608 0.330949 0.167757
0.138283 0.468153 0.111539
0.119943 0.350098 0.041821
0.155368 0.549453 -0.011106
0.067273 0.540852 0.065725
0.182999 0.568861 0.139069
0.138175 0.507443 -0.042831
0.068216 0.357418 0.184355
-0.014351 0.370465 0.187673
0.178144 0.542322 0.089755
0.020449 0.486428 0.275760
0.194513 0.495709 -0.000945
-0.028983 0.254832 0.257318
0.178773 0.331492 0.065005
-0.060217 0.350006 0.152534
-0.012319 0.408128 0.230203
-0.039506 0.495788 0.220425
0.095975 0.366783 0.193278
0.258914 0.502235 0.015853
0.016849 0.496257 0.211402
0.239571 0.480599 0.008657
0.048645 0.541511 0.242031
0.037114 0.495434 0.295815
0.059611 0.293274 0.178487
0.074443 0.397042 0.162986
0.170912 0.531265 0.004927
-0.002484 0.250304 0.271000
0.172845 0.290260 -0.001907
0.158566 0.413529 0.000453
0.016987 0.416480 0.196342
0.193365 0.304391 0.002075
0.025429 0.382965 0.286959
0.134010 0.579574 0.054025
0.016435 0.535495 0.095563
-0.039101 0.522710 0.238660
0.105620 0.493990 0.132749
0.230800 0.570472 0.048506
0.143201 0.269360 0.105873
0.084768 0.349136 0.158265
0.094909 0.424318 0.185187
0.102014 0.290317 0.066751
0.032142 0.462425 0.088402
0.132005 0.505038 0.078152
-0.017631 0.438434 0.142912
-0.062153 0.346963 0.176864
0.060572 0.472753 0.089667
0.171755 0.499322 0.087649
0.125684 0.393587 0.070505
0.191104 0.346438 0.007753
-0.028062 0.514282 0.257037
0.142844 0.476546 -0.018932
-0.026582 0.472935 0.191983
0.210826 0.320318 0.016506
0.155484 0.530236 0.032636
0.105099 0.424188 0.012473
0.114988 0.347869 0.120325
0.177686 0.303494 0.040650
-0.051487 0.458899 0.171770
0.165676 0.445981 0.106041
0.128416 0.516665 0.140515
0.004793 0.339314 0.075659
0.075104 0.546140 0.105176
0.045627 0.518829 0.147574
0.179176 0.437311 0.085777
0.054159 0.467339 0.133969
0.218452 0.315352 -0.048417
0.072007 0.397396 0.199598
0.016781 0.315686 0.108988
0.028376 0.328356 0.112864
0.041045 0.398685 0.053388
0.009332 0.397400 0.187191
-0.009917 0.548124 0.289127
0.146045 0.585561 -0.029151
0.138262 0.276987 0.121811
0.214584 0.382380 -0.005690
0.110764 0.191722 0.139589
0.056735 0.547507 0.182897
0.051832 0.527546 0.277921
0.255055 0.538776 -0.001537
0.044405 0.471405 0.081399
0.128011 0.564851 0.100728
0.108535 0.426896 0.173695
0.099235 0.567182 0.008946
0.188073 0.495623 0.034278
0.188612 0.361231 -0.029756
0.098933 0.588987 0.045869
-0.078439 0.380396 0.224792
-0.008260 0.438559 0.132051
-0.022171 0.468602 0.235870
0.086721 0.536889 0.186459
0.134746 0.413470 0.064484
-0.019052 0.291953 0.248643
0.039484 0.338652 0.187873
0.223461 0.308984 0.033934
0.119049 0.236005 0.088031
-0.085912 0.482563 0.223812
0.210323 0.338260 -0.003627
-0.013826 0.332313 0.254137
0.113780 0.459721 0.076726
0.265046 0.291008 -0.013125
0.159017 0.491505 0.137971
0.260563 0.399709 0.015563
0.201091 0.298300 0.031195
-0.033617 0.382530 0.186717
0.192133 0.550249 0.028705
0.109823 0.316875 0.022504
-0.026591 0.379666 0.163889
0.091460 0.292651 0.055472
0.171979 0.431148 -0.042484
0.003669 0.569497 0.165034
0.160680 0.395647 -0.029524
0.141009 0.433593 -0.018857
0.268563 0.582581 0.013167
0.024443 0.350722 0.248913
0.228933 0.478080 -0.004297
0.130034 0.380822 0.032248
0.092135 0.328666 0.155020
0.133425 0.370716 0.000793
0.132297 0.554109 0.025376
0.021115 0.487098 0.148778
0.116519 0.456608 0.145686
0.256064 0.494606 0.043501
0.167036 0.398052 0.003931
0.024419 0.507858 0.277693
0.115014 0.415413 0.139605
0.077036 0.428369 0.226762
0.020377 0.456280 0.174194
0.141022 0.342393 -0.061864
0.189129 0.509226 -0.050934
-0.047180 0.504879 0.227573
0.120775 0.456924 -0.022019
0.185261 0.369236 0.009304
0.028822 0.382992 0.151352
0.116756 0.536406 0.056072
0.175001 0.548742 -0.020054
0.080053 0.533517 0.243473
0.151918 0.248570 0.032495
0.246461 0.522083 0.011330
0.193273 0.327984 -0.014491
-0.025214 0.319906 0.142385
0.226260 0.259078 0.023278
0.127529 0.518103 0.177120
0.070914 0.289571 0.105462
0.184570 0.310956 0.002997
0.008792 0.496776 0.231200
0.119236 0.459314 0.091720
0.199620 0.432624 0.070124
0.159153 0.538867 0.092873
0.137345 0.569027 0.026160
0.216630 0.284364 0.029262
-0.044481 0.435293 0.227169
-0.054511 0.322780 0.182513
0.121789 0.574567 0.164100
0.066832 0.391126 0.106441
0.072909 0.479446 0.064247
0.110254 0.314741 0.109425
-0.032078 0.545289 0.253108
0.072237 0.453195 0.125214
0.175001 0.436406 0.029203
0.152390 0.413752 0.032031
0.010999 0.484840 0.103030
0.108400 0.342395 0.066657
0.043886 0.395873 0.195585
0.203714 0.525588 -0.022797
0.000092 0.403582 0.163140
0.141766 0.392279 0.119157
-0.073351 0.537921 0.238113
0.101247 0.575830 0.108534
0.160194 0.403808 -0.027744
0.046887 0.510472 0.148809
0.082207 0.328625 0.148533
0.017709 0.469451 0.233738
0.087184 0.574674 0.091702
0.056248 0.304885 0.203732
0.105847 0.375937 0.136348
0.060585 0.400456 0.115111
0.106467 0.402324 0.126945
0.095864 0.405458 0.029736
0.143531 0.566212 0.117867
0.062052 0.456900 0.170246
0.244093 0.280225 -0.022247
0.025961 0.235272 0.187434
0.203463 0.360312 0.068803
0.142824 0.436060 0.037057
0.122365 0.475864 0.011699
0.164001 0.503086 0.084419
-0.037804 0.283787 0.240767
0.165663 0.503837 0.127873
0.230740 0.398892 -0.023108
0.103019 0.329661 0.108406
0.124764 0.471420 0.055307
-0.035737 0.471750 0.257695
0.016598 0.445798 0.186808
0.122044 0.483684 0.131495
0.034633 0.461577 0.231929
0.049929 0.401903 0.218606
0.187135 0.272361 -0.021303
0.143388 0.501892 0.120700
0.018731 0.283646 0.100810
0.023415 0.288725 0.271223
-0.006126 0.575225 0.191719
0.124822 0.372336 0.014320
-0.038025 0.273806 0.248263
0.039533 0.475092 0.078427
0.075270 0.409865 0.055908
0.232805 0.330068 -0.011523
0.078097 0.249319 0.177505
-0.028359 0.288568 0.172991
-0.029020 0.366085 0.161925
0.136555 0.581278 -0.027068
0.068814 0.440048 0.173113
0.028472 0.325558 0.220182
0.010054 0.523998 0.180453
0.101418 0.483878 0.105215
0.163616 0.280472 0.013780
0.152537 0.388839 0.006556
0.222545 0.351367 0.016949
0.191231 0.366488 0.000670
0.143214 0.274806 0.087753
0.201671 0.391162 0.055841
0.174962 0.257731 0.058939
0.035819 0.394490 0.095666
0.178141 0.372486 -0.068836
0.258026 0.352539 0.010948
0.129014 0.422605 0.135926
0.085032 0.462283 0.140575
0.085840 0.541379 0.053999
0.080916 0.512744 0.142303
0.119752 0.391082 -0.019590
0.015410 0.511028 0.129026
0.201189 0.373696 -0.031358
0.151619 0.591818 0.024524
0.041571 0.431379 0.163334
0.211471 0.357753 0.058276
0.168528 0.505759 0.028392
0.078173 0.523361 0.065816
0.114514 0.417960 0.056561
0.097198 0.458967 0.176962
0.149907 0.367172 0.001077
0.041364 0.473012 0.276926
0.007797 0.525816 0.232745
0.129986 0.569220 0.168843
-0.021297 0.363797 0.246469
0.108673 0.505494 0.172553
0.006939 0.480795 0.204164
0.088812 0.412011 0.106930
-0.077348 0.347296 0.208502
0.143159 0.550175 0.101816
0.222371 0.474326 0.017702
-0.061834 0.400870 0.170431
0.120079 0.581722 0.089895
0.106006 0.518021 0.039981
0.147016 0.445031 0.134560
0.130658 0.456688 0.183208
0.169759 0.403899 0.095369
0.134105 0.584067 -0.017241
-0.016769 0.413538 0.189534
0.037253 0.347554 0.147729
-0.064392 0.447890 0.202334
0.190227 0.480552 -0.061939
0.157367 0.407025 -0.077900
-0.015608 0.431654 0.114331
0.151692 0.446406 0.074949
0.104873 0.252810 0.128998
-0.062072 0.534516 0.231837
0.137904 0.475472 -0.010646
0.134205 0.532953 0.089457
0.214100 0.493826 0.010845
0.042279 0.508052 0.064881
0.096158 0.300857 0.162518
0.051738 0.369707 0.032646
0.195543 0.422940 -0.001350
0.181796 0.464283 0.013680
0.094119 0.551666 0.057359
0.206456 0.481759 -0.029002
0.057631 0.363590 0.056763
0.125189 0.491365 -0.020007
0.076054 0.559895 0.070044
0.210038 0.537394 -0.021585
0.001374 0.511535 0.148446
0.091327 0.567359 0.016388
0.182722 0.513153 -0.044542
0.199522 0.511095 0.028475
-0.058857 0.459853 0.203697
0.069464 0.480130 0.131731
0.072676 0.576227 0.076813
0.060094 0.306506 0.185046
-0.020813 0.548798 0.204277
-0.000845 0.277468 0.254936
0.060615 0.403228 0.059486
0.161218 0.454191 0.113252
0.033375 0.524091 0.296249
0.105429 0.433346 0.183093
0.255072 0.539599 0.014795
0.033812 0.423181 0.127636
0.057353 0.538002 0.152244
-0.014176 0.375170 0.253587
0.225858 0.565746 0.092537
-0.034621 0.409857 0.232030
0.113614 0.545557 0.137848
0.057754 0.504756 0.054134
0.006385 0.431663 0.299965
0.068475 0.510952 0.055981
0.131922 0.275635 0.118358
0.078028 0.466802 0.089459
0.031489 0.410740 0.228673
-0.015119 0.518203 0.174917
0.076093 0.297642 0.161190
0.172050 0.510471 0.106342
-0.017932 0.396563 0.179487
0.053627 0.469960 0.206879
0.027437 0.279974 0.175686
0.035918 0.474420 0.275666
0.173778 0.584469 0.010963
0.026436 0.368080 0.065950
-0.048000 0.533922 0.201184
0.034576 0.589660 0.100593
0.056990 0.533230 0.197801
-0.016526 0.556862 0.194240
0.167367 0.571224 0.113787
0.056464 0.341155 0.062276
0.113859 0.571510 0.177366
0.214635 0.433290 0.010788
0.156219 0.577693 0.126266
0.136985 0.391492 -0.024150
0.078290 0.441519 0.194913
0.006320 0.435767 0.284162
0.128958 0.408989 0.017440
0.100699 0.541184 -0.003275
0.035496 0.554562 0.218285
0.082765 0.396511 0.036781
-0.076553 0.394257 0.224987
0.211912 0.319688 -0.010448
0.172151 0.452753 0.021481
0.083437 0.161350 0.159654
0.145971 0.373215 -0.004437
0.164969 0.417177 0.054277
0.187144 0.510453 -0.046214
-0.014115 0.225467 0.199315
0.167898 0.491648 -0.014906
-0.019307 0.531068 0.171766
-0.023403 0.426047 0.181396
0.157912 0.321842 0.048318
0.215462 0.574190 0.090744
0.064647 0.416421 0.088586
0.043275 0.296157 0.062376
0.111130 0.334795 0.164995
0.140018 0.310608 0.088818
0.021913 0.383541 0.204056
0.132252 0.363394 0.027193
-0.010597 0.454390 0.177264
0.068234 0.494264 0.239153
0.035923 0.326112 0.111814
0.248556 0.255692 -0.017734
0.152805 0.555909 0.025507
0.027532 0.379109 0.085808
0.145568 0.511428 0.161877
0.186083 0.338986 0.057959
-0.015263 0.486483 0.153512
0.036796 0.375630 0.264288
0.052028 0.502123 0.230523
0.171386 0.331190 0.038342
0.045260 0.288206 0.171989
0.024423 0.324877 0.174696
0.058266 0.433119 0.099538
-0.020699 0.510400 0.243763
0.123722 0.395873 -0.038657
0.191566 0.370329 -0.007815
0.207644 0.478887 -0.011651
0.020433 0.544600 0.100882
0.034826 0.474075 0.134924
0.150438 0.519300 0.141133
0.149876 0.553901 0.089538
0.103227 0.526631 -0.005715
0.008058 0.390771 0.217421
-0.025944 0.381065 0.180735
0.053862 0.265447 0.204445
-0.038842 0.323646 0.217327
0.031171 0.368570 0.050172
-0.005524 0.476594 0.156671
0.121770 0.337631 0.127184
0.112601 0.479931 0.116529
0.013232 0.383233 0.163789
0.144119 0.492379 -0.021663
-0.025701 0.275127 0.232023
0.173557 0.521873 0.012955
0.194515 0.485400 0.091708
0.109182 0.472198 0.173465
0.104000 0.307450 0.127175
0.205130 0.429728 0.052741
0.164644 0.317638 0.061963
0.026010 0.533035 0.319652
-0.018701 0.385023 0.269590
0.126545 0.557875 0.154124
0.066625 0.356168 0.216309
0.175057 0.555589 0.104830
0.172798 0.391172 0.089073
0.063301 0.404932 0.222462
0.263914 0.511436 0.012916
0.233811 0.544139 0.060434
0.040370 0.529127 0.193594
0.178601 0.159178 0.099771
0.052177 0.125456 0.242300
0.153983 0.164938 0.114115
0.129000 0.174035 0.122617
0.048429 0.163300 0.242228
0.245626 0.369047 -0.024760
0.245349 0.480580 -0.016669
0.220885 0.391501 -0.044500
-0.004086 0.207227 0.276885
0.188494 0.425964 -0.069964
0.253363 0.493783 -0.008746
0.215144 0.520900 -0.039804
-0.070109 0.435139 0.236757
0.245218 0.436047 -0.020109
0.279630 0.542596 0.017637
0.221382 0.325538 -0.048996
0.213866 0.579435 -0.036539
0.219021 0.335777 -0.050275
0.196333 0.583410 -0.051418
0.233837 0.338514 -0.037245
0.006996 0.449218 0.304552
0.221298 0.347364 -0.047439
0.003835 0.448177 0.301738
0.237791 0.465005 -0.024375
-0.078257 0.342030 0.222749
-0.054790 0.381185 0.245987
0.213034 0.435349 -0.048020
0.284323 0.571513 0.023859
0.167124 0.497794 -0.083098
0.265136 0.317813 -0.011699
-0.035553 0.386484 0.263035
0.183912 0.544071 -0.065109
-0.069901 0.289805 0.226081
-0.046216 0.437273 0.257598
-0.006209 0.519937 0.298404
-0.084869 0.576883 0.234567
-0.008142 0.349873 0.284028
0.191993 0.387504 -0.069807
-0.006138 0.213176 0.275553
0.251122 0.565939 -0.005297
-0.032585 0.377918 0.264965
0.221733 0.568996 -0.030508
-0.003688 0.435657 0.294291
0.208340 0.568660 -0.042126
-0.071740 0.352306 0.229158
-0.027750 0.498852 0.278182
-0.050251 0.550815 0.262586
-0.048375 0.503014 0.260640
0.184580 0.401490 -0.075179
0.200619 0.371446 -0.063540
-0.031436 0.294174 0.259705
0.203380 0.391313 -0.059666
0.011944 0.429344 0.307351
-0.017050 0.463440 0.284800
0.230921 0.538532 -0.024831
0.223676 0.439265 -0.038516
0.215847 0.530465 -0.038482
0.234682 0.457484 -0.027629
0.263851 0.578400 0.006653
0.259270 0.322031 -0.016461
0.192760 0.455904 -0.064035
0.215652 0.552142 -0.037031
0.242806 0.500069 -0.017415
0.199903 0.588699 -0.047933
-0.025064 0.535980 0.283280
0.219132 0.573723 -0.032407
0.197070 0.406794 -0.063972
-0.021194 0.393795 0.276011
-0.084885 0.502713 0.229013
0.258197 0.460083 -0.007079
0.006771 0.397686 0.300508
0.016736 0.495370 0.316430
-0.009095 0.507843 0.295002
-0.067395 0.437910 0.239313
-0.045755 0.570535 0.267950
0.224593 0.557310 -0.028905
-0.090487 0.276942 0.207301
0.213686 0.519888 -0.041142
0.261933 0.319981 -0.014309
0.171322 0.555792 -0.075132
-0.028235 0.312746 0.263862
-0.099542 0.412692 0.209602
-0.015030 0.393068 0.281292
-0.066796 0.368620 0.234656
0.254793 0.269743 -0.024242
0.008416 0.534723 0.312167
-0.068583 0.539846 0.245898
-0.040851 0.302479 0.252175
0.209482 0.463457 -0.048996
-0.082835 0.388291 0.222242
-0.032273 0.353547 0.263415
-0.085313 0.297731 0.213332
-0.001444 0.510775 0.301844
0.176342 0.367895 -0.084820
0.223730 0.526389 -0.031962
-0.084176 0.439238 0.224886
0.236454 0.272527 -0.039908
-0.087417 0.398790 0.219060
-0.049206 0.463856 0.256995
-0.061427 0.255390 0.230846
-0.036053 0.427010 0.265629
0.256976 0.554684 -0.001070
0.218357 0.289478 -0.054307
0.005432 0.559261 0.311418
-0.014517 0.504929 0.290091
-0.038983 0.460999 0.265631
0.238242 0.485900 -0.022424
0.001777 0.323599 0.290652
-0.067179 0.335415 0.231844
-0.017692 0.214092 0.265620
0.002495 0.296407 0.289243
-0.041198 0.285417 0.250600
0.258306 0.375483 -0.013303
-0.017994 0.333803 0.274300
-0.009129 0.298820 0.279360
-0.000613 0.528257 0.303869
0.268843 0.426259 -0.000390
0.262317 0.285964 -0.016517
-0.014005 0.263389 0.272494
0.212928 0.348040 -0.054633
0.218070 0.419508 -0.044844
-0.062770 0.353603 0.237019
0.213154 0.488324 -0.043960
-0.020331 0.255369 0.266419
-0.024134 0.176188 0.257213
0.261296 0.503521 -0.001152
-0.009317 0.437999 0.289593
0.245633 0.332034 -0.027518
-0.041679 0.258801 0.248196
0.174890 0.367269 -0.086124
-0.005085 0.274720 0.281062
0.258393 0.541271 -0.000846
0.181172 0.449758 -0.074525
-0.024663 0.548838 0.284588
0.185103 0.380475 -0.076297
-0.057849 0.535749 0.254884
-0.031489 0.518834 0.276438
-0.053493 0.260982 0.238132
0.013784 0.461940 0.311378
0.226725 0.445374 -0.035420
0.212650 0.561399 -0.038938
0.184086 0.530294 -0.065988
0.233460 0.329119 -0.038274
0.187205 0.477604 -0.067222
0.266310 0.406610 -0.004050
0.274721 0.495947 0.009904
0.214662 0.370865 -0.051427
0.235114 0.423000 -0.029829
0.252763 0.527872 -0.006719
0.198713 0.366467 -0.065562
-0.001981 0.342945 0.288844
-0.009452 0.561023 0.298665
-0.042107 0.217053 0.244707
0.258521 0.503882 -0.003527
-0.057017 0.370642 0.243272
-0.035792 0.313505 0.257378
-0.035980 0.370194 0.261449
-0.040975 0.502354 0.266996
0.225131 0.286218 -0.048688
-0.048314 0.448133 0.256593
0.222227 0.424338 -0.040885
-0.026551 0.376723 0.270098
0.195740 0.495040 -0.058532
0.188510 0.549854 -0.060697
-0.018043 0.388023 0.278307
0.180527 0.585897 -0.064915
-0.099388 0.341016 0.204381
-0.095041 0.470081 0.217784
0.181249 0.535999 -0.068016
0.191596 0.438078 -0.066374
0.214511 0.317213 -0.055565
