ply
format ascii 1.0
element vertex 890
property float x
property float y
property float z
end_header
-0.135309 0.221394 0.030464
-0.109160 0.011586 -0.138590
-0.116240 0.152859 -0.073847
-0.137403 0.158783 -0.098417
-0.056241 0.065010 0.022383
-0.126274 0.010872 -0.016070
-0.124498 0.086351 -0.182848
-0.155523 0.077165 -0.126148
-0.145362 0.011325 -0.066412
-0.048820 0.219727 0.122183
-0.103789 0.143391 -0.061389
-0.139377 0.126210 0.017846
-0.164625 0.169936 -0.134122
-0.109889 0.243379 0.087450
-0.113973 0.183021 -0.059786
-0.140457 0.043080 0.043891
-0.081365 0.000955 -0.085302
-0.131965 0.239152 -0.072792
-0.083636 0.090542 0.083228
-0.089418 0.253384 0.059184
-0.046365 0.147284 -0.182973
-0.041005 0.047085 -0.109782
-0.152322 0.105529 -0.079960
-0.036203 0.142172 0.092718
-0.166086 0.162184 0.085162
-0.117803 0.077508 -0.026390
-0.084755 0.248371 -0.030033
-0.079607 0.054097 0.071728
-0.052879 0.190814 -0.032859
-0.084278 0.044793 -0.028634
-0.042620 0.207453 -0.034657
-0.107921 0.267619 0.008407
-0.096354 -0.018815 -0.170872
-0.070792 0.081660 0.013784
-0.075523 0.052089 -0.155216
-0.047403 0.259542 0.145967
-0.045565 0.125685 0.158700
-0.095768 0.226862 -0.086725
-0.116426 0.112323 0.162302
-0.067419 0.276444 0.054502
-0.107175 0.159991 -0.127295
-0.055661 0.175651 -0.121052
-0.105049 0.025477 -0.176553
-0.064658 0.157887 0.086531
-0.101267 0.174251 0.186702
-0.075112 -0.003894 -0.193705
-0.103530 0.176966 -0.094244
-0.092811 0.271729 -0.035807
-0.112591 0.257763 -0.106169
-0.060539 0.258546 0.002222
-0.085826 0.132891 0.198437
-0.057318 0.129891 0.110753
-0.058021 0.185597 0.149903
-0.074893 0.197772 -0.067899
-0.121365 -0.023428 -0.080657
-0.074473 0.212704 0.150938
-0.117158 0.061517 0.009889
-0.044502 0.225168 0.087328
-0.132020 0.252316 -0.108218
-0.069087 0.052969 -0.128791
-0.088714 0.272071 -0.115053
-0.124459 0.110292 0.112660
-0.057610 0.082087 -0.009758
-0.107808 0.072955 0.039885
-0.041316 0.202381 0.052073
-0.032492 0.095217 -0.059441
-0.057681 0.170214 0.107923
-0.109109 0.088996 -0.121841
-0.138463 -0.052586 -0.162155
-0.100898 0.278454 -0.145808
-0.178447 0.187102 -0.020518
-0.081811 0.056633 0.054307
-0.153241 0.201567 -0.050220
-0.087035 0.163056 -0.107884
-0.018947 0.098956 -0.013672
-0.079912 0.287078 0.018276
-0.065909 0.185209 0.011698
-0.048842 0.211261 -0.072346
-0.091149 0.145236 0.085374
-0.118340 0.229326 -0.161512
-0.149693 0.135581 0.075465
-0.106692 0.281592 -0.009574
-0.124096 0.120128 -0.133994
-0.051785 0.281847 -0.119791
-0.103818 0.120036 -0.048577
-0.094395 0.172593 0.088987
-0.140811 -0.062446 -0.087528
-0.170237 0.121158 -0.070307
-0.151017 0.063732 -0.167690
-0.117267 0.033086 -0.115129
-0.050190 0.090143 -0.170463
-0.037593 0.188711 0.154856
-0.071240 0.242124 -0.156488
-0.046116 0.225995 0.076192
-0.117228 0.224904 0.142256
-0.059233 0.025933 -0.109545
-0.044853 0.070291 0.051497
-0.171163 0.187574 -0.187187
-0.045151 0.077703 -0.178673
-0.134785 0.119336 -0.029272
-0.029250 0.173845 0.196452
-0.066431 0.247660 0.021093
-0.093660 0.103614 -0.108440
-0.125415 -0.015808 -0.194078
-0.048218 0.142570 -0.058043
-0.129828 0.065661 0.194494
-0.094555 0.144390 -0.106628
-0.153265 0.232491 0.186329
-0.127268 -0.020538 0.004050
-0.097194 0.012635 -0.089497
-0.046235 0.091977 -0.042634
-0.161143 0.135925 0.185650
-0.089595 -0.039656 -0.042419
-0.046368 0.203948 -0.151897
-0.054929 0.228202 -0.081628
-0.132561 0.142313 0.169427
-0.052896 0.161835 0.154739
-0.138593 0.223836 0.116017
-0.155456 0.182755 -0.022060
-0.130010 -0.003823 -0.109120
-0.044972 0.312587 0.029211
-0.033376 0.209875 0.089169
-0.073268 0.063794 0.197632
-0.114122 0.099745 -0.193255
-0.168452 0.248512 0.141263
-0.114099 0.178139 0.031576
-0.067513 0.148422 0.185283
-0.052861 0.145765 -0.032334
-0.072838 0.185386 -0.051936
-0.111739 0.124740 -0.063148
-0.031993 0.114715 -0.136583
-0.134977 0.250634 -0.161166
-0.059494 0.037230 -0.168470
-0.150562 0.073945 0.027578
-0.166440 0.135341 -0.153995
-0.105880 0.132218 0.066196
-0.073800 0.065041 0.007448
-0.086568 0.182392 -0.190630
-0.039060 0.145178 0.037054
-0.079307 0.238634 -0.117550
-0.105772 0.243300 0.185322
-0.080996 0.276494 -0.081953
-0.134970 0.023784 -0.103430
-0.068187 0.116507 -0.140388
-0.097081 0.186832 -0.118833
-0.114459 0.041136 0.086755
-0.063956 0.108406 0.039689
-0.051942 0.240638 -0.035983
-0.061329 0.103585 0.003946
-0.113085 0.033801 0.198294
-0.111979 0.163391 -0.011383
-0.123994 0.259677 -0.158367
-0.052170 0.086173 -0.022313
-0.070637 0.180867 -0.110588
-0.086859 0.300597 0.013192
-0.117879 0.067653 0.131406
-0.121015 0.024604 -0.019362
-0.058886 0.243628 0.161425
-0.137821 0.074468 0.186059
-0.136343 0.106332 0.123469
-0.055923 0.324120 0.035632
-0.127718 0.104856 0.161094
-0.153430 0.105699 -0.138320
-0.143101 0.018372 -0.130073
-0.078373 0.051431 0.074626
-0.122636 0.103422 0.108642
-0.086423 0.179115 0.019496
-0.148029 0.238759 -0.161149
-0.050193 0.288622 0.157926
-0.147130 -0.036067 -0.041318
-0.072071 0.133119 -0.024539
-0.089291 0.116380 -0.105307
-0.140651 -0.060557 -0.161175
-0.111895 0.118698 0.023255
-0.092933 0.289120 0.076998
-0.054988 0.323338 0.063672
-0.107770 0.159969 -0.151385
-0.022086 0.105678 -0.036664
-0.065885 0.119174 -0.000015
-0.145782 0.220574 0.200044
-0.049915 0.193928 -0.031795
-0.096972 0.260856 0.153583
-0.141793 0.027499 -0.152605
-0.119485 0.151604 -0.129306
-0.141499 -0.017429 -0.143198
-0.079020 0.321592 -0.041051
-0.145275 0.200959 0.043322
-0.122964 0.157260 0.017580
-0.117961 0.273156 0.053571
-0.087104 0.167093 -0.024172
-0.068183 0.127844 0.121368
-0.112684 0.160230 0.077436
-0.091493 0.295445 0.053073
-0.150097 0.184372 0.049108
-0.071514 0.246498 0.015682
-0.091056 0.046034 -0.146708
-0.067081 0.035748 -0.157782
-0.033036 0.150182 0.079661
-0.090332 0.068192 -0.134385
-0.146496 0.052555 -0.040078
-0.111769 0.334693 0.138811
-0.127416 0.130813 -0.088432
-0.117049 0.126775 0.086920
-0.071704 0.071963 0.054773
-0.106760 0.201635 -0.099417
-0.099588 0.034699 0.164548
-0.054286 0.094916 0.096680
-0.150478 -0.053203 -0.131774
-0.163763 0.195154 0.135661
-0.160332 0.078399 0.027361
-0.069259 0.098522 -0.081106
-0.074836 0.262814 -0.107889
-0.089451 0.106012 -0.003072
-0.094608 0.191967 0.154043
-0.118805 -0.076099 -0.175558
-0.090626 0.082220 0.129315
-0.134813 0.121199 -0.189579
-0.074050 0.134445 0.142260
-0.062977 0.044395 -0.166845
-0.062132 0.301425 -0.053115
-0.044374 0.157379 -0.088689
-0.139683 0.011793 0.135644
-0.105912 0.200659 -0.066652
-0.040838 0.302649 0.185662
-0.140899 0.241311 -0.057839
-0.025917 0.094735 0.080186
-0.082677 0.201496 -0.175610
-0.114843 0.181229 -0.053800
-0.098465 0.290653 0.028233
-0.042768 0.210654 0.122755
-0.084102 0.256539 -0.040467
-0.095581 0.216311 0.026617
-0.136120 -0.079502 -0.168228
-0.122911 0.013419 0.076819
-0.099274 0.295465 -0.165468
-0.141654 0.228832 0.110293
-0.133917 0.248279 -0.028522
-0.130215 0.191775 -0.138594
-0.068722 0.310722 0.135903
-0.138481 0.106941 0.203456
-0.097795 0.016832 -0.114656
-0.109713 0.207772 0.149649
-0.119711 0.128838 0.128460
-0.048048 0.139006 -0.063384
-0.051460 0.063270 -0.112808
-0.062332 0.143226 0.036086
-0.054173 0.056694 0.073887
-0.116654 0.092162 -0.094370
-0.028067 0.059195 -0.156149
-0.046453 0.189042 0.181008
-0.138267 0.261795 -0.103880
-0.074407 0.324962 0.189350
-0.102194 0.208129 -0.139990
-0.103482 0.040367 -0.010882
-0.088551 0.119180 0.056840
-0.094515 0.189734 0.044789
-0.040768 0.234239 0.022166
-0.103690 0.043963 -0.144584
-0.159457 0.251686 -0.086921
-0.053239 0.195415 -0.018137
-0.083504 0.192765 -0.127917
-0.073749 0.044714 -0.080961
-0.055719 0.080880 -0.100796
-0.019789 0.145793 0.174513
-0.049336 0.229940 0.201817
-0.088997 0.162912 0.125856
-0.057686 0.194383 0.162959
-0.137892 0.205883 0.152401
-0.126544 0.145474 -0.122394
-0.133137 -0.028228 -0.192738
-0.083616 0.281467 0.043091
-0.163112 0.231729 0.009790
-0.155732 0.111341 0.078680
-0.027188 0.097988 -0.172145
-0.068614 0.169344 0.018269
-0.023735 0.171646 0.163232
-0.080200 0.254541 -0.085914
-0.154946 0.181396 0.051340
-0.127823 0.253612 0.119918
-0.053896 0.012749 -0.175934
-0.110683 0.056214 0.048077
-0.117981 0.241784 0.194760
-0.094637 0.161742 -0.093304
-0.081667 0.204243 -0.137463
-0.106010 0.227211 -0.110142
-0.079097 0.174987 0.054285
-0.032935 0.227364 -0.036466
-0.107325 0.011334 -0.020867
-0.046391 0.189858 -0.191122
-0.149105 0.191263 -0.069477
-0.067823 0.262221 -0.044686
-0.148719 0.071911 0.151059
-0.083041 0.164948 0.165093
-0.141640 -0.010979 -0.117203
-0.070773 0.005987 -0.186723
-0.108259 0.201652 0.190604
-0.062158 0.286812 -0.011290
-0.148194 0.230535 -0.127452
-0.120503 0.210291 0.046471
-0.100968 0.099007 -0.181409
-0.059349 0.265216 -0.188102
-0.124420 0.141670 0.154953
-0.161245 0.156216 -0.111194
-0.104438 0.236942 -0.155180
-0.128760 0.174648 -0.076285
-0.089487 0.116270 0.025585
-0.153356 0.183089 0.143992
-0.146767 0.152870 -0.183910
-0.111330 0.006312 -0.001203
-0.167151 0.194353 0.113046
-0.063898 0.175731 0.183300
-0.057225 0.215393 0.124489
-0.047661 0.198824 -0.025469
-0.093973 0.056286 0.123637
-0.096897 0.075846 0.168314
-0.053946 0.047455 -0.176036
-0.128761 0.239648 -0.102753
-0.059179 0.352241 -0.058979
-0.047090 0.066980 -0.086762
-0.077971 0.268195 0.135900
-0.127356 -0.047977 -0.031325
-0.094374 -0.032773 -0.188391
-0.093280 0.228811 0.032815
-0.043980 0.185840 -0.182597
-0.102939 0.102106 0.034623
-0.114254 0.189233 0.160930
-0.101772 0.201064 -0.178141
-0.136333 0.264880 0.089549
-0.158761 0.140715 -0.097180
-0.164963 0.171948 0.137466
-0.149066 0.184753 0.147837
-0.046859 0.052838 -0.126260
-0.061624 0.246845 0.132175
-0.074016 0.230473 -0.097652
-0.096293 0.214888 0.078745
-0.083779 0.096576 0.056096
-0.082391 0.070027 -0.101661
-0.123153 0.052362 -0.194140
-0.049769 0.124584 -0.195979
-0.077197 0.093375 -0.152673
-0.124215 0.249413 0.137671
-0.137640 -0.073236 -0.118533
-0.137053 0.124083 -0.119754
-0.119461 0.014339 -0.103383
-0.069260 0.317982 0.201346
-0.037985 0.231496 0.186248
-0.038751 0.200139 0.043528
-0.128929 0.015874 -0.093030
-0.149082 0.230063 -0.186785
-0.145702 -0.039433 -0.085293
-0.028580 0.017045 -0.117254
-0.152594 0.211705 -0.114423
-0.061271 0.224198 0.100799
-0.166573 0.191003 -0.170250
-0.053066 0.128726 0.041529
-0.098286 0.281075 -0.134585
-0.039917 0.113869 -0.111563
-0.053082 0.125650 -0.137188
-0.111976 0.191696 -0.042668
-0.093728 0.060429 -0.006752
-0.112692 0.241967 -0.093081
-0.161983 0.185335 -0.158185
-0.063355 0.152733 0.127474
-0.095384 0.204198 -0.180271
-0.131523 0.250953 -0.188092
-0.095546 0.044419 0.063585
-0.045602 0.096251 -0.151577
-0.122499 0.162721 0.066214
-0.052519 0.127129 -0.143911
-0.066395 0.295697 0.190591
-0.064961 0.237119 -0.175503
-0.047287 0.343489 0.181662
-0.118404 0.213874 -0.094766
-0.085138 0.209114 -0.143100
-0.108363 0.083218 0.118642
-0.156406 0.073441 -0.047173
-0.092123 0.131371 0.013654
-0.092947 0.156011 -0.052124
-0.126497 0.228737 -0.149809
-0.035323 0.182470 -0.123394
-0.164073 0.189776 0.151083
-0.131552 0.249959 -0.155538
-0.138989 0.067941 0.121726
-0.044473 0.178860 -0.194274
-0.133836 0.124042 -0.125019
-0.046202 0.085679 -0.006824
-0.110299 0.226988 -0.080354
-0.096977 0.296472 -0.114600
-0.136382 0.183311 0.074069
-0.022862 0.071356 -0.141736
-0.091298 0.016239 -0.044620
-0.075018 0.072186 -0.074126
-0.053415 0.296477 0.023441
-0.120378 0.052999 -0.042464
-0.085525 0.290145 -0.002647
-0.136056 0.211165 -0.162817
-0.135771 -0.033939 -0.178806
-0.064636 0.049672 0.022708
-0.077329 0.030295 0.116873
-0.153409 0.164868 0.168974
-0.060165 0.278876 0.202465
-0.126731 0.249575 0.032818
-0.086172 0.196979 -0.024264
-0.061495 0.188758 -0.054051
-0.038307 0.177486 -0.009849
-0.115026 0.194793 0.029187
-0.028579 0.098558 -0.017720
-0.057003 0.266363 -0.021988
-0.066024 0.346340 -0.052043
-0.047279 0.220265 0.038658
-0.154780 0.108459 0.136334
-0.106735 0.071479 -0.057586
-0.133228 0.246145 0.095952
-0.068135 0.267686 0.025742
-0.166510 0.182176 0.178924
-0.133135 0.085076 -0.155704
-0.118440 0.017953 -0.014398
-0.047409 0.246424 0.142060
-0.055088 0.256096 -0.179179
-0.147006 0.113606 0.132763
-0.182486 0.090763 -0.115110
-0.165925 0.176117 -0.066030
-0.132822 -0.029788 -0.123555
-0.172400 0.096783 0.016831
-0.149854 0.094852 -0.028144
-0.153250 0.093317 -0.067017
-0.172405 0.168903 -0.082744
-0.129751 0.006110 0.083193
-0.139444 0.116161 0.145165
-0.180049 -0.007224 -0.054138
-0.157818 0.095867 -0.007560
-0.156118 0.040949 -0.141687
-0.191659 0.139740 0.085670
-0.161125 0.168710 -0.064117
-0.184822 0.128080 -0.105530
-0.164854 0.017502 -0.086947
-0.163812 -0.011368 -0.086097
-0.179231 0.119276 0.019213
-0.163722 0.011147 -0.088592
-0.180435 -0.004016 -0.048982
-0.162043 0.132417 0.117688
-0.159040 -0.064310 -0.074295
-0.173439 0.018438 -0.029733
-0.153047 -0.026506 0.001235
-0.163804 0.050540 -0.114837
-0.163628 0.085696 0.004796
-0.147798 0.117893 -0.061474
-0.159349 -0.011425 -0.091880
-0.160549 0.057968 0.003181
-0.152563 0.062718 0.134669
-0.180609 -0.023983 -0.045442
-0.158352 0.067490 -0.057827
-0.150494 0.088336 -0.052021
-0.159656 0.069104 0.105168
-0.153624 0.077894 -0.049101
-0.177333 0.012662 -0.043206
-0.170822 -0.053925 -0.038160
-0.159592 0.131158 -0.007660
-0.158063 0.158736 0.128307
-0.155670 0.006784 0.003353
-0.166295 0.076634 0.015559
-0.149013 0.037986 0.097368
-0.119485 -0.004778 0.055697
-0.177542 0.072616 -0.124464
-0.161868 0.168226 0.127358
-0.179093 0.069859 -0.140462
-0.186617 0.108026 0.083160
-0.176943 0.170567 -0.088382
-0.170457 -0.002812 -0.016618
-0.153530 -0.012477 0.002943
-0.163976 0.025623 -0.008849
-0.157061 0.044802 0.148115
-0.168306 -0.057929 -0.036063
-0.154361 0.159953 -0.057805
-0.193260 0.111931 0.072003
-0.155520 0.104957 0.121326
-0.168610 0.115099 0.108047
-0.143933 -0.010005 0.013289
-0.149809 0.094287 -0.057032
-0.156993 0.054593 0.072919
-0.165779 0.159195 -0.078200
-0.187059 0.085326 -0.129586
-0.157006 0.039405 0.009422
-0.157047 0.055061 0.079061
-0.173873 0.164101 0.110512
-0.153669 -0.028445 -0.095852
-0.151556 0.144272 0.131489
-0.174369 0.065253 -0.132149
-0.179950 0.154597 -0.096208
-0.169041 -0.006323 0.149654
-0.156446 0.109149 -0.076160
-0.156945 0.127570 0.122218
-0.149125 -0.057755 -0.095435
-0.155808 -0.026410 -0.001581
-0.145386 0.079114 0.148551
-0.164112 -0.032200 -0.081873
-0.165584 0.071863 0.018081
-0.155029 0.164202 -0.033719
-0.155639 0.064241 0.117094
-0.152734 0.080705 0.125618
-0.196372 0.139711 0.077178
-0.188661 0.107950 0.079387
-0.169578 0.022037 -0.020641
-0.156583 0.120078 -0.076173
-0.177574 0.081468 0.070266
-0.142165 -0.002897 0.016816
-0.161175 0.033704 0.154722
-0.151377 0.131540 -0.067317
-0.166405 -0.000682 -0.010826
-0.154300 -0.053822 -0.088781
-0.160692 -0.025045 -0.087878
-0.141672 -0.068477 -0.106781
-0.148484 -0.073443 -0.008923
-0.128833 0.002376 0.084053
-0.164828 0.105325 -0.087472
-0.168825 0.071612 0.078497
-0.157433 0.175736 0.140074
-0.178163 -0.032909 -0.037448
-0.172227 0.072512 0.053774
-0.142001 0.004282 0.019141
-0.169307 0.035078 -0.034625
-0.158911 0.078889 -0.006613
-0.151136 0.069931 0.134419
-0.145900 0.142276 -0.043914
-0.132550 0.021972 0.063466
-0.149943 0.171182 0.152536
-0.168180 0.129359 0.111022
-0.162180 0.067245 0.008112
-0.193073 0.107376 0.065697
-0.190044 0.129681 0.086482
-0.179265 0.084682 0.072271
-0.147473 0.135775 -0.029663
-0.173027 0.172001 -0.082088
-0.147967 0.074728 0.142821
-0.157240 -0.028177 -0.003396
-0.207316 0.125951 -0.139387
-0.184451 0.122506 0.092128
-0.173789 0.009155 -0.068819
-0.160142 0.077795 0.109301
-0.156082 0.070412 -0.042731
-0.160030 0.066990 -0.004501
-0.179161 0.174029 -0.090270
-0.125535 0.009402 0.054843
-0.158759 0.172989 -0.043066
-0.189556 0.092204 -0.126542
-0.150203 0.154954 -0.049667
-0.169392 0.069459 0.044863
-0.152795 0.129428 -0.017343
-0.164310 0.021222 -0.088231
-0.185682 0.163908 0.021732
-0.154867 0.095065 -0.013759
-0.152791 0.040820 0.110155
-0.172899 0.135101 0.008203
-0.148394 0.150508 -0.039999
-0.183058 0.164232 -0.098116
-0.164401 0.051495 -0.099788
-0.174579 -0.037013 -0.029817
-0.161627 0.023935 0.139937
-0.139863 0.009794 -0.128361
-0.158698 0.044078 -0.136602
-0.160663 0.121826 0.117493
-0.166675 0.073900 -0.094119
-0.187093 0.096305 -0.118783
-0.140975 0.031516 0.045897
-0.156893 0.048161 0.020374
-0.169150 -0.000847 0.151729
-0.182538 0.119223 -0.104855
-0.143784 0.004478 -0.117234
-0.187161 0.158240 0.092493
-0.132396 -0.003409 0.028346
-0.158907 -0.062106 -0.076505
-0.160882 0.087340 -0.001317
-0.145962 0.036728 0.040223
-0.150161 -0.013372 0.006268
-0.134373 -0.001167 0.026639
-0.164894 0.153091 -0.006107
-0.169162 -0.009404 0.149627
-0.150381 0.065099 0.145518
-0.154031 0.039013 0.116899
-0.154703 0.128663 -0.014193
-0.141057 -0.044115 -0.109643
-0.151544 0.084364 -0.033703
-0.192627 0.122779 0.038327
-0.120367 -0.002178 0.055858
-0.147975 -0.019917 -0.104310
-0.171427 0.108251 0.011751
-0.160507 0.113130 0.116430
-0.191081 0.110880 -0.117046
-0.154650 0.051459 0.153350
-0.154332 -0.002834 -0.099871
-0.143318 0.020281 0.099090
-0.163712 0.022710 0.147724
-0.168387 0.007040 -0.014109
-0.148358 0.126265 0.131830
-0.158743 0.005409 0.128683
-0.166938 0.019400 -0.082562
-0.178317 0.160713 0.010546
-0.163157 0.065234 0.085055
-0.156534 0.171336 0.137629
-0.154080 0.043479 0.115264
-0.146892 0.032465 0.097478
-0.178640 0.150769 -0.095477
-0.180177 0.171623 -0.092554
-0.189347 0.134484 0.029692
-0.204837 0.131629 -0.130898
-0.130617 -0.064272 -0.138021
-0.123207 -0.001331 0.045386
-0.159504 0.170070 0.131833
-0.167139 0.066553 0.042848
-0.131998 0.004318 0.032609
-0.156974 0.145532 -0.071823
-0.155470 0.011492 -0.101933
-0.143492 0.080705 0.156540
-0.150342 0.160450 0.140100
-0.155512 0.049051 0.137335
-0.170824 -0.017627 0.156392
-0.155251 0.018962 0.122237
-0.144624 0.038493 0.070420
-0.167217 -0.059278 -0.034663
-0.178877 -0.013047 -0.059379
-0.137955 0.024612 0.082317
-0.144492 0.020947 -0.130597
-0.145310 0.025190 0.099953
-0.149518 0.023068 0.109938
-0.150602 0.154650 -0.035336
-0.178717 -0.029466 -0.036860
-0.172072 -0.007183 -0.074168
-0.166135 0.025459 -0.083906
-0.166737 0.044546 -0.058747
-0.141490 0.102675 0.143596
-0.193322 0.109189 -0.120819
-0.177993 0.010273 -0.048698
-0.166441 0.023044 -0.013564
-0.170957 -0.036979 -0.022890
-0.126626 0.010686 0.052143
-0.199315 0.104369 -0.135399
-0.162793 0.061310 0.030010
-0.149856 0.042091 0.039211
-0.189065 0.130089 0.030139
-0.128547 -0.020812 0.028284
-0.195691 0.095103 -0.138453
-0.156241 -0.078178 -0.054846
-0.187393 0.096111 0.050797
-0.196235 0.121714 0.047478
-0.162798 -0.020595 -0.086017
-0.154453 0.165199 -0.041296
-0.171081 -0.049737 -0.060576
-0.160654 0.171803 -0.058703
-0.155588 -0.021057 -0.094878
-0.162838 0.072347 0.099049
-0.164893 0.013767 0.144458
-0.186034 0.107664 0.033782
-0.165091 0.154669 -0.079132
-0.151010 0.041062 0.101191
-0.147350 0.147564 -0.046645
-0.178239 0.084811 0.039402
-0.128017 0.013130 0.068960
-0.140920 0.097974 0.147103
-0.171229 0.026134 -0.067238
-0.172080 0.010814 -0.021747
-0.188571 0.116199 0.084318
-0.153001 0.041638 0.110473
-0.160182 0.083133 -0.002755
-0.166937 0.044048 -0.051126
-0.168856 0.088596 0.099113
-0.186966 0.127789 0.027569
-0.173614 0.087340 0.024505
-0.158251 0.143459 -0.012413
-0.154153 0.046368 0.113363
-0.148994 -0.034615 0.003949
-0.155541 0.034049 0.123201
-0.199062 0.153583 0.065566
-0.163330 0.000378 -0.088151
-0.146768 0.037385 0.089093
-0.179447 0.082620 0.052579
-0.160903 -0.025771 0.135022
-0.166690 0.043971 -0.043054
-0.156379 0.134241 -0.012750
-0.150319 0.153866 -0.035319
-0.165256 0.014890 0.146558
-0.141120 0.009025 -0.124936
-0.176735 0.068823 -0.131157
-0.147515 -0.071800 -0.093231
-0.152928 0.047871 0.095651
-0.190330 0.146924 0.029796
-0.183219 0.088694 0.051264
-0.189830 0.111187 -0.115336
-0.194319 0.122857 -0.117267
-0.164792 0.170502 0.124296
-0.138351 -0.062728 0.011764
-0.157843 0.032863 -0.108382
-0.165161 0.048755 -0.053859
-0.136904 -0.012281 0.020328
-0.162977 0.026337 0.149185
-0.147932 0.037508 0.093797
-0.160679 0.064462 -0.067743
-0.131516 0.011724 0.039198
-0.163569 0.042496 -0.094228
-0.155617 0.109934 -0.011203
-0.162378 0.071752 0.005983
-0.156235 0.052781 0.056821
-0.153944 0.081162 -0.058989
-0.136760 -0.050386 -0.116139
-0.197197 0.143924 0.075321
-0.175152 0.066442 -0.131716
-0.148317 -0.020614 0.006959
-0.174205 0.020888 -0.058851
-0.201180 0.123757 -0.126639
-0.151076 -0.014209 0.005200
-0.160451 0.060892 -0.002154
-0.174004 -0.046873 -0.053975
-0.154791 0.030710 0.010458
-0.145086 0.034963 0.087442
-0.188717 0.101764 0.045049
-0.144904 -0.052734 -0.102981
-0.156270 0.017139 0.124311
-0.151458 0.140251 -0.022490
-0.151168 -0.038139 -0.097092
-0.152457 0.108773 -0.016847
-0.151875 0.033308 -0.130488
-0.162538 0.076495 0.004621
-0.168587 -0.050485 -0.066168
-0.196381 0.160712 0.045180
-0.186623 0.093491 0.057442
-0.169058 0.065782 -0.106665
-0.153405 0.049936 0.071842
-0.154414 0.156769 -0.061255
-0.150650 0.155980 -0.049942
-0.156034 0.126891 -0.074811
-0.174971 0.071718 -0.117951
-0.129446 -0.027749 0.026036
-0.146535 0.022041 -0.126263
-0.184080 0.151493 0.096693
-0.170283 0.175545 -0.008394
-0.177100 -0.038560 -0.052509
-0.187554 0.144191 -0.106003
-0.173614 0.076540 0.072673
-0.135837 0.026500 0.067449
-0.187827 0.162892 -0.104376
-0.196759 0.160576 0.071522
-0.135442 -0.042687 0.017428
-0.168006 0.040092 -0.039947
-0.174913 -0.019674 -0.067961
-0.173956 0.134138 0.105958
-0.144554 -0.030713 -0.106673
-0.155760 0.075917 0.118680
-0.171121 0.174786 0.116801
-0.151299 0.086478 -0.030986
-0.183486 0.088617 0.062734
-0.161426 0.126525 0.117396
-0.149063 0.112213 -0.023637
-0.155394 -0.074602 -0.070567
-0.162169 0.136197 -0.080743
-0.110911 0.163088 0.205139
-0.064482 0.165714 -0.197417
-0.070445 0.137306 -0.197115
-0.122288 0.270261 0.205554
-0.092981 0.120477 -0.196063
-0.115205 0.202640 -0.195125
-0.096666 0.281570 0.204366
-0.166413 0.192397 -0.192763
-0.102977 0.029576 0.204910
-0.129641 0.244921 -0.194505
-0.071548 0.368097 0.203125
-0.093629 0.066660 -0.195979
-0.052862 0.163312 0.202473
-0.082705 0.021557 -0.196435
-0.052943 0.218672 -0.198000
-0.082067 0.334813 0.203642
-0.176243 0.151808 -0.192271
-0.081587 0.259850 0.203695
-0.081835 0.080139 -0.196534
-0.114556 0.269641 -0.195223
-0.103641 0.186409 0.204782
-0.050736 -0.008521 -0.197873
-0.069548 0.058688 -0.197076
-0.092758 -0.052672 -0.195898
-0.151051 -0.037370 -0.193237
-0.051761 0.157518 0.202429
-0.099928 0.163240 0.204635
-0.050562 0.039394 -0.197929
-0.042297 0.134367 0.202018
-0.116842 0.115117 -0.194962
-0.050909 0.195346 -0.198070
-0.100416 -0.023471 -0.195576
-0.091452 0.266219 0.204142
-0.124055 0.120937 0.205785
-0.164077 0.209696 0.207533
-0.063088 0.236329 -0.197552
-0.120223 0.224037 0.205505
-0.073458 0.206512 -0.197046
-0.174060 0.222952 0.207979
-0.108017 0.057326 -0.195309
-0.072794 0.235494 0.203316
-0.106571 0.153126 0.204950
-0.153836 0.138897 -0.193287
-0.081161 0.279402 0.203656
-0.052060 0.142032 -0.197964
-0.117377 0.056621 -0.194878
-0.048678 0.147720 0.202297
-0.164715 0.216965 0.207555
-0.107350 0.098155 0.205041
-0.081336 0.201533 0.203742
-0.148135 0.081136 -0.193491
-0.128791 0.098737 -0.194397
-0.142249 0.227127 0.206514
-0.078205 0.205364 0.203595
-0.072298 -0.006257 -0.196885
-0.061758 0.143491 0.202902
-0.099161 0.195726 -0.195855
-0.147424 0.115553 0.206864
-0.076141 0.209029 0.203496
-0.050812 -0.068635 -0.197808
-0.035881 0.055311 -0.198619
-0.113910 0.141569 0.205299
-0.150705 -0.036371 -0.193254
-0.084954 -0.046692 -0.196263
-0.113230 -0.013051 -0.194998
-0.150966 0.130749 -0.193411
-0.103733 0.144663 -0.195593
-0.037893 0.106631 -0.198578
-0.068727 0.294949 0.203069
-0.165252 0.196869 -0.192821
-0.145697 0.066747 -0.193588
-0.083049 -0.023169 -0.196374
-0.036826 0.040420 -0.198561
-0.035922 0.149832 -0.198712
-0.154991 0.056323 -0.193151
-0.142349 0.069006 -0.193744
-0.128544 0.256096 -0.194567
-0.064550 0.111140 0.203063
-0.174111 0.103927 -0.192321
-0.070087 0.191454 -0.197186
-0.098416 0.298112 0.204429
-0.095159 0.109486 0.204470
-0.125629 0.051715 0.205927
-0.082731 0.060632 -0.196473
-0.081309 -0.020729 -0.196456
-0.145689 -0.071717 -0.193449
-0.111720 0.241533 -0.195324
-0.032055 0.087947 -0.198828
-0.164269 0.158032 0.207594
-0.111055 0.164390 -0.195277
-0.154545 0.240480 0.207065
-0.137191 0.128729 -0.194041
-0.126684 0.067033 0.205960
-0.105380 -0.021096 -0.195351
-0.063803 0.135899 0.203004
-0.144473 -0.070495 -0.193506
-0.102458 0.089221 0.204826
-0.118592 0.294638 -0.195062
-0.151770 0.121496 0.207057
-0.058352 0.267641 0.202620
-0.065214 0.165753 0.203038
-0.073341 0.010002 -0.196853
-0.121013 0.174994 0.205591
-0.054217 0.213350 -0.197936
-0.140172 0.201023 -0.193977
-0.073324 0.187119 -0.197033
-0.077432 0.269929 -0.196928
-0.155954 0.245786 0.207124
-0.147334 -0.030364 -0.193415
-0.039454 0.252088 0.201768
-0.143645 -0.000965 -0.193614
-0.057134 0.035951 -0.197624
-0.123884 0.254768 0.205642
-0.183784 0.179858 -0.191953
-0.158432 0.146996 -0.193084
-0.167814 0.220438 -0.192727
-0.097726 -0.057043 -0.195666
-0.140040 0.121025 -0.193902
-0.064692 0.225458 0.202954
-0.043770 0.163242 0.202056
-0.114109 0.148441 0.205301
-0.143867 0.087062 -0.193693
-0.133520 0.065291 0.206276
-0.046348 0.119972 0.202218
-0.087532 0.060043 -0.196252
-0.104193 0.218603 0.204775
-0.046562 0.337977 0.202008
-0.079126 0.315773 0.203526
-0.069584 0.154702 0.203250
-0.090165 0.287271 0.204061
-0.089834 0.091863 -0.196178
-0.120289 0.241256 -0.194931
-0.114290 0.151061 0.205307
-0.060846 0.283904 -0.197703
-0.108696 0.049894 0.205152
-0.148106 0.099238 0.206912
-0.091265 0.179996 0.204220
