ply
format ascii 1.0
element vertex 678
property float x
property float y
property float z
end_header
0.110166 0.087457 -0.173942
0.493064 0.143327 -0.120700
0.499564 0.134887 -0.181055
0.487868 0.163447 0.074732
0.521424 0.159841 0.099465
0.306805 0.077108 -0.068817
0.550713 0.125070 -0.050335
0.451113 0.235705 -0.010461
0.543742 0.166108 -0.122588
0.058923 0.015391 -0.147867
0.412369 0.079819 -0.108180
0.388299 0.201274 -0.083198
0.535664 0.201643 -0.195313
0.511240 0.154204 0.029016
0.272776 0.071589 -0.143312
0.419796 0.101228 0.068514
0.395297 0.180537 0.027501
0.484389 0.193510 0.023051
0.559608 0.190237 -0.185930
0.290030 0.106257 -0.086514
0.389632 0.171662 0.024176
0.397782 0.108952 0.066867
0.524168 0.151737 0.127143
0.439507 0.164879 -0.162554
0.121881 0.096112 -0.152213
0.359487 0.103182 -0.019207
0.116748 0.037640 -0.026807
0.335255 0.083372 0.060869
0.137781 0.128198 -0.165487
0.498237 0.137242 -0.032246
0.557708 0.159555 -0.181731
0.050809 0.036630 -0.141960
0.548501 0.250252 -0.129813
0.398551 0.106105 -0.060121
-0.029181 0.026353 -0.190834
0.561891 0.113475 0.184884
0.522522 0.113469 -0.003950
0.505472 0.105941 -0.091884
0.542727 0.172417 0.009915
0.410210 0.126098 0.022843
0.559891 0.117887 -0.086036
0.251431 0.071166 -0.072415
0.411017 0.103661 0.007168
0.456535 0.171288 -0.132674
0.353276 0.113940 0.008621
0.490303 0.229559 -0.071863
0.233342 0.145912 -0.049559
0.562893 0.207976 -0.160397
0.493480 0.153983 -0.126808
0.563610 0.190747 -0.118337
0.492459 0.161541 0.123164
0.297362 0.198402 -0.149205
0.383066 0.197971 -0.039519
0.438762 0.234775 -0.077930
0.310123 0.082639 0.066027
0.563158 0.213518 0.023918
0.173744 0.091998 -0.143200
0.348030 0.091441 0.039401
0.409137 0.139337 0.123022
0.431530 0.167579 0.043831
0.448272 0.171618 0.042713
0.363902 0.169449 -0.156583
0.529267 0.234260 0.039629
0.328011 0.106043 -0.140530
0.532836 0.200145 0.131599
0.383663 0.155742 -0.074575
0.356243 0.172261 -0.084809
0.492399 0.172984 -0.189987
0.239244 0.164533 -0.177589
0.364372 0.113786 -0.041450
0.493187 0.215992 -0.125682
0.440021 0.223479 -0.103652
0.242753 0.126843 -0.179376
0.568420 0.219674 0.135256
0.483413 0.169304 0.138957
0.507067 0.206827 0.113503
0.455493 0.161995 0.144477
0.240598 0.053978 -0.045320
0.170244 0.094363 -0.143425
0.516835 0.172700 -0.051396
0.277215 0.139547 -0.052408
0.443375 0.086311 -0.067864
0.300736 0.166776 -0.117858
0.527133 0.225006 -0.145344
0.466984 0.179079 -0.160431
0.213053 0.155845 -0.144059
0.569991 0.126585 0.185077
0.261661 0.058763 0.036732
0.422397 0.153753 -0.160627
0.381049 0.195959 0.030411
0.427577 0.122437 -0.012360
0.419973 0.106300 -0.001967
0.222592 0.140958 -0.163978
0.452631 0.110866 0.110978
0.309919 0.066491 0.069312
0.536227 0.211442 0.106795
0.236437 0.095318 -0.090993
0.524847 0.123124 0.022625
0.100474 0.104549 -0.152031
0.461390 0.129273 0.141549
0.556186 0.254636 0.056811
0.286499 0.191231 -0.080610
0.476285 0.189021 -0.021488
0.565609 0.145737 0.153269
0.080784 0.050437 -0.157095
0.379463 0.105783 -0.162730
0.222737 0.049040 -0.103076
0.433838 0.085870 -0.141673
0.261154 0.093262 -0.196999
0.415729 0.144251 -0.103273
0.403163 0.150218 0.110151
0.347486 0.072603 -0.118377
0.568314 0.151923 0.099692
0.451968 0.106575 -0.121553
-0.046614 0.004999 -0.183128
0.397188 0.144382 0.030239
0.558856 0.190063 0.061436
0.266985 0.191845 -0.139412
0.112435 0.021378 -0.088484
0.562009 0.201437 -0.076328
0.329354 0.147221 -0.111790
0.460840 0.099093 -0.071965
0.355152 0.099089 -0.184552
0.483792 0.230583 0.028067
0.533314 0.243675 0.061078
0.486090 0.215636 0.006801
0.451181 0.198828 0.009688
0.281351 0.176011 -0.152478
0.381447 0.104667 -0.170083
0.083350 0.117963 -0.177176
0.519465 0.205757 -0.129074
0.579491 0.147612 0.144240
0.337411 0.089364 0.057312
0.130646 0.117303 -0.195028
0.039791 0.033328 -0.116179
0.376887 0.122127 -0.041819
0.106008 0.045190 -0.167617
0.408429 0.193301 -0.138253
0.249013 0.126986 -0.126694
0.501822 0.214460 -0.000954
0.359186 0.138678 0.060842
0.346530 0.124695 -0.175652
0.531112 0.157097 -0.063051
0.494750 0.115978 0.108797
0.444331 0.126129 0.142098
0.376890 0.068150 0.141059
0.513426 0.196257 -0.156327
0.380936 0.111747 -0.039459
0.514100 0.126929 -0.127577
0.511604 0.118035 -0.063075
0.167247 0.037241 -0.189625
0.382028 0.154906 -0.087507
0.482506 0.108020 0.186579
0.476084 0.150342 0.148162
0.461979 0.158289 -0.152915
0.526334 0.176116 -0.083079
0.328032 0.081701 0.100904
0.548904 0.130597 0.118973
0.151840 0.127644 -0.184453
0.529038 0.109250 -0.049537
0.208369 0.144964 -0.155359
0.269430 0.170847 -0.179277
0.569711 0.190054 -0.186397
0.383271 0.084979 -0.103914
0.409614 0.153113 -0.079094
0.480999 0.209095 -0.039553
0.300135 0.143233 -0.144182
0.448119 0.168626 0.031407
0.479426 0.134515 -0.041666
0.500089 0.214972 -0.144526
0.524210 0.139036 -0.052363
0.186078 0.098554 -0.118496
0.433675 0.204610 -0.084617
0.308152 0.133651 -0.068794
0.376905 0.092443 0.062416
0.463422 0.147485 -0.078841
0.443260 0.095178 -0.102280
0.541542 0.105373 -0.069613
0.495333 0.167254 0.151267
0.456891 0.086446 0.127021
0.380025 0.075130 0.062150
0.300702 0.089180 -0.025923
0.080835 0.058468 -0.185296
0.432015 0.182277 -0.182090
0.249563 0.162986 -0.100501
0.351385 0.073544 -0.172867
0.392427 0.161282 0.007764
0.572976 0.155472 -0.073335
0.365106 0.098634 -0.154319
0.278742 0.106033 -0.045287
0.497859 0.123451 0.080656
0.383501 0.174755 -0.197975
0.451720 0.164030 -0.065315
0.127692 0.064015 -0.095386
0.280952 0.103061 -0.179670
0.391255 0.216527 -0.138285
0.273194 0.102478 -0.195410
0.196331 0.071192 -0.186859
0.505766 0.224020 -0.101572
0.423456 0.186598 0.037559
0.560928 0.176497 0.141470
0.433011 0.133607 -0.196807
0.373594 0.088127 0.048666
0.217559 0.069785 -0.097633
0.549493 0.143891 -0.111908
0.407342 0.176841 -0.186653
0.559726 0.211831 -0.131980
0.362860 0.067696 -0.072218
0.256773 0.198994 -0.141292
0.085408 0.035802 -0.090434
0.322218 0.124662 -0.191676
0.255711 0.094099 0.022241
0.396161 0.084481 -0.040488
0.346884 0.086656 0.027739
0.432939 0.096636 0.104528
0.202772 0.052837 -0.031720
0.153979 0.174794 -0.194071
0.492717 0.099534 0.119692
0.515175 0.146128 0.157360
0.378031 0.205557 -0.138782
0.346579 0.103099 -0.119160
0.288181 0.118448 -0.114166
0.508034 0.124595 -0.158654
0.550739 0.242490 -0.047217
0.392121 0.163446 0.089062
0.313738 0.086688 0.033299
0.575318 0.175653 -0.034626
0.265494 0.089978 -0.146731
0.219590 0.089757 -0.101821
0.112897 0.029252 -0.118848
0.481207 0.188833 0.010400
0.205717 0.070328 -0.095582
0.529159 0.145783 -0.005883
0.564586 0.116728 0.185210
0.280704 0.058760 0.061745
0.345063 0.194622 -0.097659
0.275459 0.070828 -0.081319
0.165803 0.093009 -0.170617
0.324916 0.136939 -0.160097
0.308456 0.095928 0.034619
0.370656 0.075051 -0.037095
0.516587 0.108446 -0.115919
0.503937 0.114678 0.151188
0.056952 0.021595 -0.147113
0.503737 0.188231 -0.132936
0.548747 0.208653 -0.186186
0.125552 0.097841 -0.151820
0.562077 0.171685 -0.069709
0.552443 0.143142 -0.012441
0.500559 0.136234 0.128756
0.566571 0.214020 -0.010650
0.546813 0.131016 -0.061948
0.476702 0.210680 -0.061370
0.418023 0.080860 -0.198006
0.242781 0.066154 -0.086947
0.564790 0.240564 -0.173232
0.193310 0.104145 -0.138323
0.446111 0.104872 0.181240
0.194392 0.050293 -0.062369
0.559524 0.181620 0.158708
0.345138 0.102321 -0.052447
0.526163 0.172020 0.097019
0.425387 0.174552 -0.037305
0.319897 0.094000 0.088855
0.470272 0.180455 0.164380
0.478710 0.144250 -0.148256
0.346478 0.089712 -0.162338
0.536938 0.193531 0.068712
0.170732 0.073035 -0.147667
0.500251 0.137330 -0.143104
0.362868 0.143584 0.071103
0.233911 0.120720 -0.118107
0.367142 0.136541 0.045280
0.539467 0.241278 0.054782
0.378313 0.126873 -0.101146
0.288380 0.095111 -0.016531
0.441073 0.180753 0.059419
0.286329 0.179253 -0.083071
0.227758 0.076773 -0.096170
0.241375 0.073412 -0.035288
0.518924 0.151494 -0.110935
0.284269 0.062648 -0.064791
0.402267 0.195992 -0.042498
0.335816 0.098225 -0.137429
0.565490 0.141531 0.193901
0.236092 0.084777 -0.171392
0.496125 0.118555 -0.153906
0.288429 0.086514 -0.029747
0.560756 0.104629 0.022297
0.492603 0.098038 0.062349
0.167066 0.077327 -0.161324
0.446499 0.109331 0.129725
0.523784 0.224553 0.153437
0.352157 0.178958 -0.160242
0.253762 0.103617 -0.137735
0.418261 0.171479 0.014950
0.474213 0.121809 -0.171665
0.117742 0.096495 -0.199214
0.326994 0.086781 -0.131874
0.307355 0.061850 -0.140459
0.483424 0.152208 -0.161438
0.435959 0.115773 -0.040971
0.475916 0.168837 0.096630
0.407849 0.106555 -0.095870
0.526442 0.214867 0.102709
0.507609 0.240921 0.102438
0.516519 0.237287 -0.163766
0.290365 0.150611 -0.128384
0.148852 0.124659 -0.129119
0.515271 0.101131 0.062743
0.150727 0.059893 -0.122578
0.219313 0.061431 -0.095293
0.495380 0.247584 -0.030695
0.460681 0.152384 0.132066
0.238686 0.168423 -0.090649
0.299665 0.100851 0.009698
0.389626 0.155973 -0.072798
0.575857 0.155940 0.159451
0.359784 0.210772 -0.129762
0.239333 0.101697 -0.008741
0.481041 0.144608 -0.128118
0.563719 0.131331 0.145643
0.531777 0.187655 -0.070158
0.251989 0.057853 -0.177213
0.214293 0.099176 -0.093311
0.562290 0.171065 -0.158392
0.181502 0.152776 -0.156131
0.238467 0.102053 -0.153048
0.561257 0.160789 0.049464
0.413551 0.181697 0.103154
0.499700 0.182126 -0.180728
0.263263 0.075639 -0.131096
0.420879 0.122935 0.192691
0.171947 0.047717 -0.148285
0.495164 0.169488 0.037281
0.291324 0.148879 -0.055435
0.490028 0.139197 -0.035109
0.479638 0.154853 -0.025929
0.489251 0.175953 0.172271
0.336356 0.098010 0.022747
0.278881 0.126738 -0.047573
0.352584 0.149099 0.026279
0.150246 0.164032 -0.178076
0.527152 0.144645 0.026580
0.441926 0.234724 0.000263
0.490925 0.113569 -0.196484
0.335373 0.175696 0.027310
0.443303 0.107336 -0.090646
0.534998 0.213280 0.111750
0.296323 0.134705 -0.050955
0.506559 0.237553 -0.031127
0.524410 0.193779 0.119594
0.163013 0.053950 -0.085739
0.350285 0.215309 -0.188958
0.149732 0.039445 -0.113847
0.536803 0.174863 -0.166063
0.518248 0.117584 -0.026176
0.585733 0.125160 0.198965
0.126949 0.084201 -0.175521
0.274566 0.081376 0.014770
0.348316 0.105173 -0.074703
0.391384 0.171447 -0.084217
0.405417 0.110658 -0.161126
0.510252 0.168173 0.133579
0.439231 0.151225 0.018775
0.362746 0.159730 -0.005557
0.201051 0.047465 -0.042850
0.339530 0.115190 -0.163043
0.453760 0.134912 0.121576
0.483470 0.126328 -0.023500
0.532498 0.118458 -0.047253
0.414483 0.173227 0.017605
0.477968 0.201797 -0.125239
0.516637 0.140192 -0.107066
0.227451 0.081628 -0.124114
0.548908 0.161194 -0.155461
0.273653 0.105512 0.008720
0.492300 0.153686 0.004760
0.376290 0.172026 -0.171932
0.478608 0.100267 -0.107558
0.441229 0.107073 0.056257
0.364389 0.093669 -0.178646
0.166340 0.148361 -0.175004
0.405085 0.119098 0.066205
0.415747 0.130351 0.069997
0.425863 0.192217 -0.014610
0.481818 0.193554 -0.112189
0.372434 0.106165 0.099166
0.553052 0.204191 0.052515
0.199103 0.104245 -0.056169
0.371451 0.114072 -0.089517
0.222890 0.061517 -0.076026
0.560893 0.206148 -0.170222
0.313979 0.162573 -0.006361
0.508243 0.136622 0.114333
0.321078 0.186923 -0.019409
0.321929 0.168796 -0.102472
0.290185 0.088668 -0.012139
0.323851 0.180157 -0.041902
0.138220 0.043578 -0.103212
0.525349 0.237281 -0.089020
0.473209 0.139251 0.000566
0.490230 0.197268 0.058844
0.197909 0.094759 -0.166819
0.285812 0.080726 -0.192851
0.410550 0.127450 0.022099
0.360676 0.137135 -0.108751
0.407701 0.129418 0.150402
0.170080 0.037454 -0.092314
0.531671 0.154775 -0.120368
0.231881 0.114595 -0.175966
0.556634 0.205024 0.181514
0.543070 0.172057 -0.037203
0.298802 0.068136 0.073338
0.307794 0.087411 -0.093222
0.412033 0.200963 -0.142465
0.382291 0.158992 -0.026716
0.333606 0.144486 -0.113614
0.439077 0.190376 -0.115278
0.451848 0.101010 0.125187
0.582995 0.132588 -0.122897
0.411999 0.094808 -0.034867
0.411200 0.174164 -0.006822
0.348934 0.086920 -0.034295
0.489184 0.160882 0.170845
0.005821 -0.003206 -0.160888
0.467622 0.139600 -0.011323
0.533624 0.236523 -0.123980
0.342154 0.206737 -0.013061
0.400842 0.210840 -0.082698
0.299351 0.109860 -0.092625
0.351292 0.210809 -0.108685
0.289196 0.055310 -0.039583
0.309197 0.082895 -0.134345
0.245171 0.141672 -0.114643
0.308006 0.177548 -0.178552
0.355873 0.081652 -0.076720
0.347073 0.139228 0.105150
0.430916 0.106008 0.092541
0.446807 0.109995 -0.022277
0.528559 0.117302 0.152085
0.505508 0.141650 -0.151402
0.120679 0.105877 -0.100690
0.451186 0.133061 0.095940
0.546346 0.108075 0.090145
0.379035 0.161494 0.056595
0.428114 0.225427 -0.160842
0.546069 0.116903 -0.045445
0.371566 0.116260 -0.064138
0.368683 0.088890 0.085779
0.295559 0.091881 -0.177029
0.398965 0.210149 -0.039901
0.423176 0.212423 0.014095
0.470370 0.151125 -0.106269
0.451092 0.135806 -0.187789
0.326926 0.149032 -0.059013
0.427567 0.181571 0.032913
0.265630 0.132179 -0.066149
0.516159 0.193532 -0.168701
0.124623 0.086399 -0.146430
0.440107 0.150019 -0.130742
0.199919 0.134751 -0.137713
0.268136 0.096722 -0.168047
0.421720 0.142353 0.107321
0.299149 0.087652 -0.076055
0.568788 0.172601 -0.111657
0.374077 0.169220 -0.080668
0.336392 0.171123 -0.082804
0.511468 0.102258 0.023038
0.391921 0.196253 -0.144510
0.527951 0.193183 -0.168676
0.234347 0.114850 -0.035523
0.298941 0.080577 -0.164465
0.490219 0.226452 -0.109300
0.468030 0.153041 -0.022179
0.554797 0.133259 0.019840
0.345024 0.085733 0.000634
0.405620 0.157032 0.012800
0.236357 0.153753 -0.170247
0.419116 0.214313 -0.005786
0.281278 0.137135 -0.126614
0.483086 0.206816 0.109365
0.551671 0.237680 -0.185233
0.341318 0.067448 0.051537
0.504038 0.176645 -0.106138
0.541476 0.113309 0.163739
0.238396 0.061218 -0.109754
0.279659 0.188542 -0.098603
0.544097 0.106625 -0.093452
0.492695 0.155690 0.145481
0.177837 0.134080 -0.148279
0.143950 0.077238 -0.123961
0.343098 0.111475 -0.020437
0.193347 0.179734 -0.172990
0.391302 0.134905 -0.176801
0.132959 0.124317 -0.190599
0.132242 0.083237 -0.128003
0.341095 0.100981 0.040778
0.170427 0.167261 -0.139359
0.460799 0.130458 -0.198664
0.380902 0.076833 -0.199013
0.311881 0.184265 -0.198734
0.464816 0.217023 -0.198330
0.370848 0.126139 -0.198846
0.057326 0.011894 -0.199852
0.498564 0.239803 -0.198182
0.328265 0.137258 -0.198882
0.445703 0.217372 -0.198364
0.587377 0.124742 -0.198454
0.294543 0.184302 -0.198766
0.039648 0.034204 -0.199800
0.005696 0.071654 -0.199721
0.522030 0.208804 -0.198256
0.090135 0.101675 -0.199453
0.301808 0.117912 -0.199003
0.437095 0.130022 -0.198709
0.577649 0.129615 -0.198453
0.114026 0.041471 -0.199636
0.380547 0.137577 -0.198785
0.159827 0.112438 -0.199284
0.250462 0.059890 -0.199316
0.536538 0.109169 -0.198606
0.021750 0.135945 -0.199449
0.270749 0.063817 -0.199264
0.347551 0.147308 -0.198808
0.154885 0.172256 -0.199067
-0.026284 0.026093 -0.199951
0.080745 0.043419 -0.199690
0.363276 0.109247 -0.198923
0.461542 0.198895 -0.198405
0.475128 0.179079 -0.198454
0.311849 0.089609 -0.199092
0.509313 0.196396 -0.198326
0.564631 0.245517 -0.198040
0.001818 0.007777 -0.199969
0.169584 0.150345 -0.199123
0.540822 0.142211 -0.198473
0.209425 0.175583 -0.198955
0.238005 0.141040 -0.199033
0.197675 0.070929 -0.199372
0.519569 0.235535 -0.198160
0.519005 0.136545 0.201469
0.161108 0.109011 -0.199295
0.560045 0.110625 0.201446
0.434686 0.185112 -0.198506
0.190971 0.174875 -0.198991
0.480501 0.170999 -0.198475
0.458501 0.118518 -0.198714
0.487174 0.094989 0.201254
0.148856 0.080045 -0.199427
0.565198 0.116026 0.201476
0.451393 0.216289 -0.198357
0.057091 0.052415 -0.199699
0.581870 0.134441 0.201576
0.472160 0.120669 0.201323
0.353253 0.208674 -0.198566
0.453961 0.102168 0.201220
0.226014 0.122911 -0.199123
0.107853 0.078050 -0.199509
0.585311 0.119260 0.201525
0.077271 0.070983 -0.199592
0.442453 0.228630 -0.198327
0.567520 0.132466 0.201542
0.324529 0.085800 -0.199083
0.465725 0.095554 0.201216
0.305735 0.118874 -0.198992
0.282098 0.075271 -0.199200
0.177947 0.145935 -0.199125
0.359003 0.099326 -0.198968
0.245858 0.163226 -0.198935
0.390756 0.161358 -0.198676
0.502120 0.238447 -0.198181
0.468039 0.117719 0.201304
0.389485 0.127821 -0.198805
0.234100 0.069011 -0.199312
0.429339 0.230864 -0.198343
0.473065 0.180896 -0.198451
0.227721 0.120812 -0.199128
0.226423 0.059731 -0.199361
0.229495 0.082311 -0.199270
0.356647 0.181682 -0.198662
0.297395 0.120409 -0.199002
0.327473 0.165587 -0.198776
0.318495 0.103439 -0.199027
0.568123 0.166990 0.201674
0.175896 0.067479 -0.199424
0.500516 0.166373 -0.198456
0.301276 0.163386 -0.198832
0.146242 0.084999 -0.199413
0.555370 0.242522 -0.198068
0.512047 0.101094 0.201322
-0.043088 0.023775 -0.199991
0.545224 0.168068 0.201636
0.585221 0.117164 -0.198486
0.185365 0.118889 -0.199213
0.387672 0.217445 -0.198470
0.388651 0.107035 -0.198885
0.080439 0.120497 -0.199399
0.386679 0.090683 -0.198950
0.305063 0.193247 -0.198713
0.387253 0.091707 -0.198945
0.292641 0.192862 -0.198737
0.403755 0.214753 -0.198451
0.405358 0.162027 -0.198647
0.363823 0.166678 -0.198705
0.370195 0.087375 -0.198993
0.476034 0.138624 -0.198606
0.087191 0.076116 -0.199555
0.154596 0.118946 -0.199269
0.391938 0.182040 -0.198596
0.516104 0.122987 0.201412
0.133289 0.168294 -0.199122
0.539056 0.237209 -0.198118
0.207030 0.143888 -0.199079
0.525059 0.143756 0.201507
0.214886 0.054965 -0.199400
0.206014 0.160339 -0.199019
0.000334 0.004589 -0.199984
0.138033 0.143340 -0.199207
0.319590 0.127495 -0.198934
0.521304 0.114959 0.201392
0.102508 0.033994 -0.199685
0.058591 0.041995 -0.199736
0.538767 0.201520 0.201750
0.149442 0.169343 -0.199088
0.557328 0.206030 -0.198202
0.538635 0.171171 -0.198368
0.227411 0.047682 -0.199405
0.114632 0.065617 -0.199544
0.277106 0.095992 -0.199131
0.443407 0.087645 -0.198858
0.102733 0.104221 -0.199420
0.049998 0.041767 -0.199752
0.084860 0.078476 -0.199550
0.330005 0.143640 -0.198854
0.284566 0.055541 -0.199270
0.132935 0.028668 -0.199650
0.271782 0.156168 -0.198914
0.038817 0.068197 -0.199673
0.539738 0.187008 -0.198306
0.525360 0.115003 0.201399
0.222484 0.157167 -0.199000
0.483614 0.098135 -0.198745
0.537722 0.119712 -0.198564
0.145919 0.029477 -0.199623
0.515716 0.145001 0.201495
0.164970 0.180674 -0.199017
0.527002 0.152751 -0.198459
0.450425 0.206921 -0.198395
0.561944 0.128031 0.201516
0.435180 0.186612 -0.198499
0.170617 0.079538 -0.199389
0.082978 0.054122 -0.199645
0.396164 0.139193 -0.198750
0.118664 0.168332 -0.199149
0.140830 0.051314 -0.199550
0.206963 0.121489 -0.199164
0.091366 0.147527 -0.199277
0.506629 0.118090 -0.198627
0.459271 0.185029 -0.198461
0.431991 0.215601 -0.198396
0.188487 0.154391 -0.199073
0.508201 0.158289 0.201531
0.217335 0.087512 -0.199273
0.220548 0.193300 -0.198868
0.006285 0.035825 -0.199855
0.390389 0.188435 -0.198575
0.453715 0.183434 -0.198477
0.521612 0.204262 -0.198274
0.470650 0.117055 -0.198697
0.450686 0.177852 -0.198504
0.497522 0.123538 0.201380
0.538868 0.206546 -0.198234
0.515796 0.143216 0.201488
0.184755 0.098465 -0.199291
0.397456 0.208011 -0.198488
0.509560 0.176174 -0.198402
0.532229 0.102380 0.201364
