ply
format ascii 1.0
element vertex 534
property float x
property float y
property float z
property float nx
property float ny
property float nz
end_header
-0.605297 -0.914857 0.264802 0.181571 -0.538811 -0.822627
-0.586986 -0.871126 0.307253 -0.079935 -0.269442 -0.959693
-0.631604 -0.805378 0.283704 -0.079935 -0.269442 -0.959693
-0.584101 -0.802972 0.206484 0.211439 -0.974936 -0.069236
-0.589673 -0.789798 0.328273 -0.079935 -0.269442 -0.959693
-0.535764 -0.783815 0.386629 0.020838 -0.019999 -0.999583
-0.593945 -0.716357 0.318107 0.278011 -0.349790 -0.894627
-0.457935 -0.725224 0.191652 -0.392064 0.874139 0.286648
-0.542783 -0.711283 0.373533 0.258566 -0.140516 -0.955719
-0.439970 -0.735246 0.487477 0.270476 0.001044 -0.962726
-0.628466 -0.681805 0.277863 0.365046 -0.588760 -0.721181
-0.537947 -0.683159 0.205503 -0.396083 0.905489 0.152345
-0.583141 -0.691935 0.328060 0.195222 0.166870 -0.966459
-0.495969 -0.697411 0.233116 -0.465838 0.866773 0.178044
-0.567519 -0.674086 0.343762 0.195222 0.166870 -0.966459
-0.414595 -0.626618 0.147030 0.168989 -0.984025 -0.056011
-0.536178 -0.621898 0.326807 0.005991 0.362547 -0.931946
-0.501887 -0.626683 0.271569 -0.405530 0.801055 0.440292
-0.540708 -0.625690 0.369379 0.066104 0.132339 -0.988998
-0.466426 -0.608617 0.449124 0.154265 0.018921 -0.987848
-0.433893 -0.605090 0.411124 -0.793614 -0.065624 0.604872
-0.597717 -0.577408 0.303574 -0.011069 0.011663 -0.999871
-0.528488 -0.570841 0.273115 -0.563521 0.618138 -0.548041
-0.531762 -0.556632 0.373958 -0.016142 0.145300 -0.989256
-0.495264 -0.591005 0.416350 -0.063690 -0.028365 -0.997567
-0.475821 -0.552354 0.350565 -0.743167 -0.640046 0.195047
-0.413678 -0.572663 0.347845 -0.616648 -0.772317 0.152553
-0.426381 -0.578960 0.490580 0.237661 -0.502484 -0.831281
-0.587107 -0.550420 0.313124 -0.102749 0.086842 -0.990909
-0.472662 -0.564106 0.172691 -0.493885 0.788593 0.366332
-0.434560 -0.570001 0.114567 0.307069 -0.938622 -0.157153
-0.309166 -0.563792 0.047929 0.172098 -0.984908 -0.018420
-0.382930 -0.526833 0.191007 0.159965 -0.241870 -0.957032
-0.550832 -0.544171 0.352225 -0.094156 0.260584 -0.960849
-0.484263 -0.515734 0.343873 -0.104425 0.953170 -0.283836
-0.433061 -0.523563 0.304491 -0.302267 -0.815143 -0.494143
-0.407975 -0.509343 0.270091 -0.413702 -0.725698 -0.549740
-0.504229 -0.531038 0.401389 -0.021563 -0.159444 -0.986971
-0.427853 -0.527024 0.329585 -0.591002 0.764964 0.256022
-0.328544 -0.533241 0.268761 -0.355598 0.458675 0.814351
-0.466943 -0.498714 0.426184 -0.140811 0.052912 -0.988622
-0.397459 -0.482041 0.514863 0.170040 -0.391265 -0.904433
-0.606897 -0.482339 0.286434 0.184056 -0.582007 -0.792080
-0.451321 -0.481113 0.173622 -0.017441 -0.719617 -0.694152
-0.573780 -0.489151 0.323068 -0.111862 0.068621 -0.991352
-0.435096 -0.473807 0.219794 -0.549482 -0.746571 -0.375101
-0.426998 -0.506873 0.167031 0.126930 -0.599521 -0.790230
-0.531018 -0.465563 0.367944 -0.002802 0.092273 -0.995730
-0.411000 -0.485110 0.251656 -0.596620 -0.532951 -0.600007
-0.435318 -0.450879 0.422513 -0.730944 -0.220715 0.645760
-0.402526 -0.483898 0.398202 -0.762576 0.643898 0.062227
-0.348741 -0.464054 0.335600 -0.284055 0.393390 0.874389
-0.435243 -0.476625 0.473241 -0.196999 -0.064584 -0.978274
-0.380630 -0.435508 0.513297 -0.382554 0.592763 0.708720
-0.580087 -0.434671 0.279393 0.205344 -0.923994 0.322596
-0.420119 -0.438841 0.133650 0.004707 -0.995557 -0.094048
-0.496779 -0.426595 0.233633 -0.920909 0.118087 -0.371458
-0.384208 -0.451816 0.152297 0.269555 -0.803316 -0.531059
-0.551399 -0.408329 0.341419 -0.111860 0.067843 -0.991405
-0.473568 -0.429952 0.302495 -0.057263 -0.998066 -0.024210
-0.457779 -0.424190 0.274265 -0.643852 0.643024 -0.414699
-0.488134 -0.432583 0.412248 -0.084975 -0.056741 -0.994766
-0.465272 -0.428549 0.342240 -0.947225 -0.272854 0.168270
-0.422220 -0.414147 0.297838 -0.761326 0.240987 -0.601920
-0.482910 -0.434719 0.418105 -0.338464 -0.108423 -0.934712
-0.426445 -0.405437 0.477501 -0.058998 -0.046556 -0.997172
-0.389617 -0.415612 0.438937 -0.740547 0.524323 0.420328
-0.367780 -0.395976 0.373138 -0.489367 0.261934 0.831812
-0.303011 -0.406562 0.415563 -0.385236 0.687610 0.615456
-0.380584 -0.409472 0.527827 0.167106 -0.669919 -0.723384
-0.353124 -0.385688 0.104402 0.361343 -0.931872 -0.032351
-0.526389 -0.363737 0.324134 -0.009316 0.753560 -0.657313
-0.505292 -0.382440 0.389771 0.085973 -0.212000 -0.973481
-0.458276 -0.357604 0.332256 -0.303146 0.928267 -0.215460
-0.397155 -0.368930 0.305991 -0.710536 0.029899 0.703025
-0.372546 -0.388197 0.268850 0.278989 -0.321546 -0.904861
-0.262420 -0.364946 0.182060 -0.943224 0.320500 -0.087230
-0.474614 -0.376939 0.422823 -0.149970 -0.257836 -0.954479
-0.352890 -0.383216 0.414544 -0.482332 0.755382 0.443569
-0.350703 -0.348146 0.353513 0.159786 -0.150323 -0.975639
-0.390734 -0.353160 0.512534 0.090074 -0.653676 -0.751395
-0.340894 -0.349716 0.481061 -0.285074 0.896992 0.337844
-0.572361 -0.324661 0.312281 0.101039 -0.014580 -0.994776
-0.423497 -0.318880 0.156886 -0.527166 0.807536 0.264539
-0.360397 -0.318912 0.136763 -0.450430 0.809411 0.376784
-0.325689 -0.373641 0.069129 0.368436 -0.914065 -0.169529
-0.299465 -0.369939 0.060868 0.196522 -0.911390 0.361589
-0.383191 -0.326690 0.183732 -0.527166 0.807536 0.264539
-0.523555 -0.312629 0.364618 0.152193 0.316231 -0.936395
-0.360279 -0.317678 0.222106 -0.381946 0.335280 0.861223
-0.471893 -0.328654 0.422172 0.313438 -0.111767 -0.943008
-0.438214 -0.323952 0.458555 0.312358 -0.084984 -0.946155
-0.385858 -0.293916 0.397838 -0.962220 -0.153824 -0.224658
-0.390685 -0.312212 0.509519 0.158674 0.137277 -0.977741
-0.330298 -0.314121 0.394467 -0.113869 -0.822241 -0.557633
-0.364655 -0.284015 0.535798 0.200430 0.220237 -0.954633
-0.565829 -0.298182 0.317422 0.029864 0.282004 -0.958948
-0.417136 -0.281052 0.183233 0.078251 -0.978853 -0.189006
-0.322286 -0.284596 0.074622 0.121727 -0.975608 -0.182677
-0.552297 -0.279321 0.330769 -0.025852 0.329397 -0.943838
-0.482949 -0.274710 0.314299 0.231072 0.701879 -0.673774
-0.409520 -0.299551 0.240421 -0.893629 -0.166314 -0.416854
-0.370916 -0.302870 0.190665 -0.886182 0.207289 0.414382
-0.372542 -0.272806 0.156213 -0.550426 0.364039 0.751337
-0.276752 -0.279999 0.091143 0.161723 -0.552138 0.817918
-0.427090 -0.267914 0.314520 -0.879164 -0.468643 -0.086284
-0.335145 -0.280457 0.211232 -0.411226 0.497305 0.763925
-0.190678 -0.281611 0.098039 -0.860819 -0.201356 0.467383
-0.433453 -0.250551 0.393342 -0.854896 -0.343684 -0.388632
-0.445564 -0.277455 0.370697 0.457565 -0.128186 -0.879888
-0.341488 -0.277948 0.293746 -0.726008 0.178804 0.664035
-0.214676 -0.287073 0.160632 -0.559072 0.590686 -0.581831
-0.444200 -0.256041 0.446934 0.455409 -0.265750 -0.849694
-0.377791 -0.260195 0.425003 0.017286 -0.549401 -0.835380
-0.305075 -0.249153 0.320222 -0.388815 0.477151 0.788130
-0.191153 -0.281455 0.232488 -0.149993 0.733905 0.662485
-0.373873 -0.250824 0.452912 -0.084767 -0.670952 -0.736639
-0.225234 -0.260627 0.329424 -0.799735 0.557727 0.222181
-0.566911 -0.244997 0.312252 0.023149 0.503437 -0.863722
-0.533751 -0.244415 0.275551 0.347714 -0.924511 0.156124
-0.181588 -0.245880 -0.044923 -0.326478 0.756990 0.566020
-0.432032 -0.220827 0.233105 -0.150165 -0.868041 -0.473239
-0.341672 -0.254222 0.140734 -0.029353 -0.989193 -0.143650
-0.513751 -0.214804 0.360822 -0.043970 0.434938 -0.899386
-0.461426 -0.201777 0.321630 -0.390069 -0.828275 -0.402253
-0.436365 -0.211288 0.279360 -0.510914 -0.614569 -0.601059
-0.152125 -0.250278 0.035686 -0.151321 0.896614 0.416155
-0.347082 -0.242351 0.313431 -0.596938 -0.237051 0.766467
-0.240837 -0.211067 0.227692 -0.467978 -0.712956 -0.522198
-0.411270 -0.234166 0.481214 0.015600 -0.400261 -0.916269
-0.250186 -0.236621 0.332859 -0.784353 0.609417 -0.115767
-0.271883 -0.188026 0.434195 -0.328287 0.944575 -0.002466
-0.562122 -0.199341 0.314054 0.334101 0.129020 -0.933665
-0.343812 -0.184162 0.108125 0.398150 -0.917320 0.000431
-0.313688 -0.177476 0.057380 0.444234 -0.825142 0.348993
-0.141618 -0.206463 -0.086563 -0.277498 0.892330 0.356010
-0.527142 -0.163277 0.328681 -0.322465 0.358644 -0.876009
-0.458711 -0.199300 0.242639 -0.117681 -0.979081 -0.165986
-0.358195 -0.200198 0.148134 0.184381 -0.648281 -0.738739
-0.250761 -0.173874 0.093731 -0.983305 -0.159283 -0.087983
-0.184541 -0.210370 0.021901 0.058544 -0.975686 -0.211207
-0.471765 -0.170893 0.346482 -0.386658 -0.724457 -0.570665
-0.314516 -0.160199 0.210422 -0.934585 -0.164667 -0.315333
-0.246490 -0.189645 0.150949 -0.715956 -0.564678 -0.410544
-0.216179 -0.173654 0.088005 -0.745938 -0.598629 -0.291925
-0.158279 -0.206821 0.070506 -0.115214 -0.991976 -0.052059
-0.341565 -0.158826 0.272047 -0.528505 -0.739858 -0.416284
-0.219246 -0.184874 0.188097 -0.300699 -0.657122 -0.691210
-0.316877 -0.145913 0.345259 0.034755 -0.325683 -0.944840
-0.207908 -0.185427 0.216583 -0.340389 0.534446 -0.773629
-0.368940 -0.182604 0.458999 -0.327759 0.787034 -0.522639
-0.317886 -0.158077 0.424703 -0.136164 0.989375 0.050953
-0.210544 -0.165067 0.364982 0.065306 0.955238 0.288539
-0.177364 -0.151331 0.340946 -0.244840 0.889529 0.385734
-0.470615 -0.125126 0.214782 0.226777 -0.827090 -0.514290
-0.481508 -0.137332 0.283079 -0.308240 -0.898638 -0.312151
-0.429166 -0.117423 0.239549 0.432023 -0.869995 -0.237624
-0.330077 -0.130948 0.132696 -0.990385 0.101676 -0.093802
-0.100533 -0.137004 -0.060587 0.328214 -0.941064 -0.081693
-0.109588 -0.165781 -0.092640 0.379009 -0.921336 -0.086560
-0.525599 -0.103219 0.346688 -0.026796 -0.071932 -0.997050
-0.485017 -0.141155 0.321046 -0.220492 -0.882914 -0.414543
-0.354785 -0.124034 0.185756 0.325756 -0.919734 -0.219024
-0.325730 -0.144950 0.162416 -0.967246 0.165768 -0.192239
-0.241200 -0.146603 0.089625 0.615594 -0.743319 0.261763
-0.165162 -0.150354 0.055642 -0.044775 -0.996007 0.077232
-0.132116 -0.134601 0.008402 0.048625 -0.956262 -0.288441
-0.482485 -0.119666 0.394946 -0.142399 -0.050613 -0.988514
-0.319697 -0.138195 0.223353 -0.860219 0.121407 -0.495260
-0.354437 -0.124110 0.354664 -0.875103 -0.442214 0.196574
-0.245442 -0.116452 0.224562 -0.190163 0.453249 -0.870864
-0.199722 -0.152001 0.233178 -0.423930 0.316365 -0.848644
-0.414075 -0.111597 0.468961 0.143857 0.594294 -0.791278
-0.275984 -0.120819 0.353571 -0.889152 -0.368365 0.271506
-0.359952 -0.096013 0.460239 -0.311621 0.623704 -0.716858
-0.279908 -0.118462 0.452751 0.148850 0.987374 0.054184
-0.532023 -0.075956 0.337635 0.149582 -0.576432 -0.803338
-0.148428 -0.124661 -0.005870 0.082083 -0.941742 -0.326167
-0.109363 -0.080724 -0.057287 -0.223783 -0.965710 -0.131628
-0.045698 -0.101348 -0.118244 0.206973 -0.737050 0.643366
-0.505166 -0.085712 0.367660 0.010805 0.002390 -0.999939
-0.405749 -0.070437 0.282344 0.313420 -0.686170 -0.656459
-0.420320 -0.077543 0.238223 0.383630 -0.922492 0.042857
-0.046596 -0.115534 -0.078364 0.042375 -0.820317 0.570337
-0.461528 -0.073947 0.390449 0.470914 0.002874 -0.882175
-0.454850 -0.057233 0.420411 0.028641 -0.149352 -0.988369
-0.391437 -0.068880 0.362663 -0.744081 -0.498402 -0.444904
-0.296962 -0.062173 0.306231 0.554482 0.656232 -0.511771
-0.207434 -0.072856 0.230836 -0.500850 -0.305691 -0.809754
-0.412206 -0.053224 0.466624 0.027476 -0.110623 -0.993483
-0.248920 -0.075200 0.329140 0.381198 0.806983 -0.451072
-0.099935 -0.104397 0.177101 -0.783348 -0.073926 0.617171
-0.026226 -0.058040 0.143398 -0.354553 0.680643 0.641106
-0.132544 -0.075157 0.256698 -0.592720 0.800833 0.085730
-0.085311 -0.082333 0.234727 -0.312243 0.946496 0.081544
-0.508880 -0.021889 0.272474 0.270184 -0.927415 0.258655
-0.420575 -0.036570 0.190358 0.323444 -0.901539 -0.287423
-0.339097 -0.020666 0.140975 -0.984351 -0.162042 0.069249
-0.205318 -0.052155 0.034423 -0.201895 -0.977435 -0.062121
-0.159529 -0.050772 -0.005003 0.144043 -0.940589 -0.307481
-0.148888 -0.069556 -0.070656 -0.005905 -0.943196 -0.332184
-0.490035 -0.007096 0.330755 0.543955 -0.324440 -0.773855
-0.467092 -0.030580 0.284194 -0.685166 0.147295 -0.713339
-0.412817 -0.055105 0.263220 -0.607735 -0.159358 -0.777986
-0.376139 -0.032278 0.241459 0.612309 -0.777545 -0.143185
-0.300123 -0.032802 0.178000 0.711129 -0.654719 -0.256202
-0.267658 -0.042807 0.140791 -0.996457 0.068710 -0.048500
-0.261131 -0.039505 0.087697 -0.996281 -0.005577 -0.085986
-0.150114 -0.071202 0.023321 -0.057429 -0.922719 -0.381171
-0.133278 -0.048519 -0.014888 0.144043 -0.940589 -0.307481
-0.106357 -0.074353 -0.042680 -0.013951 -0.996979 -0.076406
-0.436572 -0.021904 0.361128 -0.389133 -0.690651 -0.609571
-0.201262 -0.048900 0.108325 0.285398 -0.950747 0.120944
-0.150439 -0.029020 0.066639 -0.972642 0.232146 -0.008655
-0.440797 -0.012545 0.432387 -0.215411 -0.215081 -0.952543
-0.068747 -0.025289 0.097730 -0.083115 0.964473 0.250767
0.046320 -0.047979 -0.035032 -0.684005 0.614806 0.392620
-0.216713 -0.000516 0.300735 0.255753 -0.030690 -0.966255
-0.389608 0.014556 0.486192 -0.379102 0.136877 -0.915175
-0.330330 -0.000065 0.425322 -0.011121 0.892809 -0.450299
-0.203682 -0.019300 0.358899 -0.427227 0.594997 0.680776
-0.322945 0.006294 0.527939 -0.155065 -0.222701 -0.962476
-0.197911 -0.001040 0.400387 -0.456132 0.871056 0.182224
-0.046436 -0.032374 0.252848 -0.062847 0.854285 0.515991
-0.353008 -0.008543 0.109931 0.146399 -0.978875 0.142726
-0.284763 0.006413 0.067684 0.081760 -0.945446 0.315351
-0.122199 0.016460 -0.082626 0.228892 -0.958734 0.168636
-0.002878 -0.000392 -0.211260 0.175917 -0.931553 0.318218
-0.488987 0.011590 0.311028 -0.738843 -0.050078 -0.672015
-0.445582 0.045678 0.303629 0.270437 -0.776678 -0.568890
-0.441642 0.011567 0.282601 0.354931 -0.885585 0.299603
-0.212611 -0.014481 0.089308 -0.604374 -0.743696 -0.285743
-0.095654 0.013059 -0.054096 0.306333 -0.916345 0.257822
-0.062129 -0.008362 -0.092979 0.242013 -0.935350 0.257974
-0.014492 0.002011 -0.085657 0.473223 -0.307810 0.825417
-0.473912 0.034663 0.392729 -0.122906 -0.383993 -0.915119
-0.312793 0.040800 0.246222 -0.141762 0.365249 -0.920052
-0.267517 0.019733 0.175102 0.479645 -0.675843 -0.559622
-0.233544 0.000877 0.138758 -0.226791 -0.892650 -0.389541
-0.457245 0.058435 0.409126 -0.140147 -0.124262 -0.982302
-0.308892 0.004708 0.278256 0.706889 0.162549 -0.688394
-0.057192 0.002299 0.045603 -0.742567 0.226384 0.630353
-0.027973 -0.016534 0.027601 0.805632 0.561859 0.187807
-0.003988 -0.008498 0.019442 0.546342 0.776404 0.314178
-0.412564 0.027373 0.460190 -0.192174 0.504821 -0.841561
-0.339242 0.023576 0.401728 -0.549972 0.667783 -0.501595
-0.215501 0.037855 0.285609 0.589631 0.430015 -0.683683
-0.105701 0.002777 0.160387 -0.142355 0.386298 0.911323
-0.001932 0.032464 0.066727 -0.145344 0.819463 0.554397
-0.256755 0.060259 0.430847 -0.217629 0.915878 -0.337351
-0.233073 0.020001 0.429938 -0.217629 0.915878 -0.337351
-0.548606 0.046869 0.310336 -0.485120 -0.156276 -0.860370
-0.380364 0.043527 0.180939 0.187045 -0.889006 0.417951
-0.277693 0.065099 0.082445 0.098811 -0.950670 0.294045
-0.503617 0.070144 0.357666 0.931847 -0.339696 0.127542
-0.459444 0.050629 0.312358 0.472468 -0.799097 -0.371776
-0.277692 0.076904 0.146520 -0.170925 -0.903615 -0.392766
-0.064833 0.062109 -0.038485 0.045645 0.730566 0.681314
-0.472406 0.076214 0.391254 0.257759 -0.671211 -0.695007
-0.234289 0.036876 0.128763 0.247405 0.697462 0.672560
-0.455673 0.093295 0.408226 -0.001813 0.077773 -0.996969
-0.425766 0.079306 0.369510 0.739094 -0.490392 -0.461796
-0.071895 0.071958 0.074171 0.106253 0.493436 0.863268
0.067738 0.077755 -0.037096 -0.361131 0.931831 0.035715
-0.400411 0.072454 0.467881 0.073915 -0.003989 -0.997257
-0.226234 0.055651 0.252386 0.988284 0.119442 -0.095019
-0.142689 0.048126 0.186453 -0.927466 0.366324 0.074922
-0.040561 0.061460 0.129403 -0.360963 0.925118 0.117739
0.053553 0.058303 0.018461 -0.130718 -0.915679 0.380059
-0.391011 0.092662 0.478807 0.196420 -0.000429 -0.980520
-0.280900 0.089696 0.421140 -0.211892 0.478033 -0.852400
-0.105388 0.059159 0.268978 0.287239 0.845834 -0.449510
-0.022138 0.075437 0.137642 -0.532626 0.782585 0.322289
-0.337536 0.090428 0.537303 0.016066 0.174574 -0.984513
-0.240277 0.091684 0.445043 -0.365029 0.875789 -0.315828
-0.172479 0.076107 0.338488 0.650282 -0.202561 -0.732190
-0.088700 0.096839 0.285861 -0.705938 0.693466 0.144074
-0.543075 0.129668 0.307119 -0.372728 0.249769 -0.893694
-0.396785 0.107280 0.172412 -0.027759 -0.981910 -0.187301
-0.336268 0.101406 0.198617 -0.403822 -0.022300 -0.914566
-0.253915 0.101621 0.087350 0.099714 -0.954486 0.281095
-0.183137 0.118053 0.055133 0.351197 -0.812082 0.466030
-0.171567 0.096727 0.039172 -0.009615 -0.931560 0.363462
-0.074971 0.109039 -0.058452 -0.559850 0.707798 0.430802
-0.437152 0.103891 0.303393 0.498762 -0.551745 -0.668441
-0.112177 0.097826 0.052508 0.985058 -0.032123 0.169198
-0.051149 0.080397 -0.022580 0.328069 0.763788 0.555876
-0.028688 0.105859 -0.012277 -0.654104 -0.686583 0.317415
0.102430 0.079218 -0.132191 0.449309 0.863856 0.227761
0.161408 0.102484 -0.208914 -0.037862 0.937475 0.345988
-0.372782 0.150166 0.369132 0.908580 -0.190344 -0.371822
-0.292432 0.127309 0.269394 -0.305296 0.175082 -0.936024
-0.239097 0.112988 0.249066 0.263492 0.256491 -0.929938
0.050236 0.117493 -0.049829 0.663234 0.731815 0.156742
0.072234 0.087363 -0.075410 0.685071 0.647183 0.334413
-0.421843 0.118266 0.443256 0.154020 0.036387 -0.987397
-0.139277 0.147735 0.218042 0.450222 0.831559 -0.325284
-0.088973 0.113002 0.175008 0.851295 -0.521117 -0.061103
-0.057647 0.125724 0.136511 -0.213677 0.897995 0.384639
-0.380076 0.124380 0.449041 0.480145 -0.256112 -0.838968
-0.276002 0.124926 0.403292 0.528447 0.751527 -0.394906
0.001823 0.137858 0.126210 -0.238244 0.558117 0.794824
0.102785 0.107893 0.022378 -0.123688 0.965848 0.227683
-0.342469 0.125443 0.529298 0.073667 0.100617 -0.992194
-0.271655 0.134910 0.421278 0.528447 0.751527 -0.394906
-0.027606 0.138575 0.237163 -0.858595 0.379448 0.344722
0.001978 0.145027 0.203458 -0.801387 0.574150 0.167724
-0.443974 0.159595 0.227556 0.097267 -0.995075 0.019100
-0.322650 0.172826 0.115820 0.144050 -0.986869 0.073065
-0.535785 0.187274 0.313795 0.128734 -0.545603 -0.828097
-0.365886 0.178084 0.181749 0.037623 0.584743 -0.810346
-0.087591 0.158945 -0.035379 -0.181036 -0.980788 0.072664
-0.023465 0.133289 -0.122704 -0.888579 -0.360302 0.283918
0.114089 0.155834 -0.226879 -0.220826 -0.975215 0.013801
-0.471714 0.181934 0.384082 0.175901 0.368212 -0.912951
-0.233934 0.159533 0.125317 0.352219 -0.847558 0.396973
-0.176480 0.139275 0.095286 0.500862 -0.569573 0.651708
0.036141 0.163147 -0.142691 -0.552852 -0.232831 0.800090
0.081742 0.160443 -0.133311 -0.008042 -0.320893 0.947081
-0.462985 0.173428 0.387996 -0.001259 0.787910 -0.615790
-0.330321 0.185349 0.314422 0.588814 0.480953 0.649602
-0.082913 0.167558 0.093090 0.294576 -0.575610 0.762823
-0.360277 0.190476 0.386340 0.491572 0.710230 -0.503914
-0.016826 0.151162 0.084021 -0.443480 0.519991 0.730024
-0.365872 0.179557 0.445582 0.166652 -0.572005 -0.803142
-0.244429 0.189629 0.357345 0.216473 0.066336 -0.974032
-0.075579 0.149943 0.212817 0.817973 -0.250242 -0.517976
-0.013573 0.146425 0.124041 -0.238244 0.558117 0.794824
0.027949 0.173270 0.080074 0.053345 0.990639 -0.125650
-0.340837 0.218728 0.524083 -0.063192 -0.254545 -0.964994
-0.172445 0.177281 0.335929 0.491429 0.328937 0.806411
-0.323729 0.213831 0.543110 -0.098009 -0.016787 -0.995044
-0.266132 0.177433 0.485053 0.058541 0.949299 0.308878
-0.175817 0.197208 0.393735 -0.069875 0.947236 -0.312828
-0.116585 0.193956 0.373987 -0.190336 0.969486 -0.154496
0.011571 0.192522 0.256317 -0.367251 0.780292 -0.506232
-0.003173 0.181756 -0.178284 -0.019027 -0.997747 -0.064339
-0.380976 0.201738 0.227200 0.512914 -0.700798 -0.495784
-0.311257 0.214493 0.138898 0.129988 -0.931046 0.340965
0.015917 0.173769 -0.150669 0.116917 -0.325663 0.938229
0.142397 0.170490 -0.262905 -0.036970 0.968273 0.247146
-0.472362 0.234435 0.379439 0.092151 0.197094 -0.976044
0.007296 0.179039 -0.113533 0.083089 0.397816 0.913695
0.084560 0.198866 -0.131168 0.183048 -0.320656 0.929340
0.165007 0.204781 -0.240812 -0.100335 -0.100942 0.989820
-0.445930 0.212888 0.374069 0.163186 0.784959 -0.597670
-0.290228 0.249861 0.272895 0.073286 0.988043 -0.135646
-0.250231 0.230802 0.227510 -0.008795 0.986532 0.163332
-0.149122 0.236022 0.150845 0.722821 0.671739 0.162164
-0.151398 0.231212 0.112791 0.300141 -0.848611 0.435631
0.015921 0.181984 -0.054540 -0.780674 0.414394 0.467788
0.103636 0.203028 -0.079149 0.608033 -0.790436 -0.074205
-0.302595 0.226219 0.348329 0.342688 0.686661 -0.641141
-0.202562 0.206839 0.236881 0.787203 0.122052 -0.604495
-0.013585 0.189128 0.088545 -0.104842 0.910322 0.400403
0.138712 0.192177 -0.080872 0.736158 -0.672637 0.075035
-0.369493 0.249993 0.490482 -0.317180 -0.510130 -0.799477
-0.337119 0.253901 0.400193 0.220537 0.949064 0.225036
-0.027242 0.204660 0.181631 0.105067 0.702905 0.703481
0.198186 0.226476 -0.083817 0.097238 -0.721112 0.685960
-0.342413 0.260918 0.519200 -0.271407 -0.301184 -0.914126
-0.005105 0.214192 0.271898 -0.367251 0.780292 -0.506232
-0.522223 0.278310 0.321765 0.374535 0.400667 -0.836175
-0.368984 0.257855 0.190053 -0.001051 -0.827333 -0.561711
-0.094096 0.270053 -0.070676 -0.080750 -0.996725 0.004260
0.002312 0.264435 -0.153977 0.431663 -0.899230 0.071085
0.125461 0.236382 -0.237844 0.113470 -0.982265 0.149264
-0.495821 0.297378 0.341922 0.292285 0.934227 -0.204426
-0.441752 0.259429 0.321987 0.576767 0.647318 -0.498315
-0.192190 0.264865 0.105817 0.541381 0.833351 -0.111505
0.169217 0.214493 -0.236949 -0.100335 -0.100942 0.989820
-0.460921 0.269782 0.389271 0.028249 0.134449 -0.990518
-0.379967 0.284889 0.354215 0.961542 0.228109 0.152979
-0.369962 0.271424 0.322586 0.750180 0.621900 -0.224657
-0.326921 0.300010 0.276689 0.179236 0.732565 -0.656675
-0.209530 0.259546 0.147223 0.416351 0.907157 0.060975
-0.132719 0.242216 0.093205 0.182818 -0.942958 0.278223
-0.105322 0.286922 0.106216 0.168708 0.914550 -0.367608
0.126119 0.234940 -0.109974 -0.115183 -0.650462 0.750755
-0.396260 0.312043 0.428766 0.013063 0.135428 -0.990701
-0.153240 0.262464 0.156816 0.516798 -0.730721 -0.446057
0.024467 0.271575 0.018529 0.055146 0.940736 0.334626
0.069195 0.243885 -0.002749 -0.609220 0.694611 0.382579
0.100886 0.276124 -0.057998 0.161252 0.985877 0.045222
0.138973 0.256001 -0.066929 -0.035917 -0.956146 0.290678
0.203303 0.266678 -0.107186 0.143210 0.982072 -0.122581
-0.400037 0.276004 0.455213 -0.308980 -0.415747 -0.855386
-0.237075 0.284458 0.348377 -0.167430 0.331787 -0.928377
-0.094585 0.261532 0.206642 0.951617 -0.163591 -0.260122
-0.015186 0.275572 0.145578 0.962705 0.240143 0.124618
0.048885 0.285399 0.096901 -0.388526 0.861999 0.325585
-0.245940 0.279029 0.382184 -0.167430 0.331787 -0.928377
-0.127672 0.271162 0.301481 0.673953 -0.709565 -0.205684
-0.094465 0.277992 0.265327 0.963284 0.061707 0.261297
-0.008838 0.285591 0.205569 0.304467 0.742585 0.596546
0.146569 0.266107 0.038546 -0.650346 0.544640 0.529544
-0.183552 0.309427 0.395830 -0.495407 0.762862 -0.415467
-0.117421 0.306214 0.344918 -0.262512 0.939728 -0.219085
0.048604 0.281264 0.198666 -0.465571 0.735113 0.492800
-0.336303 0.316729 0.169885 0.140447 -0.917141 -0.372998
-0.153431 0.316863 -0.009241 0.938180 -0.081128 0.336506
-0.090132 0.320767 -0.071277 0.517563 0.771420 0.370188
0.137588 0.298708 -0.277763 -0.072274 -0.992900 0.094477
-0.493480 0.333257 0.348995 -0.267915 0.338850 -0.901888
-0.418173 0.333385 0.299538 0.553034 0.791668 -0.259644
-0.418730 0.305308 0.285248 0.769724 0.584492 -0.256699
-0.363992 0.343928 0.255538 0.484923 0.509352 -0.710922
-0.271235 0.329650 0.145175 -0.102115 -0.939412 0.327226
-0.026278 0.284882 -0.057774 -0.249464 -0.698781 0.670427
0.008927 0.273454 -0.111331 0.405477 -0.883478 -0.234640
0.076066 0.288940 -0.178865 0.186418 0.980621 0.060253
0.172136 0.271155 -0.238012 0.151100 -0.543531 0.825678
-0.439058 0.319164 0.351694 0.871429 -0.490255 0.016159
-0.373113 0.317094 0.298796 0.654289 0.678676 -0.333623
-0.321019 0.303759 0.303103 0.803727 0.235314 -0.546489
-0.191066 0.300685 0.133394 0.300716 0.938711 -0.168495
-0.065809 0.326298 0.066580 0.349788 0.894177 -0.279455
0.048151 0.306901 -0.088952 0.915274 -0.399218 -0.053846
0.071702 0.288277 -0.109430 0.983628 -0.066844 0.167355
0.132647 0.319534 -0.139313 0.714652 0.596050 0.366056
-0.420540 0.329557 0.428835 -0.087319 0.251629 -0.963877
-0.253748 0.329497 0.306804 0.469605 -0.002637 -0.882873
-0.028415 0.292972 0.082733 0.616674 0.181361 0.766043
0.126891 0.315699 -0.066720 0.792752 -0.320405 0.518541
0.155429 0.280617 -0.091331 -0.132939 -0.860945 0.491020
0.223805 0.301833 -0.183953 -0.587519 0.550800 0.592824
-0.367787 0.329053 0.428205 -0.283071 0.807181 -0.518005
-0.307348 0.359657 0.411712 0.891286 -0.126953 0.435308
-0.280390 0.334078 0.365821 0.808627 -0.021077 0.587943
-0.259168 0.332707 0.427564 0.794302 -0.185974 0.578358
-0.226292 0.315623 0.402599 0.813878 -0.173380 0.554564
-0.024247 0.320975 0.211734 -0.583968 0.780254 0.224018
0.151990 0.318693 0.027030 -0.144997 0.133191 0.980426
-0.310013 0.340171 0.548599 0.197122 -0.764805 -0.613365
-0.175404 0.342479 0.376845 0.659806 -0.680760 0.318154
-0.039493 0.339404 0.293436 -0.399578 0.916575 0.015114
0.184843 0.328029 0.099044 -0.644999 0.757421 0.101437
-0.023113 0.316681 0.311641 -0.426964 0.901712 -0.067953
-0.508540 0.397576 0.327746 -0.184104 0.421675 -0.887860
-0.372669 0.344406 0.207418 0.711233 -0.525501 -0.466900
0.138412 0.343595 -0.280230 0.137946 -0.973864 0.180445
-0.492751 0.402337 0.344611 -0.190845 0.404172 -0.894552
-0.263168 0.364955 0.106726 -0.088679 -0.983282 0.159036
-0.211697 0.340277 0.087802 -0.002822 -0.968697 0.248230
-0.181605 0.346497 0.046916 0.364320 -0.930709 -0.032429
-0.123637 0.350744 0.022418 0.415365 0.642101 0.644344
0.080040 0.343826 -0.181418 -0.155834 0.850258 0.502770
0.170286 0.312130 -0.243103 0.085107 -0.232216 0.968934
-0.442480 0.385352 0.400720 0.123420 0.300837 -0.945656
-0.300154 0.357808 0.269643 0.125559 0.651729 -0.747987
-0.310592 0.350031 0.245940 0.365288 -0.132562 -0.921407
-0.222924 0.360652 0.160597 0.212744 -0.420927 0.881794
-0.136773 0.367965 0.101018 0.241191 0.803831 -0.543768
-0.085047 0.359799 0.051085 -0.209679 -0.338182 0.917424
0.090900 0.343817 -0.087005 0.743399 0.415724 0.523958
0.190514 0.321301 -0.221727 -0.173375 0.196579 0.965038
-0.356731 0.408041 0.386166 -0.102776 -0.300680 -0.948171
-0.311472 0.387680 0.286250 -0.266524 0.713892 -0.647551
-0.217964 0.376210 0.266501 0.820392 -0.571620 0.014427
-0.170495 0.351097 0.215690 0.484194 0.382548 0.786901
0.057740 0.342380 -0.031805 -0.653560 -0.309654 0.690633
-0.331909 0.366478 0.425156 -0.548247 0.746870 -0.376311
-0.179779 0.389206 0.264789 0.741365 -0.115977 -0.661005
0.056786 0.386862 0.065640 0.836247 0.292302 0.463950
0.141448 0.353730 -0.007219 -0.420696 -0.100484 0.901620
-0.364599 0.414128 0.473811 -0.039994 -0.404551 -0.913641
-0.248714 0.372013 0.385119 -0.506292 0.452405 -0.734165
0.146193 0.384838 0.038079 -0.029555 -0.871952 0.488699
0.170208 0.372367 -0.016662 -0.613665 -0.003549 0.789558
-0.317587 0.385748 0.536922 0.118457 -0.689245 -0.714779
-0.258301 0.375657 0.489047 0.777434 -0.585234 -0.230428
-0.247053 0.394643 0.439117 -0.125681 0.662233 -0.738682
-0.195097 0.409042 0.424515 -0.254594 0.957618 -0.134720
-0.136067 0.387133 0.375339 -0.200234 0.954072 0.222827
0.070461 0.381329 0.177238 -0.505388 0.594201 0.625706
0.119552 0.389886 0.159626 0.626947 0.764725 0.148771
0.243149 0.354971 -0.007486 -0.799568 0.379584 0.465411
-0.340094 0.402450 0.164730 0.307065 -0.909864 -0.279032
-0.302670 0.393978 0.127624 -0.116163 -0.990093 0.078880
-0.036533 0.387948 -0.107844 0.357674 -0.770860 0.527109
-0.311966 0.438871 0.168487 0.450833 -0.892497 -0.014066
-0.242045 0.416195 0.128881 0.684202 -0.578351 0.444272
0.044390 0.395089 -0.114781 -0.000104 0.952437 0.304737
0.092451 0.370321 -0.208230 -0.238715 0.902258 0.359089
0.149281 0.406776 -0.273111 0.313258 -0.738606 0.596934
-0.459089 0.413767 0.380472 0.097102 0.483360 -0.870020
-0.314910 0.423962 0.251882 0.375760 -0.387672 -0.841733
-0.152849 0.419622 0.101321 0.855623 -0.485522 0.179382
-0.114771 0.419338 0.036428 0.628711 -0.085233 -0.772954
-0.406600 0.452838 0.379962 -0.063545 0.456187 -0.887612
-0.360492 0.430883 0.345329 0.910247 0.323195 0.258836
-0.298846 0.416921 0.305357 0.563164 -0.718048 0.408966
-0.149671 0.407452 0.187575 0.692497 0.715596 0.091486
-0.071730 0.401693 0.117808 0.907392 -0.418348 -0.040308
0.236475 0.385684 -0.176421 0.670170 -0.357113 0.650647
-0.367659 0.463742 0.435846 -0.128182 -0.342053 -0.930897
0.038373 0.435407 0.065973 0.948938 0.314178 0.028429
0.185439 0.424690 -0.093344 0.975230 0.206682 0.078800
-0.339871 0.443505 0.468681 0.137596 -0.296059 -0.945207
-0.246726 0.462593 0.390389 0.790850 0.300824 0.532974
0.045215 0.426412 0.103640 0.982861 0.138549 0.121609
0.258109 0.420612 -0.088626 0.908410 0.396887 0.131426
0.287132 0.378209 -0.120603 0.093544 0.579329 0.809708
-0.295006 0.455782 0.513937 0.632554 0.314211 0.707917
-0.061086 0.439839 0.315685 0.679053 0.688530 -0.254587
0.105265 0.403682 0.163756 0.626947 0.764725 0.148771
-0.184979 0.445365 0.452304 0.209635 0.965439 0.154858
0.127632 0.443157 0.178777 0.888436 0.293609 0.352811
-0.153955 0.426418 -0.015259 0.749752 -0.650770 -0.119873
-0.480055 0.492635 0.351689 -0.035284 0.387023 -0.921395
0.088430 0.425128 -0.156754 0.442251 -0.818116 -0.367561
0.126242 0.413222 -0.244119 0.175025 -0.970863 -0.163679
-0.351827 0.496926 0.242405 0.908813 -0.290476 -0.299469
0.043536 0.444432 -0.055514 0.997625 0.005947 -0.068622
0.122418 0.431421 -0.145083 0.767374 -0.355744 -0.533464
0.182856 0.425926 -0.212651 0.828116 -0.364587 0.425793
-0.351299 0.462802 0.362822 0.953247 -0.302190 0.000984
-0.272623 0.472452 0.294019 0.980906 0.032178 -0.191804
-0.235581 0.474096 0.207871 0.967488 0.219845 0.125045
-0.141924 0.479219 0.182395 0.971565 -0.221668 0.083209
-0.025267 0.436042 0.035597 0.919376 -0.212415 -0.331101
0.149376 0.428607 -0.076244 -0.658806 -0.241626 0.712455
0.233595 0.436098 -0.183343 0.747802 0.193119 0.635214
-0.369285 0.486097 0.433993 0.866436 -0.148105 -0.476817
-0.256119 0.465418 0.334749 0.983931 -0.176959 -0.023764
-0.299352 0.471871 0.425873 0.996627 0.054778 0.061111
-0.171027 0.459531 0.289743 0.929196 0.356585 0.097168
-0.044585 0.465111 0.211070 0.772294 0.634079 0.038795
0.011632 0.453739 0.159341 0.968933 0.117046 0.217876
0.203395 0.454640 0.001780 0.674587 0.730219 -0.108226
-0.271739 0.484087 0.497775 0.773732 0.633493 -0.005022
-0.305055 0.487416 0.542970 0.236663 0.087697 -0.967626
-0.487918 0.513154 0.341575 -0.035284 0.387023 -0.921395
0.165483 0.466809 -0.251431 0.828116 -0.364587 0.425793
