ply
format ascii 1.0
element vertex 703
property float x
property float y
property float z
property float nx
property float ny
property float nz
end_header
-0.314315 -0.256745 -0.079986 -0.811547 -0.372445 0.450195
-0.302590 -0.257576 -0.108992 -0.800997 -0.334984 0.496175
-0.256900 -0.214452 -0.118737 -0.800093 -0.218176 0.558794
-0.114589 0.301926 -0.242126 -0.952569 -0.292069 0.085487
-0.101267 0.314731 -0.256481 -0.963741 -0.245847 0.103740
-0.283614 -0.290703 -0.167958 -0.987667 0.098355 0.121819
-0.260478 -0.273413 -0.180785 -0.981326 0.186953 -0.045261
-0.107981 0.208550 -0.254711 -0.912539 -0.190111 -0.362119
-0.052291 0.299838 -0.324948 -0.914614 -0.084499 0.395401
-0.034685 0.322858 -0.321335 -0.745433 0.046460 0.664959
-0.040188 0.187536 -0.347047 -0.856552 0.503822 -0.111718
-0.042252 0.252786 -0.351597 -0.970869 0.191572 0.143925
-0.019190 0.261588 -0.365796 -0.861049 0.465221 0.205337
-0.449019 0.125064 0.179910 -0.933492 -0.358134 -0.018250
-0.428263 0.161373 0.155395 -0.949570 -0.301175 0.087241
-0.421544 0.186609 0.166027 -0.898082 -0.270477 0.346829
-0.422105 0.061071 0.155250 -0.903905 -0.092795 -0.417545
-0.411392 0.078631 0.127285 -0.958937 -0.016872 -0.283116
-0.423824 0.129748 0.137159 -0.981526 -0.191244 -0.005633
-0.398791 0.087244 0.108996 -0.983598 0.023255 -0.178869
-0.389373 0.098307 0.097875 -0.991802 0.089550 -0.091153
-0.346730 0.096053 0.065005 -0.976288 0.200555 0.081483
-0.337666 0.042841 0.064860 -0.955430 0.266944 -0.126071
-0.326082 -0.237864 0.008304 -0.799093 -0.551855 0.238553
-0.317199 -0.210359 0.021834 -0.799093 -0.551855 0.238553
-0.304122 -0.196232 -0.005456 -0.805132 -0.541404 0.242166
-0.145654 0.250124 -0.146220 -0.827673 -0.496314 -0.261975
-0.141343 0.289615 -0.153191 -0.798556 -0.583731 -0.146853
-0.124505 0.340137 -0.159228 -0.845129 -0.511758 0.154466
-0.296126 -0.221216 -0.069686 -0.732689 -0.448815 0.511597
-0.273564 -0.188749 -0.060231 -0.800021 -0.436050 0.412101
-0.132668 0.249386 -0.207137 -0.898553 -0.360826 -0.249813
-0.135403 0.271371 -0.196519 -0.889716 -0.435488 -0.136952
-0.295348 -0.420705 -0.017441 -0.714900 -0.174786 -0.677029
-0.212295 -0.190623 -0.127445 0.696524 0.143865 -0.702964
-0.100853 0.156593 -0.206888 -0.813304 -0.175532 -0.554730
-0.084452 0.349147 -0.242507 -0.724363 -0.339691 0.599924
-0.072647 0.343910 -0.264504 -0.730275 -0.341425 0.591716
-0.201489 -0.201682 -0.150283 0.621146 -0.019246 -0.783459
-0.086251 0.171221 -0.266742 -0.900679 -0.095861 -0.423778
-0.049087 0.335702 -0.297415 -0.848565 -0.118613 0.515624
-0.211217 -0.471755 -0.122740 0.778091 0.273389 -0.565537
-0.178050 -0.219910 -0.189462 0.500310 0.200001 -0.842431
-0.137293 -0.198909 -0.192541 0.680276 0.322353 -0.658265
-0.065266 0.158281 -0.295034 -0.915368 0.018936 -0.402171
0.013132 0.339897 -0.338377 -0.834129 0.081987 0.545442
-0.142605 -0.235433 -0.230568 -0.931133 0.353415 -0.089939
-0.133706 -0.204868 -0.202762 0.680276 0.322353 -0.658265
-0.029241 0.087554 -0.286376 -0.847401 -0.219174 -0.483606
-0.030238 0.116652 -0.315814 -0.907731 0.334725 -0.252948
0.015305 0.321355 -0.355939 -0.834129 0.081987 0.545442
-0.175616 -0.499846 -0.197395 -0.946376 -0.084426 -0.311842
-0.090868 -0.200598 -0.235754 0.076387 0.891447 -0.446639
-0.006628 -0.027909 -0.320727 -0.954559 -0.056338 -0.292647
-0.475070 0.088815 0.285949 -0.856510 -0.238369 -0.457790
-0.472541 0.080226 0.283105 -0.856510 -0.238369 -0.457790
-0.463191 0.113516 0.221280 -0.908772 -0.322601 -0.264692
-0.451590 0.180821 0.215089 -0.833219 -0.533824 0.144147
-0.433094 0.033824 0.213222 -0.785557 -0.238606 -0.570936
-0.407655 0.205411 0.168501 -0.787339 -0.396416 0.472178
-0.417288 0.008742 0.209242 -0.806571 -0.195749 -0.557786
-0.232213 0.634418 0.055762 0.899250 -0.052834 0.434233
-0.221150 0.687148 0.003642 0.882436 -0.076788 0.464123
-0.397333 -0.000486 0.172844 -0.825364 -0.074461 -0.559669
-0.397853 0.029773 0.138988 -0.879052 -0.038786 -0.475145
-0.337918 0.186141 0.093139 -0.901413 -0.071297 0.427049
-0.320142 0.199437 0.092854 -0.891959 -0.079603 0.445054
-0.201887 0.655807 -0.011897 0.882436 -0.076788 0.464123
-0.190231 0.655748 -0.025101 0.882436 -0.076788 0.464123
-0.346805 -0.033773 0.110458 -0.953779 -0.065895 -0.293196
-0.366865 0.027459 0.097352 -0.906148 0.214044 -0.364802
-0.316101 0.126983 0.051386 -0.953742 0.184537 0.237323
-0.312960 0.182240 0.074830 -0.908205 0.034361 0.417112
-0.174915 0.582744 -0.001189 0.895564 -0.012067 0.444768
-0.159800 0.618956 -0.042228 0.897254 -0.126928 0.422876
-0.320768 -0.111517 0.107167 -0.804874 -0.511537 -0.300845
-0.339778 -0.041463 0.104610 -0.931539 -0.141648 -0.334918
-0.328381 0.013207 0.065657 -0.984924 0.039862 -0.168331
-0.280194 0.094699 0.028085 0.865963 -0.465408 -0.183041
-0.293257 0.147979 0.045328 -0.917714 0.188927 0.349440
-0.264319 0.176280 0.040958 -0.930471 0.037040 0.364489
-0.137502 0.594816 -0.053901 0.927639 -0.173514 0.330724
-0.105986 0.625677 -0.083831 0.922366 -0.138530 0.360624
-0.325520 -0.202560 0.101361 -0.865900 -0.480657 -0.138514
-0.306588 -0.147683 0.062283 -0.939902 -0.340044 0.030901
-0.303708 -0.081290 0.065425 -0.946802 -0.179055 -0.267403
-0.277169 0.016476 0.030069 -0.929981 0.364169 0.050168
-0.264974 0.061079 0.020493 -0.917689 0.369849 0.145114
-0.283095 -0.140338 0.013823 -0.934113 -0.350552 0.067422
-0.234363 -0.031147 0.006615 -0.958740 0.208956 0.192758
-0.215282 -0.006981 -0.001923 -0.936318 0.249504 0.247096
-0.175213 0.143316 -0.041256 -0.999375 0.004346 -0.035085
-0.186654 0.174644 -0.028617 -0.992182 -0.030089 0.121115
-0.162928 0.246616 -0.058822 -0.879916 -0.462377 -0.109339
-0.149967 0.280540 -0.099692 -0.754516 -0.591548 -0.284211
-0.110304 0.396760 -0.106007 -0.875600 -0.451924 0.170558
-0.078513 0.448418 -0.121009 -0.908172 -0.215663 0.358766
-0.252244 -0.114286 -0.007156 -0.961028 -0.014840 0.276054
-0.152437 0.124410 -0.062605 -0.913461 -0.009630 -0.406812
-0.140687 0.149822 -0.094438 -0.947051 -0.261231 -0.186687
-0.128006 0.220405 -0.088016 -0.911708 -0.344895 -0.223239
-0.143108 0.302688 -0.118060 -0.792804 -0.600747 -0.102781
-0.116519 0.372419 -0.126405 -0.818573 -0.537124 0.203561
-0.084672 0.428284 -0.130059 -0.775716 -0.531426 0.340370
-0.060004 0.450728 -0.143183 -0.908172 -0.215663 0.358766
-0.119322 0.103307 -0.095521 -0.896099 0.003498 -0.443841
-0.129449 0.173031 -0.143957 -0.811158 -0.479345 -0.335037
-0.143216 0.204901 -0.131836 -0.764503 -0.494635 -0.413366
-0.067801 0.411938 -0.176570 -0.875914 -0.298731 0.378860
-0.184297 -0.129769 -0.074265 0.817947 0.026655 -0.574675
-0.110284 0.146292 -0.162635 -0.839240 -0.115649 -0.531320
-0.010609 0.408420 -0.238137 -0.795829 -0.302550 0.524518
-0.187968 -0.348302 -0.094679 0.006920 -0.990405 -0.138025
-0.152511 -0.097825 -0.130522 -0.804025 -0.027177 0.593975
-0.057876 0.065329 -0.173449 -0.845801 -0.236396 -0.478265
-0.066717 0.107684 -0.219764 -0.704929 -0.247505 -0.664693
0.019286 0.401343 -0.269389 -0.768773 -0.057306 0.636949
0.044131 0.415757 -0.268006 -0.732459 -0.144318 0.665339
0.109612 0.602357 -0.320707 0.691139 0.467260 0.551357
-0.181400 -0.471706 -0.075891 -0.174422 0.033871 -0.984088
-0.113368 -0.196043 -0.129827 0.606654 -0.376988 -0.699893
-0.027629 0.046925 -0.231521 -0.827574 -0.151197 -0.540611
-0.101865 -0.251615 -0.157826 -0.015005 0.998950 0.043279
-0.079182 -0.183729 -0.226948 0.786277 0.282071 -0.549732
-0.078712 -0.161602 -0.196188 0.732684 0.454190 -0.506838
-0.038955 -0.133109 -0.216570 -0.936922 0.058520 0.344605
0.063122 0.293186 -0.316405 -0.343047 0.845483 -0.409239
0.070696 0.363433 -0.353827 -0.908083 -0.048347 0.415990
0.110660 0.416563 -0.322777 -0.805836 -0.219215 0.550067
0.162095 0.640580 -0.388872 -0.338555 -0.028436 0.940517
-0.088889 -0.414567 -0.188121 0.837596 -0.332916 -0.433129
-0.103123 -0.330115 -0.177707 -0.526896 0.810090 0.257169
-0.037445 -0.145675 -0.240598 -0.898425 0.011684 0.438971
-0.027636 -0.121336 -0.225889 -0.965165 0.094820 0.243854
-0.008131 -0.079080 -0.235388 -0.966628 -0.192356 -0.169201
0.000172 0.017210 -0.288206 -0.835039 -0.274331 -0.476920
0.101878 0.369123 -0.375130 -0.830431 -0.054252 0.554474
0.131449 0.414479 -0.352040 -0.809151 -0.317052 0.494724
0.127571 0.429123 -0.370982 -0.809151 -0.317052 0.494724
0.177878 0.534583 -0.424435 -0.993067 0.062348 -0.099654
-0.129372 -0.496810 -0.191356 0.513302 -0.010376 -0.858145
-0.098652 -0.453755 -0.201017 -0.907125 0.312735 0.281642
0.143810 0.336902 -0.405719 -0.941210 0.335957 0.035461
0.171756 0.398895 -0.416216 -0.848350 -0.013734 0.529258
0.174025 0.447966 -0.416203 -0.968911 0.167630 0.181968
0.258293 0.584775 -0.497353 0.054210 -0.022433 0.998277
-0.065649 -0.548246 -0.249999 -0.799160 0.503479 0.328409
0.135499 0.006570 -0.404707 -0.849887 0.372315 0.372926
0.261157 0.573356 -0.545864 -0.842058 0.517964 -0.150505
0.099518 -0.286606 -0.372292 0.736263 0.536289 -0.412686
0.265040 0.357923 -0.542100 -0.892540 0.427779 -0.142747
-0.559160 -0.239377 0.411289 -0.583152 -0.451543 -0.675309
-0.471593 -0.000549 0.352505 -0.967818 -0.036572 -0.248981
-0.479329 0.041948 0.338257 -0.918977 0.059838 -0.389745
-0.482963 0.109759 0.312459 -0.898180 -0.123613 -0.421892
-0.478290 0.157814 0.307376 -0.860634 -0.508637 -0.024453
-0.413834 0.280213 0.281286 -0.732698 -0.499010 0.462756
-0.483711 -0.085642 0.319770 -0.993609 -0.008309 -0.112572
-0.446361 -0.006323 0.310124 -0.972193 -0.122315 -0.199701
-0.442359 0.046795 0.328186 -0.918977 0.059838 -0.389745
-0.507146 -0.274891 0.327855 -0.823034 -0.019704 -0.567651
-0.427446 -0.034890 0.304381 -0.985558 -0.114112 -0.125119
-0.408627 0.029075 0.268198 -0.515320 -0.182101 -0.837428
-0.368674 0.148957 0.227708 -0.386712 -0.905181 0.176355
-0.332153 0.274591 0.189472 -0.702306 -0.102075 0.704520
-0.407062 -0.157606 0.270498 -0.997844 0.027838 -0.059438
-0.393406 -0.044876 0.235633 -0.764468 -0.107980 -0.635554
-0.414735 -0.011076 0.236191 -0.829531 -0.179823 -0.528717
-0.336654 0.251348 0.162183 -0.685267 -0.120287 0.718289
-0.328360 0.258904 0.166035 -0.691333 -0.095568 0.716188
-0.423546 -0.316314 0.266399 -0.646304 0.132412 -0.751504
-0.373615 -0.091653 0.238587 -0.918060 -0.125684 -0.375992
-0.372070 -0.049801 0.183642 -0.724326 -0.057317 -0.687071
-0.301976 0.248670 0.134296 -0.696036 -0.177128 0.695816
-0.333201 -0.159087 0.182672 -0.874312 -0.459545 -0.156192
-0.349746 -0.070817 0.152562 -0.673688 0.003584 -0.739007
-0.297900 0.027322 0.148791 -0.597233 0.479337 -0.643078
-0.270645 0.229432 0.089065 -0.821337 -0.087815 0.563644
-0.231792 0.274196 0.111127 -0.761162 -0.519567 0.388179
-0.147453 0.549529 -0.018204 -0.930588 -0.203861 -0.304049
-0.332269 -0.232284 0.181712 -0.590863 -0.524411 -0.613086
-0.331943 -0.163105 0.174785 -0.941553 -0.336684 -0.011032
-0.218365 0.223459 0.035483 -0.887372 -0.225202 0.402311
-0.156575 0.319727 0.037241 -0.858973 -0.504321 0.088460
-0.138001 0.481311 0.019282 -0.843952 -0.414064 -0.341023
-0.137459 0.509714 -0.006697 -0.868664 -0.354126 -0.346436
-0.119304 0.536040 -0.051266 -0.969188 -0.129500 -0.209533
-0.329876 -0.213860 0.116719 -0.794451 -0.523067 -0.308624
-0.201859 0.056952 0.041310 0.503970 -0.259129 -0.823933
-0.208009 0.211551 0.013377 -0.938192 -0.107032 0.329149
-0.182336 0.232811 -0.012448 -0.940508 -0.173967 0.291855
-0.162225 0.291024 0.001564 -0.905656 -0.388136 0.170697
-0.141752 0.329906 -0.046128 -0.778168 -0.627505 0.026313
-0.131150 0.381548 -0.001878 -0.777229 -0.616480 -0.125964
-0.119211 0.458340 -0.028404 -0.927663 -0.330181 -0.174420
-0.111596 0.491741 -0.050912 -0.990522 -0.108728 0.083925
-0.081835 0.594552 -0.094297 -0.974770 0.217589 -0.049785
-0.059762 0.601677 -0.107068 -0.953176 0.289556 -0.087255
-0.302477 -0.388788 0.119473 -0.233372 -0.210840 -0.949254
-0.298130 -0.312092 0.097074 -0.777929 -0.293969 -0.555345
-0.126572 0.373205 -0.062650 -0.794193 -0.607661 -0.002338
-0.068642 0.486442 -0.110877 -0.924674 -0.072215 0.373848
-0.049923 0.536857 -0.113613 -0.971985 0.169324 0.163014
-0.281103 -0.403612 0.084126 -0.037930 -0.183194 -0.982345
-0.248359 -0.209372 0.030803 -0.960249 -0.211621 -0.182040
-0.181141 -0.025658 -0.020995 -0.982494 0.118209 0.143986
-0.191004 0.016169 -0.017908 -0.960105 0.222499 0.169389
-0.141948 0.046698 -0.046254 -0.969692 0.211628 -0.122108
-0.114460 0.224243 -0.058952 -0.900575 -0.399875 -0.170486
-0.024528 0.492153 -0.145602 -0.955019 0.130634 0.266219
0.008014 0.556978 -0.143242 0.854699 -0.214619 0.472682
-0.010621 0.572294 -0.136559 -0.915333 0.400617 0.040881
-0.260834 -0.411240 0.080434 0.221064 -0.480334 -0.848770
-0.163791 -0.061356 -0.039643 -0.923134 0.100880 0.371008
-0.154356 -0.014398 -0.033950 -0.982494 0.118209 0.143986
-0.120835 0.045422 -0.062946 -0.899977 0.384338 -0.205732
-0.119475 0.086320 -0.083544 -0.903605 0.014155 -0.428133
0.056183 0.517106 -0.181569 -0.817658 0.497480 0.289740
0.088250 0.699359 -0.231658 -0.915268 -0.398709 0.057580
-0.201008 -0.274539 -0.016662 -0.215225 -0.097687 -0.971666
-0.149939 -0.110932 -0.054528 0.861180 -0.294399 -0.414365
-0.101493 -0.073140 -0.084233 -0.941650 0.174611 0.287761
-0.091304 0.062525 -0.105410 -0.833574 0.043592 -0.550685
-0.091413 0.077603 -0.118183 -0.840044 0.083288 -0.536086
-0.013696 0.328078 -0.183717 -0.666515 -0.082935 0.740864
0.055165 0.475856 -0.208292 -0.225338 0.326974 0.917775
0.031405 0.492650 -0.215693 -0.780084 0.035373 0.624674
0.119980 0.681556 -0.264634 -0.022662 0.039105 0.998978
-0.195282 -0.456331 -0.026264 -0.177569 0.100318 -0.978982
-0.129210 -0.115292 -0.096471 0.604298 -0.105200 -0.789783
-0.040935 -0.003261 -0.143331 -0.941402 -0.160466 -0.296671
-0.057159 0.048918 -0.153738 -0.759867 -0.076093 -0.645610
0.041935 0.292011 -0.220334 0.237339 0.521340 0.819679
0.050224 0.432857 -0.250585 -0.779775 -0.132198 0.611944
0.121545 0.676397 -0.286115 -0.022662 0.039105 0.998978
-0.136993 -0.454177 -0.070965 -0.334615 0.106589 -0.936308
-0.079217 -0.130430 -0.153941 -0.918059 -0.151236 0.366464
-0.037344 -0.050460 -0.143961 -0.960674 -0.274416 0.042455
-0.035440 0.012667 -0.165828 -0.815603 -0.235061 -0.528714
0.100904 0.440008 -0.281289 -0.796897 -0.213865 0.564993
-0.034933 -0.107072 -0.188761 -0.947347 -0.062323 0.314085
-0.008336 -0.044017 -0.215778 -0.937044 -0.326639 -0.123514
0.140817 0.446542 -0.318902 -0.780764 -0.497751 0.377692
0.166432 0.523221 -0.354463 0.759984 0.583937 0.285381
0.034906 -0.031232 -0.263841 -0.959294 -0.194574 -0.204685
0.109437 0.165676 -0.305731 -0.387568 0.776851 0.496280
0.095056 0.175912 -0.310845 -0.371789 0.880105 0.295276
0.179399 0.433569 -0.375442 -0.899177 0.052188 0.434462
0.172032 0.469790 -0.349341 -0.957175 -0.288477 0.024426
0.024988 -0.174331 -0.236006 -0.203420 0.738219 -0.643159
0.051090 -0.130775 -0.279475 -0.953299 0.205105 -0.221704
0.146024 0.130833 -0.326901 0.164590 0.667845 0.725874
0.017495 -0.321771 -0.255009 -0.946304 0.288380 -0.146099
-0.001353 -0.544945 -0.236400 -0.789081 0.547875 0.277822
0.051236 -0.379266 -0.276741 -0.997967 -0.058299 0.025733
0.261888 0.287996 -0.424757 -0.816392 0.568846 -0.099596
0.306726 0.499070 -0.508763 -0.319568 0.944502 0.076110
0.338085 0.559665 -0.489100 0.164264 0.037860 0.985690
0.038601 -0.482607 -0.270374 -0.744448 0.624556 0.236065
0.145736 -0.196883 -0.332932 -0.948358 -0.044879 -0.314011
0.336097 0.548806 -0.542582 0.112414 0.032596 0.993127
-0.531273 -0.161827 0.429627 -0.648472 -0.735165 -0.197525
-0.465517 -0.094420 0.387738 -0.981801 -0.019132 -0.188947
-0.481349 -0.029017 0.378870 -0.982978 0.041412 -0.178996
-0.481444 -0.173396 0.363919 -0.972417 -0.212903 0.095273
-0.435012 -0.047039 0.330825 -0.982978 0.041412 -0.178996
-0.338617 0.186624 0.286010 0.155646 -0.946924 0.281263
-0.354186 0.325052 0.264913 -0.773439 -0.280970 0.568197
-0.454861 -0.240574 0.341620 -0.507070 0.428229 -0.747998
-0.394309 -0.090627 0.300536 -0.964546 0.060147 -0.256971
-0.305827 0.318895 0.224640 -0.712571 -0.139952 0.687499
-0.411114 -0.304558 0.335003 0.035185 0.179378 -0.983151
-0.257870 0.256246 0.203811 0.741777 -0.536536 -0.402363
-0.240890 0.324682 0.184987 -0.826128 -0.191316 0.530011
-0.327823 -0.078556 0.241495 -0.971584 0.192845 -0.137244
-0.217079 0.306741 0.140447 -0.747371 -0.464872 0.474690
-0.151756 0.456110 0.096848 0.819439 -0.338039 0.462870
-0.340508 -0.145574 0.206139 -0.997760 0.066169 -0.009784
-0.275406 -0.054823 0.191006 0.060433 -0.992772 -0.103691
-0.214281 0.165879 0.153566 -0.073924 -0.416974 -0.905907
-0.198292 0.310312 0.122009 -0.802590 -0.403572 0.439293
-0.177964 0.320735 0.102805 -0.867186 -0.330355 0.372632
-0.155915 0.366135 0.108986 -0.917341 -0.383283 0.107607
-0.147583 0.449827 0.087710 0.918777 0.101981 0.381377
-0.115049 0.592337 0.019201 0.918714 -0.108924 0.379605
-0.282827 -0.091524 0.169286 0.296117 -0.794723 -0.529840
-0.140898 0.377902 0.062273 -0.890531 -0.452141 -0.050239
-0.132160 0.428771 0.032666 -0.894094 -0.191916 -0.404679
-0.135662 0.301575 0.015306 -0.724582 -0.684229 0.082532
0.049033 0.744148 -0.085182 0.750710 0.239132 0.615833
-0.021041 0.492780 -0.088104 -0.642474 -0.616537 0.455094
0.056019 0.697760 -0.115173 0.532936 0.216542 0.817978
0.075136 0.727923 -0.119638 0.532936 0.216542 0.817978
-0.210188 -0.383172 0.113714 -0.046172 0.114169 -0.992388
-0.208912 -0.304324 0.080052 0.522233 -0.845386 0.112228
0.047589 0.665914 -0.144109 -0.924899 -0.161099 0.344396
-0.206400 -0.428191 0.086901 0.054289 -0.008736 -0.998487
-0.043014 0.013497 -0.083201 -0.965975 0.002518 -0.258624
0.082070 0.419459 -0.141613 0.642451 0.527636 0.555749
0.057483 0.455924 -0.164876 0.451190 -0.080216 0.888816
0.087040 0.506663 -0.206935 -0.689579 0.172696 0.703318
0.105383 0.561607 -0.170356 -0.853767 0.164116 0.494114
0.120945 0.679840 -0.225969 -0.231431 -0.088977 0.968774
-0.174028 -0.437896 0.023988 0.024604 -0.027042 -0.999331
-0.115093 -0.244899 -0.035061 -0.887634 -0.445489 0.116814
-0.055018 -0.165879 -0.051415 0.550973 -0.787620 -0.275833
-0.000922 0.138921 -0.139687 -0.038839 -0.592060 0.804957
-0.054370 -0.277004 -0.057000 -0.204896 -0.856692 -0.473388
0.175815 0.504243 -0.237012 -0.851637 -0.397979 0.341069
0.171124 0.545429 -0.264925 -0.852888 -0.443107 0.276112
-0.033618 -0.222375 -0.123719 -0.315417 0.914917 -0.251872
0.033495 -0.178790 -0.154975 -0.326598 0.573217 -0.751502
0.158755 0.234597 -0.292975 -0.142794 0.659312 0.738185
-0.041523 -0.535278 -0.152113 -0.242385 -0.175987 -0.954085
0.009799 -0.371662 -0.150821 0.158321 -0.155702 -0.975034
0.012524 -0.459501 -0.186751 -0.525535 0.606635 -0.596495
0.262956 0.430136 -0.397947 -0.197256 0.695145 0.691277
0.077181 -0.443477 -0.213419 0.384106 -0.377217 -0.842716
0.195205 0.071200 -0.340840 0.012864 0.317031 0.948328
0.264197 0.308930 -0.411983 -0.781373 0.621840 -0.052648
0.075164 -0.573902 -0.243901 -0.353394 0.837019 0.417747
0.089503 -0.497524 -0.268911 -0.577408 0.747441 0.328529
0.143561 -0.351377 -0.303176 0.444112 0.373857 -0.814245
0.148970 -0.237908 -0.299882 0.578661 0.792064 0.194385
0.198695 -0.123315 -0.353785 -0.516658 0.789628 -0.330986
0.268435 0.046096 -0.384475 -0.418589 0.219372 0.881283
0.300626 0.227812 -0.434211 0.681669 0.608107 0.406858
0.361617 0.339804 -0.451744 -0.493348 0.546474 0.676737
0.085868 -0.598066 -0.244208 0.648902 -0.568178 -0.506064
0.150952 -0.348418 -0.338844 -0.066974 0.963907 0.257679
0.323134 0.190196 -0.475567 -0.752321 0.658234 -0.027219
0.346534 0.286095 -0.455605 -0.363733 0.929586 0.059730
-0.492780 -0.188809 0.462671 -0.052657 -0.924363 -0.377864
-0.379801 -0.312054 0.354554 -0.088798 0.084163 -0.992487
-0.321186 0.020951 0.280627 0.289048 -0.396326 -0.871422
-0.178598 0.350803 0.142895 -0.857368 -0.381561 0.345443
-0.168108 0.382822 0.150563 -0.974412 -0.197964 0.106449
-0.277801 -0.181091 0.271757 0.269810 -0.919262 -0.286636
-0.265977 -0.083709 0.220634 0.397733 -0.770939 -0.497454
-0.177195 0.210073 0.183193 -0.575782 -0.447161 -0.684487
-0.124231 0.422998 0.090602 -0.969605 -0.164435 -0.181182
-0.236198 -0.137164 0.193712 -0.005265 -0.999513 -0.030769
-0.179931 0.141030 0.137572 -0.178716 -0.590792 -0.786782
0.037172 0.740023 -0.016670 -0.166736 -0.980765 -0.101488
-0.279720 -0.378462 0.195927 -0.245541 -0.300840 -0.921523
-0.145224 0.045605 0.095027 0.274281 -0.532571 -0.800711
-0.045783 0.419668 0.042432 0.412059 -0.433894 0.801214
0.082486 0.741225 -0.046446 0.404746 0.045982 0.913272
-0.237990 -0.389503 0.216986 -0.114893 -0.131873 -0.984586
-0.078403 0.182685 0.047297 0.064529 -0.995062 -0.075420
-0.041888 0.294409 0.045131 0.401814 -0.823254 -0.400997
0.033267 0.516848 -0.051374 0.101188 0.615906 0.781294
-0.080589 0.063876 0.037437 -0.619777 -0.781203 0.074823
-0.011343 0.252967 0.021355 -0.353668 0.594690 0.721985
0.072498 0.462791 -0.056025 0.446185 0.431097 0.784267
-0.171104 -0.428422 0.113750 -0.040622 -0.012787 -0.999093
-0.120068 -0.217459 0.097057 0.306335 0.727926 -0.613419
-0.107864 -0.142649 0.056021 -0.564263 -0.639123 -0.522618
-0.150044 -0.449316 0.077009 -0.020564 -0.105421 -0.994215
0.050510 0.157771 -0.071836 -0.902720 -0.402234 0.152655
0.069994 0.415298 -0.120645 0.807361 -0.132844 0.574909
0.145240 0.555150 -0.164021 -0.889143 -0.349624 0.295277
-0.105688 -0.282636 0.009444 0.577831 -0.104085 -0.809493
-0.010382 -0.090973 -0.024336 -0.409347 0.767931 -0.492663
0.107462 0.328376 -0.143474 -0.178135 0.824712 0.536766
0.140225 0.443032 -0.182033 -0.670360 -0.626146 0.398194
0.180788 0.668997 -0.227817 -0.085492 0.345888 0.934373
-0.033171 -0.304108 -0.050805 0.552371 -0.291433 -0.780995
0.022839 -0.150508 -0.085327 0.960932 0.036961 -0.274305
0.241104 0.643806 -0.250388 -0.175225 0.134470 0.975302
-0.046109 -0.504156 -0.014902 -0.085744 -0.101451 -0.991139
-0.010237 -0.376880 -0.029356 -0.913133 0.407620 0.005811
0.104177 0.012581 -0.142202 -0.456581 0.865926 0.204221
0.092774 0.102131 -0.171654 0.036324 -0.547408 0.836077
0.144709 0.232516 -0.215951 -0.235158 0.453927 0.859448
0.171223 0.265085 -0.198566 -0.095513 0.447548 0.889144
0.287520 0.619718 -0.289556 0.068371 0.122295 0.990136
0.095589 -0.143916 -0.154063 0.251947 0.060985 -0.965818
0.162857 0.117476 -0.207387 0.223832 0.162783 0.960938
0.287622 0.609788 -0.335467 0.038833 0.283008 0.958331
0.015777 -0.544232 -0.104063 -0.110328 0.096754 -0.989175
0.130452 -0.105584 -0.180170 0.032495 0.902885 0.428652
0.189692 0.093003 -0.242719 0.268627 -0.185128 0.945287
0.291547 0.468182 -0.320796 -0.458663 0.539514 0.706083
0.352731 0.537042 -0.355391 0.953432 -0.284744 0.099441
0.113678 -0.274472 -0.203837 0.612159 0.480124 -0.628285
0.220805 0.125653 -0.298491 -0.432338 0.854187 0.288876
0.326525 0.415878 -0.342840 -0.632391 0.278081 0.723017
0.086517 -0.478223 -0.189992 0.775542 0.560300 0.290859
0.168025 -0.249482 -0.225031 -0.661156 -0.354326 -0.661306
0.335468 0.377918 -0.389079 -0.511567 0.239289 0.825251
0.380261 0.556637 -0.437192 0.060359 0.110187 0.992076
0.095461 -0.587207 -0.178844 0.899638 0.375077 -0.223535
0.179840 -0.300898 -0.252637 -0.024608 -0.415974 -0.909043
0.340028 0.203220 -0.375125 0.830177 0.089755 0.550228
0.409131 0.507056 -0.462603 0.046973 -0.141164 0.988871
0.141402 -0.616721 -0.243923 -0.836556 0.544030 0.064846
0.132932 -0.501168 -0.267629 -0.804613 0.557793 0.203629
0.198388 -0.354605 -0.276655 -0.029318 -0.509009 -0.860262
0.323070 -0.044766 -0.367416 -0.109724 0.864533 0.490451
0.429272 0.524533 -0.509500 0.007822 -0.078126 0.996913
0.348984 0.077491 -0.430782 -0.572889 0.816898 0.066906
0.461466 0.507356 -0.538861 0.167845 -0.269026 0.948395
0.178967 -0.642527 -0.304921 -0.544250 0.759484 -0.356336
0.548296 0.249225 -0.607058 -0.957719 0.284525 0.042664
-0.408729 -0.275211 0.480245 -0.259886 -0.147648 -0.954285
-0.369104 -0.275324 0.429810 -0.190482 0.038008 -0.980955
-0.371249 -0.304510 0.402923 -0.190482 0.038008 -0.980955
-0.332909 -0.240918 0.384218 -0.038925 0.110661 -0.993096
-0.222848 -0.121461 0.267161 0.086809 -0.866148 -0.492190
-0.208208 -0.046511 0.259780 0.237749 -0.440879 -0.865506
-0.150846 0.074471 0.233024 0.901770 -0.197884 0.384257
-0.175503 0.148902 0.194370 0.840518 -0.199635 0.503662
-0.274767 -0.303122 0.277142 -0.007865 0.742120 -0.670221
0.040419 0.642295 0.032227 -0.706014 -0.684187 -0.182845
0.057257 0.761499 0.008159 0.404746 0.045982 0.913272
-0.180642 -0.243820 0.241503 0.654003 -0.650323 0.386471
-0.104775 0.145031 0.134039 0.721559 -0.187899 -0.666368
-0.017258 0.348155 0.089957 0.358665 -0.663487 -0.656616
-0.189392 -0.403730 0.226970 -0.137809 0.092660 -0.986115
-0.042512 0.133456 0.108674 0.629958 -0.014603 -0.776492
0.058585 0.503477 0.026486 -0.671436 -0.740984 -0.010830
-0.093429 -0.018859 0.094240 -0.394695 -0.571512 -0.719437
0.125851 0.608137 -0.051666 0.872522 0.469454 0.135345
-0.133424 -0.396525 0.133782 0.439277 0.358126 -0.823882
0.049091 0.206063 -0.026569 0.948388 0.296272 0.113058
0.174885 0.688758 -0.145377 0.071086 -0.141866 0.987330
-0.047523 -0.198097 0.088295 0.557507 0.081449 -0.826167
0.222407 0.673011 -0.144130 -0.039558 -0.213772 0.976082
-0.088210 -0.461990 0.114891 -0.063497 -0.035013 -0.997368
0.010643 -0.046330 -0.008452 0.434708 -0.179702 -0.882460
0.109730 0.114052 -0.051773 0.482680 0.805609 0.343532
0.124904 0.262635 -0.117912 -0.422733 -0.771528 0.475438
-0.066756 -0.484982 0.041761 -0.267832 0.249465 -0.930609
0.027645 -0.236759 -0.000737 0.984535 0.119509 -0.128094
0.043283 -0.107387 -0.048742 -0.845401 -0.163396 -0.508527
0.197736 0.300028 -0.128764 -0.743319 -0.185127 0.642811
0.278491 0.629215 -0.259617 0.228857 -0.001814 0.973458
0.011319 -0.309467 -0.044901 0.766897 -0.314725 -0.559301
0.070819 -0.218070 -0.046724 0.252349 0.889887 0.380028
0.098457 -0.096732 -0.059772 0.856501 -0.026244 -0.515478
0.311690 0.616384 -0.267240 0.252184 0.140313 0.957453
0.078583 -0.235667 -0.096211 -0.804030 0.039802 -0.593255
0.244321 0.281233 -0.195527 -0.182547 0.799150 0.572745
0.314113 0.554475 -0.280733 0.511714 0.692323 0.508761
0.346568 0.592454 -0.323719 0.036151 -0.006777 0.999323
0.037854 -0.541405 -0.056426 0.031636 0.289995 -0.956505
0.056828 -0.497074 -0.085262 0.212075 0.931187 -0.296505
0.090540 -0.316248 -0.086871 0.186525 -0.689714 -0.699645
0.112851 -0.276202 -0.151182 0.967663 0.173873 0.182745
0.140390 -0.183436 -0.170127 0.545114 -0.538764 -0.642328
0.238790 0.138903 -0.201254 0.811987 0.576120 0.093616
0.334329 0.442789 -0.281919 0.550039 0.636100 0.541141
0.074994 -0.507441 -0.077429 0.332174 0.843217 -0.422664
0.100985 -0.397661 -0.127470 0.804615 0.492978 -0.331010
0.270488 0.059528 -0.246842 0.339924 -0.017170 0.940296
0.309979 0.207305 -0.281438 0.519731 -0.187717 0.833452
0.405052 0.557874 -0.392702 0.037439 0.082096 0.995921
0.152957 -0.333914 -0.196139 -0.787638 -0.343970 -0.511186
0.194613 -0.269532 -0.190861 0.061633 -0.469256 -0.880909
0.303963 0.063082 -0.272823 0.206539 0.006781 0.978415
0.136723 -0.470894 -0.182229 -0.067581 0.145339 -0.987071
0.431054 0.477013 -0.434480 0.396951 0.056701 0.916087
0.456484 0.367736 -0.431622 -0.174602 0.984453 -0.019133
0.521040 0.502813 -0.466789 0.032913 -0.234793 0.971488
0.229412 -0.489866 -0.269057 0.921974 0.059143 -0.382708
0.327068 -0.175554 -0.314757 -0.681294 0.684665 -0.258985
0.336631 -0.110408 -0.381908 -0.345697 0.795623 -0.497471
0.538159 0.487754 -0.509886 0.089997 0.069252 0.993531
0.248074 -0.563547 -0.287988 -0.131009 0.981206 -0.141676
0.297676 -0.422399 -0.320727 -0.236327 0.874585 0.423380
0.403346 -0.015491 -0.410535 -0.119454 0.989419 0.082347
0.448494 0.047870 -0.423717 -0.783392 0.620452 -0.036554
0.453635 0.121977 -0.429897 -0.696289 0.715409 -0.058065
0.565020 0.470407 -0.548353 0.140327 0.085058 0.986445
-0.380669 -0.283919 0.483727 -0.275920 -0.059012 -0.959367
-0.248903 0.140526 0.352785 0.720890 -0.653957 0.229473
-0.332916 -0.309852 0.438081 -0.218021 0.173216 -0.960449
-0.277360 -0.324384 0.411702 -0.001566 0.045921 -0.998944
-0.191317 -0.024714 0.313613 0.507638 -0.785697 -0.353532
-0.249250 -0.358214 0.344534 -0.043847 -0.070183 -0.996570
0.041547 0.509825 0.119742 0.814238 0.538026 0.218048
-0.142163 -0.276674 0.266157 -0.805811 -0.590779 0.040617
-0.068943 0.087430 0.175988 0.704600 -0.174862 -0.687723
0.043017 0.368812 0.102365 0.282593 -0.844612 -0.454721
-0.176864 -0.400371 0.262134 0.070506 -0.002746 -0.997508
-0.127610 -0.233239 0.187714 0.603512 0.656874 -0.451984
-0.079192 -0.144748 0.177265 0.699067 0.573322 -0.427326
0.028019 0.306803 0.098514 0.128967 -0.776047 -0.617348
0.042801 0.358016 0.096250 0.087107 0.233155 0.968530
-0.138751 -0.421680 0.222871 0.284695 0.170572 -0.943321
-0.035781 -0.071062 0.168579 -0.306354 -0.947452 0.092098
0.118855 0.490947 -0.025332 -0.161566 0.789521 0.592075
-0.134413 -0.432020 0.181678 -0.196122 -0.003979 -0.980571
-0.067161 -0.313711 0.173962 -0.501138 0.773427 -0.388163
0.099248 0.269144 0.009076 0.974934 0.163066 -0.151373
0.111122 0.351675 0.003270 0.945649 0.241131 0.218183
-0.011548 -0.203753 0.068076 -0.114830 -0.139547 -0.983535
0.054586 0.094029 0.018708 0.698279 0.281120 0.658315
0.097560 0.163329 -0.022864 0.256905 -0.966354 -0.012658
0.131234 0.247666 -0.048775 0.604825 -0.787638 0.117533
0.281418 0.629415 -0.170348 0.130279 0.037402 0.990772
0.077858 -0.261573 -0.023957 -0.179407 0.205720 -0.962025
0.155381 -0.031235 -0.090662 0.675870 0.435964 0.594251
0.269226 0.394144 -0.189734 0.880588 -0.472303 0.038663
0.319083 0.500994 -0.209152 -0.493670 -0.747707 0.444098
0.045378 -0.514422 -0.006387 -0.040284 0.293063 -0.955244
0.215799 0.078132 -0.144908 -0.132349 0.889691 -0.436960
0.253527 0.178928 -0.145466 0.440231 0.836692 0.325795
0.102017 -0.493500 -0.049181 -0.496604 0.843498 -0.204686
0.123980 -0.350272 -0.065528 -0.543085 -0.352669 -0.762026
0.202649 -0.188789 -0.100233 0.420580 -0.670130 -0.611587
0.212798 -0.063807 -0.151710 -0.319692 0.922341 0.216989
0.423119 0.569692 -0.309620 0.028381 -0.116586 0.992775
0.141332 -0.389680 -0.079377 0.728946 0.636841 0.251140
0.414756 0.408544 -0.282624 0.016448 0.262339 0.964836
0.437031 0.564656 -0.311241 0.113246 -0.218687 0.969201
0.227038 -0.371248 -0.160898 -0.878819 0.148183 -0.453562
0.306417 -0.135517 -0.253173 0.402131 0.915353 -0.020473
0.289883 -0.370905 -0.209499 -0.216007 -0.279262 -0.935603
0.281091 -0.299539 -0.218183 0.025121 -0.409625 -0.911908
0.314264 -0.173663 -0.261831 0.531301 0.832839 -0.155235
0.380197 0.109938 -0.335075 0.837535 -0.046578 0.544395
0.497328 0.307225 -0.396273 -0.252042 0.098632 0.962677
0.530688 0.506836 -0.433035 -0.101564 -0.036508 0.994159
0.222680 -0.627752 -0.168017 0.139299 -0.044890 -0.989232
0.270328 -0.398730 -0.252207 0.193971 -0.575500 -0.794466
0.323367 -0.311935 -0.268825 -0.616172 0.780969 0.102075
0.431634 0.033671 -0.371343 0.269745 0.836783 0.476478
0.567862 0.485616 -0.473361 0.137657 0.060818 0.988611
0.405155 -0.103582 -0.361791 0.105535 0.937186 -0.332483
0.434869 -0.070216 -0.397517 -0.192772 0.977674 -0.083616
0.429434 -0.042525 -0.358446 -0.021322 0.954175 -0.298488
0.562867 0.479723 -0.508501 0.118552 0.032729 0.992408
0.639717 0.445781 -0.545815 0.159821 -0.011421 0.987080
0.445681 -0.246127 -0.388252 0.965996 -0.128404 0.224420
0.655320 0.395396 -0.545780 0.337999 -0.030016 0.940668
0.668620 0.426085 -0.592002 0.347416 -0.057188 0.935966
-0.278180 -0.331206 0.424598 -0.001566 0.045921 -0.998944
-0.243574 -0.316140 0.394834 -0.692489 0.359104 -0.625702
-0.155937 -0.267631 0.319516 0.586767 -0.690627 0.422776
-0.116327 -0.123099 0.322679 -0.588081 0.298562 -0.751679
-0.145356 -0.300402 0.339199 -0.832638 -0.068718 -0.549538
-0.104129 -0.204573 0.259036 0.572770 0.621301 -0.534715
-0.089657 -0.060859 0.233808 -0.604691 0.171310 -0.777819
0.026631 0.222964 0.169953 0.456185 -0.876288 -0.154965
-0.151795 -0.402079 0.293401 0.145719 0.042638 -0.988407
0.022058 0.165111 0.129541 0.650547 -0.757192 -0.058723
0.180381 0.699515 0.001356 0.548987 -0.300017 0.780130
0.064853 0.164505 0.096216 0.979785 -0.079949 -0.183385
0.079215 0.289993 0.086382 0.304342 0.822779 0.480011
0.019961 -0.119896 0.129587 0.253420 -0.792839 -0.554242
0.005987 -0.305610 0.134961 -0.319485 0.709317 -0.628330
0.133724 0.084662 0.036660 0.942699 0.331569 0.037167
0.118216 0.111815 0.076021 0.804920 0.280174 0.523075
0.151311 0.207245 0.035739 0.916646 -0.234763 0.323492
0.292047 0.662388 -0.084530 -0.004834 0.049242 0.998775
0.125334 0.001895 0.011718 0.080072 -0.851809 -0.517697
0.246491 0.415974 -0.070460 0.893100 0.449610 0.014924
0.263264 0.468376 -0.110769 0.329074 -0.924320 0.193242
0.339573 0.635456 -0.135168 -0.074159 0.088727 0.993291
-0.007996 -0.486658 0.125873 0.012189 0.055879 -0.998363
0.216468 0.159410 -0.031871 0.791713 0.042872 -0.609387
0.308460 0.405532 -0.117366 0.981286 0.190987 -0.024535
0.339730 0.572894 -0.156806 -0.399209 0.696523 0.596228
0.358095 0.626672 -0.146952 -0.217096 0.175326 0.960276
0.057640 -0.519033 0.078295 0.094870 0.038314 -0.994752
0.236067 0.082359 -0.087321 0.430581 0.887019 0.166725
0.280807 0.285417 -0.102481 0.397270 0.852002 0.340983
0.391850 0.603647 -0.200990 0.060721 0.324506 0.943933
0.144922 -0.290947 -0.026355 -0.248316 -0.708410 -0.660677
0.197609 -0.131038 -0.081023 -0.243192 0.826539 0.507633
0.265971 0.046431 -0.110720 0.086354 0.993234 -0.077651
0.337050 0.331002 -0.129146 0.334353 0.879094 -0.339707
0.400027 0.432184 -0.191378 -0.293440 -0.510927 0.807989
0.396721 0.537365 -0.205666 -0.641872 0.614327 0.458916
0.093169 -0.545191 0.012499 -0.148383 0.070827 -0.986390
0.227197 -0.142411 -0.063648 -0.474288 0.770667 0.425586
0.428011 0.459274 -0.218274 0.339894 0.893147 -0.294550
0.113754 -0.560466 -0.026182 -0.298498 0.195464 -0.934180
0.191586 -0.595634 -0.067646 -0.970370 0.116435 -0.211720
0.240297 -0.307531 -0.146757 0.246550 -0.423503 -0.871699
0.423258 0.253505 -0.245294 0.531338 0.781624 -0.326716
0.504658 0.530580 -0.363585 0.031117 0.007471 0.999488
0.207393 -0.534374 -0.088403 -0.803497 -0.168116 -0.571078
0.218720 -0.485451 -0.124882 -0.833561 -0.241100 -0.497038
0.370581 -0.007467 -0.254060 0.165681 0.510097 0.844009
0.388524 0.005638 -0.249948 0.268734 -0.053505 0.961727
0.490789 0.317145 -0.315511 0.750595 -0.362048 0.552746
0.515407 0.402166 -0.323459 -0.008092 0.956996 0.289988
0.261364 -0.600831 -0.127509 0.094961 0.169104 -0.981013
0.357299 -0.194210 -0.237850 0.953822 -0.148743 -0.260956
0.405935 -0.059922 -0.247854 0.886237 0.462374 -0.028169
0.425794 -0.002610 -0.298846 0.903727 0.421362 -0.075715
0.595667 0.491719 -0.401566 0.106321 0.085247 0.990671
0.284663 -0.647619 -0.163285 0.689735 0.634016 0.349699
0.467736 0.068473 -0.335801 0.899963 0.075230 0.429427
0.612362 0.479483 -0.428822 0.176426 0.231460 0.956713
0.435542 -0.260944 -0.303103 0.985493 -0.164580 -0.041434
0.443449 -0.127963 -0.301356 0.924214 0.380172 -0.036028
0.619816 0.429090 -0.468689 0.282860 0.183822 0.941382
0.623728 0.465248 -0.480498 0.164366 0.152577 0.974528
0.596680 0.259983 -0.467159 -0.595135 -0.354674 0.721125
0.663825 0.435714 -0.528940 0.337999 -0.030016 0.940668
0.531414 -0.332546 -0.400169 0.981821 -0.173477 0.077033
0.753203 0.387130 -0.640464 0.348226 -0.062491 0.935326
-0.347092 -0.270097 0.600336 -0.316261 0.008658 -0.948633
-0.235481 -0.334990 0.473809 0.050077 -0.092660 -0.994438
-0.184630 -0.295874 0.407343 0.904867 -0.326329 0.273361
-0.166949 -0.381131 0.366903 0.084145 -0.310239 -0.946927
-0.146272 -0.386743 0.373192 0.084145 -0.310239 -0.946927
-0.120455 -0.333504 0.334149 0.567812 -0.785877 0.244925
-0.053049 -0.200894 0.302661 0.908525 -0.371738 -0.190771
-0.032606 -0.173675 0.262005 -0.080733 -0.950856 -0.298923
0.005786 -0.105352 0.244988 0.346651 -0.603574 0.718005
0.073389 0.204202 0.154879 0.913382 -0.373413 -0.162163
0.105725 0.357203 0.140888 0.507540 -0.770805 0.385048
-0.047095 -0.374859 0.290058 0.772838 -0.234878 -0.589537
0.000701 -0.158273 0.207908 -0.456554 0.218496 -0.862449
0.084177 0.055476 0.149523 0.721512 -0.519370 0.457904
0.075084 0.095940 0.138391 0.648699 0.083797 0.756418
0.132801 0.278311 0.146664 0.774295 -0.598334 -0.206065
-0.028292 -0.364426 0.247915 0.044671 -0.535990 -0.843042
0.009027 -0.318790 0.231251 0.528831 0.644653 -0.552052
0.091041 -0.008687 0.163424 0.286230 -0.945409 0.155802
0.195478 0.379981 0.044276 0.599788 -0.564463 0.567129
0.348009 0.647601 -0.065628 0.578363 -0.331208 0.745518
0.015126 -0.473090 0.193859 0.081659 -0.189839 -0.978414
0.059063 -0.308897 0.144118 -0.856054 0.170530 -0.487946
0.214647 0.188791 0.013724 0.607603 -0.793653 0.030554
0.265437 0.382275 -0.045367 0.785962 0.208242 0.582150
0.323851 0.519332 -0.045903 -0.313135 0.940156 0.134362
0.383508 0.630899 -0.087615 0.367481 0.007091 0.930004
0.075668 -0.461606 0.143893 0.962481 0.263636 0.064237
0.167570 -0.106017 0.063431 0.929637 0.344592 0.130506
0.184775 -0.036642 0.029445 0.720126 -0.342497 -0.603419
0.394384 0.618331 -0.128906 -0.221494 0.188129 0.956843
0.177851 -0.208481 0.061265 0.881761 0.469692 0.043436
0.371353 0.470495 -0.134239 0.711244 -0.373901 0.595256
0.414190 0.602713 -0.170388 -0.174743 0.287011 0.941854
0.152775 -0.502429 0.067192 0.490806 0.318730 -0.810877
0.159623 -0.317064 0.022287 -0.009739 -0.686871 -0.726714
0.147743 -0.530266 0.059741 0.490806 0.318730 -0.810877
0.267850 -0.086595 -0.065195 -0.526255 0.754390 0.392367
0.281078 -0.087438 -0.066483 -0.526255 0.754390 0.392367
0.386109 0.137198 -0.125017 0.752383 -0.658257 0.024848
0.458102 0.513822 -0.196738 0.618050 0.738627 0.269155
0.180917 -0.579510 -0.009527 -0.212223 0.062991 -0.975189
0.206816 -0.435474 0.002882 0.763500 0.571105 0.301508
0.281602 -0.219942 -0.072724 0.831563 -0.357934 -0.424718
0.319912 -0.111185 -0.078208 0.746744 -0.476090 -0.464448
0.460455 0.316271 -0.225433 0.983067 0.078299 0.165679
0.291768 -0.263221 -0.114351 0.822537 -0.180555 -0.539289
0.394833 0.081298 -0.165515 0.784867 0.347738 -0.512896
0.439505 0.180164 -0.201265 0.466315 0.881429 0.075060
0.450880 0.212014 -0.203969 0.067687 0.939416 -0.336031
0.545024 0.528601 -0.303237 0.539934 -0.115202 0.833787
0.359716 -0.149126 -0.166162 0.851386 0.496752 -0.168462
0.529760 0.343034 -0.292635 0.874778 0.314385 -0.368680
0.261362 -0.566683 -0.105825 -0.813627 -0.239472 -0.529777
0.407962 -0.136770 -0.240368 0.996427 0.083651 -0.011681
0.557380 0.339867 -0.322986 -0.748414 -0.059542 0.660554
0.366228 -0.428443 -0.194594 0.924472 0.355414 0.137960
0.509847 -0.042402 -0.328076 -0.934007 0.353278 0.053152
0.615168 0.342541 -0.398244 0.988855 0.141411 -0.046568
0.563254 -0.044917 -0.348906 -0.782875 0.590370 -0.196394
0.565789 -0.037576 -0.399893 -0.703310 0.699135 -0.128708
0.589918 0.041721 -0.415794 -0.606628 0.793494 -0.048684
0.743267 0.349565 -0.524474 0.618574 -0.155090 0.770269
0.751707 0.412417 -0.525493 0.394503 0.014555 0.918779
-0.071426 -0.140050 0.408962 0.818252 -0.574814 0.007224
-0.114494 -0.391818 0.399340 0.897906 -0.360969 -0.251924
-0.036946 -0.149446 0.315241 -0.703376 -0.127903 -0.699216
-0.084832 -0.408158 0.369906 0.956781 -0.290046 -0.021040
-0.024723 -0.294531 0.348121 0.918705 -0.388691 -0.070000
-0.016006 -0.444481 0.309014 0.455836 0.216294 -0.863383
0.035762 -0.381265 0.279218 0.973959 0.176334 -0.142516
0.113378 -0.061488 0.196136 0.903282 -0.089178 -0.419677
0.163217 0.051247 0.168099 0.785536 0.176020 0.593253
0.244107 0.329398 0.113662 0.967789 -0.244917 -0.058316
0.005935 -0.462954 0.257607 0.539648 -0.231496 -0.809438
0.085968 -0.298807 0.209543 0.749199 0.652553 -0.113472
0.087837 -0.226489 0.177896 0.970489 0.040325 0.237751
0.090313 -0.510141 0.170627 0.278739 0.040116 -0.959529
0.272412 0.156298 0.010566 0.918970 -0.012103 -0.394141
0.330750 0.269390 -0.017308 0.840901 0.540673 -0.023635
0.319831 0.315121 -0.015903 0.914963 0.333776 0.226797
0.215325 -0.334223 0.050805 0.990862 0.107597 0.081330
0.294677 -0.010078 -0.023487 0.668556 -0.723252 -0.173029
0.480942 0.570720 -0.140504 0.561733 0.446980 0.696179
0.380463 0.115246 -0.109160 0.967267 -0.189947 -0.168268
0.455172 0.439448 -0.159926 0.615094 0.692974 0.376095
0.448686 0.231854 -0.150430 0.984139 -0.017713 0.176513
0.376762 -0.139235 -0.099275 0.972676 0.228784 -0.039501
0.421335 0.018984 -0.170325 0.875151 0.102504 -0.472867
0.559981 0.481465 -0.272687 0.975607 -0.116815 0.185866
0.607935 0.503046 -0.329841 0.704132 0.142984 0.695524
0.685147 0.403700 -0.428067 0.788865 -0.023214 0.614128
0.021438 -0.268048 0.323050 0.960231 -0.279060 0.009091
0.188669 0.060625 0.183998 0.785536 0.176020 0.593253
0.174912 -0.010561 0.179403 0.714473 0.456899 0.529879
0.431459 0.537894 -0.046955 0.970093 -0.223129 0.095567
0.461218 0.479077 -0.101639 0.932037 0.337049 -0.133057
