ply
format ascii 1.0
element vertex 661
property float x
property float y
property float z
property float nx
property float ny
property float nz
end_header
-0.327950 -0.889784 0.605896 -0.053875 0.789116 -0.611877
-0.288624 -0.862249 0.599782 -0.218899 0.265985 -0.938795
-0.281912 -0.857088 0.531293 -0.254590 0.851597 -0.458220
-0.272459 -0.780472 0.583301 -0.209397 -0.121367 -0.970270
-0.248998 -0.815611 0.563092 -0.218899 0.265985 -0.938795
-0.244883 -0.831162 0.525651 -0.207768 0.724478 -0.657240
-0.238252 -0.826340 0.498167 -0.512905 0.789178 -0.337825
-0.292245 -0.863478 0.409807 -0.614363 -0.340872 0.711593
-0.261842 -0.716825 0.555647 -0.599060 -0.276652 0.751393
-0.251717 -0.769604 0.494308 -0.479899 -0.533414 0.696539
-0.158630 -0.771019 0.547875 -0.506988 0.784017 -0.358163
-0.196137 -0.797148 0.534710 -0.620743 0.538336 -0.569976
-0.239275 -0.826527 0.421181 -0.579412 0.813794 0.044953
-0.351205 -0.616094 0.519389 -0.765495 -0.302389 0.567960
-0.290270 -0.668435 0.547666 -0.336894 -0.123330 0.933430
-0.274545 -0.666969 0.499373 -0.513840 -0.608012 0.605219
-0.341458 -0.685411 0.405733 -0.975638 -0.092241 0.199052
-0.268551 -0.705876 0.472138 -0.852983 0.504215 0.134861
-0.306414 -0.736254 0.408400 -0.610632 -0.450763 0.651108
-0.115356 -0.729088 0.527815 -0.288010 0.362925 0.886192
-0.241777 -0.773540 0.377520 -0.682770 -0.516764 -0.516508
-0.276306 -0.788270 0.314286 -0.291448 0.036856 0.955876
-0.203719 -0.801488 0.394526 -0.224570 0.965033 -0.135202
-0.216206 -0.809871 0.344180 -0.241917 0.836835 0.491104
-0.364054 -0.554232 0.566469 -0.891134 -0.442508 0.100336
-0.362515 -0.582144 0.550027 -0.901546 -0.418644 -0.109326
-0.262445 -0.583447 0.560102 -0.214117 -0.074123 -0.973992
-0.278075 -0.712594 0.406544 -0.871032 0.487334 0.061712
-0.179037 -0.723380 0.427423 -0.664008 -0.109460 -0.739670
-0.143441 -0.759536 0.421948 -0.703269 0.644611 -0.299815
-0.162438 -0.772484 0.373362 -0.643090 0.559147 -0.523250
-0.546162 -0.358725 0.588419 -0.488414 0.158615 0.858075
-0.432822 -0.472916 0.566540 -0.366966 -0.929996 -0.021040
-0.417261 -0.459904 0.511229 -0.325197 -0.945134 0.031138
-0.323420 -0.514868 0.555073 -0.256400 -0.525526 -0.811222
-0.365684 -0.516711 0.562907 0.075822 -0.494916 -0.865627
-0.393122 -0.520705 0.484751 -0.746792 -0.064408 0.661932
-0.422756 -0.495303 0.452928 -0.387114 -0.320311 0.864606
-0.227651 -0.650358 0.448738 -0.160865 0.267380 -0.950069
-0.391051 -0.656807 0.282826 -0.460316 -0.278350 0.842989
-0.184619 -0.657414 0.416122 -0.348363 -0.401542 -0.846999
-0.196877 -0.692849 0.390858 -0.749227 -0.442072 -0.493184
-0.235559 -0.697889 0.323275 -0.067186 0.417474 -0.906202
-0.101777 -0.710382 0.409048 -0.468324 -0.463997 0.751917
-0.228278 -0.723517 0.270159 -0.371731 0.687810 0.623485
-0.097457 -0.726975 0.361689 -0.688659 0.720092 -0.084941
-0.127034 -0.747498 0.339022 -0.704435 0.681375 0.198746
-0.151573 -0.764364 0.297084 -0.452624 0.887950 0.081705
-0.174356 -0.757101 0.216881 -0.634315 0.661581 0.399945
-0.421916 -0.429808 0.450660 -0.062510 -0.791598 0.607836
-0.389466 -0.451053 0.463366 -0.062510 -0.791598 0.607836
-0.238699 -0.487408 0.514397 -0.409954 0.101547 0.906436
-0.324455 -0.539577 0.418339 -0.970869 0.237858 -0.028925
-0.367725 -0.537217 0.368442 -0.733689 0.576425 -0.359771
-0.358158 -0.567594 0.291453 -0.352261 -0.073093 -0.933043
-0.213728 -0.592935 0.404423 -0.576278 -0.746967 -0.331578
-0.248637 -0.594498 0.410025 -0.756070 -0.603929 -0.252244
-0.265462 -0.597880 0.324219 -0.793684 -0.549464 0.261065
-0.336291 -0.586791 0.274617 -0.570296 0.047656 -0.820056
-0.135407 -0.607613 0.436056 -0.218757 -0.057934 -0.974058
-0.298221 -0.643599 0.214088 -0.359352 0.233027 -0.903639
-0.279898 -0.693043 0.181330 0.018687 0.506914 0.861794
-0.177750 -0.694455 0.284085 -0.899055 0.359012 0.250619
-0.084336 -0.717373 0.298839 -0.743827 0.636730 0.203216
-0.153224 -0.722400 0.264811 -0.638741 0.735282 0.226652
-0.124466 -0.744864 0.216783 -0.686010 0.719018 0.111370
-0.564738 -0.302472 0.453064 -0.384578 -0.382944 0.839913
-0.359766 -0.406068 0.503878 -0.753138 0.639314 -0.155114
-0.371580 -0.416776 0.488319 -0.753138 0.639314 -0.155114
-0.419524 -0.433467 0.424675 -0.280227 0.929848 -0.238446
-0.281172 -0.433566 0.465292 -0.945335 -0.123038 -0.301999
-0.349513 -0.450409 0.409721 -0.537749 0.178109 0.824077
-0.204742 -0.461011 0.478369 -0.301682 -0.067268 -0.951033
-0.243516 -0.482313 0.446126 -0.959253 -0.209735 -0.189327
-0.272697 -0.516236 0.395353 -0.969538 -0.178079 -0.168178
-0.287391 -0.502992 0.367373 -0.772516 -0.413377 0.482015
-0.368855 -0.527108 0.308048 -0.183812 0.120276 0.975575
-0.187859 -0.525395 0.458448 -0.827726 -0.037262 -0.559894
-0.342689 -0.536548 0.242153 0.071848 0.194767 0.978215
-0.172518 -0.534156 0.420491 -0.363356 -0.092372 -0.927060
-0.269401 -0.549728 0.298224 -0.936351 0.336648 0.099571
-0.283041 -0.616632 0.221156 -0.470336 0.205956 -0.858118
-0.239254 -0.613109 0.216022 -0.357138 0.177029 -0.917122
-0.272533 -0.649152 0.187942 0.047180 -0.128539 0.990582
-0.147195 -0.659839 0.226436 -0.236146 0.480709 0.844484
-0.219580 -0.676856 0.151321 0.174949 0.411882 0.894285
-0.066653 -0.704859 0.276565 -0.484422 0.874501 0.024158
-0.084231 -0.716595 0.196050 -0.292196 0.848646 0.440932
-0.472067 -0.290069 0.485080 0.192263 -0.640830 -0.743217
-0.444920 -0.306075 0.451602 -0.413094 -0.504498 -0.758179
-0.342935 -0.344726 0.490880 -0.406354 -0.573374 -0.711420
-0.397973 -0.392109 0.402239 -0.521615 -0.613390 0.593018
-0.280410 -0.409468 0.470496 -0.039427 -0.407862 -0.912192
-0.401780 -0.407134 0.327791 -0.322175 -0.572390 0.754037
-0.349893 -0.423136 0.370294 -0.575902 0.191258 0.794832
-0.368947 -0.440685 0.276779 -0.390341 0.012555 0.920585
-0.373952 -0.463441 0.266717 -0.371797 0.029286 0.927852
-0.302404 -0.505270 0.285929 -0.423555 0.669204 0.610546
-0.322422 -0.494058 0.275596 0.046626 0.370421 0.927693
-0.154441 -0.514464 0.375021 -0.085587 0.591237 -0.801943
-0.281207 -0.548123 0.245001 -0.223951 0.084893 -0.970896
-0.118482 -0.541284 0.409914 -0.006111 0.355880 -0.934512
-0.250648 -0.548786 0.214455 -0.000518 -0.379090 0.925360
-0.077315 -0.589647 0.339688 0.365269 0.485569 -0.794230
-0.228142 -0.585348 0.181774 -0.289604 0.112794 -0.950477
-0.167264 -0.609812 0.150690 0.407436 0.633320 0.657953
0.005499 -0.654014 0.217648 0.280824 0.927905 -0.245217
-0.056618 -0.697151 0.175751 -0.246431 0.695749 0.674689
-0.025570 -0.675241 0.145729 -0.063003 0.649185 0.758017
-0.352529 -0.275310 0.459200 -0.614164 -0.572181 -0.543517
-0.434216 -0.331956 0.358230 -0.409165 -0.267131 0.872482
-0.473632 -0.282990 0.324637 -0.745598 0.037970 0.665313
-0.382173 -0.396706 0.249622 -0.706946 0.106003 0.699278
-0.398820 -0.424278 0.225441 -0.706946 0.106003 0.699278
-0.399326 -0.396190 0.196431 -0.407077 -0.905995 -0.116021
-0.287673 -0.420620 0.350944 -0.460902 0.599742 -0.654125
-0.317231 -0.437548 0.235401 -0.366525 0.242585 0.898227
-0.196564 -0.464826 0.337008 -0.001227 0.585489 0.810679
-0.314287 -0.459123 0.252590 -0.069533 0.248165 0.966219
-0.232973 -0.478674 0.223139 0.103200 -0.026911 0.994296
-0.261343 -0.475204 0.221618 -0.029774 -0.033389 0.998999
-0.070472 -0.469439 0.367379 0.069927 0.996507 -0.045657
-0.121320 -0.496261 0.337300 0.263418 0.778681 -0.569445
-0.215174 -0.533329 0.184117 -0.264225 0.075484 -0.961503
-0.116875 -0.537587 0.280195 0.428251 0.614987 -0.662112
-0.131324 -0.541742 0.234200 -0.986935 -0.161050 -0.004590
-0.200876 -0.528430 0.172788 0.239515 0.126476 0.962620
-0.117741 -0.557100 0.201065 -0.940302 -0.261130 -0.218275
-0.145244 -0.559150 0.151959 0.175508 0.381242 0.907663
-0.162285 -0.554892 0.155054 -0.451637 -0.207482 -0.867741
-0.111032 -0.597760 0.171003 -0.906442 0.151130 -0.394363
-0.134374 -0.612410 0.148992 0.217841 0.717785 0.661309
-0.497429 -0.145360 0.435420 -0.917915 -0.385653 0.093294
-0.418726 -0.178461 0.453196 -0.895007 -0.246393 -0.371824
-0.470516 -0.203017 0.399960 -0.493720 -0.842112 0.216998
-0.525870 -0.215470 0.331488 -0.803137 -0.318610 0.503448
-0.384309 -0.204776 0.438880 -0.182812 -0.628848 -0.755731
-0.317872 -0.226052 0.477658 -0.315645 -0.445500 -0.837794
-0.358350 -0.249432 0.413327 -0.805196 -0.583488 0.105832
-0.387410 -0.260029 0.331847 -0.958020 -0.203425 -0.202029
-0.279050 -0.292819 0.451438 -0.118388 -0.363227 -0.924148
-0.365146 -0.307509 0.351929 -0.239640 -0.889172 0.389802
-0.383768 -0.283269 0.326874 -0.866432 0.160182 -0.472903
-0.429351 -0.305094 0.263311 -0.791227 -0.253315 0.556589
-0.261341 -0.312413 0.464145 -0.147315 -0.234483 -0.960893
-0.242221 -0.285084 0.437374 -0.118388 -0.363227 -0.924148
-0.349826 -0.331404 0.310753 -0.437530 0.186639 -0.879621
-0.443992 -0.346971 0.156723 0.146619 0.636755 0.756998
-0.201746 -0.334580 0.441913 -0.324372 0.156075 -0.932965
-0.262754 -0.356904 0.378638 -0.271950 0.840731 -0.468204
-0.353148 -0.376245 0.265297 -0.764532 -0.470922 0.440141
-0.370014 -0.400545 0.204395 -0.520549 0.420471 0.743124
-0.375874 -0.367042 0.175446 0.021086 0.851277 0.524292
-0.204579 -0.370241 0.330928 -0.237224 0.770479 0.591682
-0.089190 -0.405200 0.427393 0.549667 0.531645 -0.644375
-0.145075 -0.424248 0.358930 -0.657618 -0.701913 -0.273600
-0.240845 -0.409868 0.230151 -0.392804 -0.847267 -0.357553
-0.260564 -0.432656 0.190454 -0.438620 0.175894 0.881291
-0.295132 -0.408359 0.164326 -0.201213 0.010924 0.979487
-0.099580 -0.431597 0.342039 -0.689415 -0.499640 0.524468
-0.132745 -0.421915 0.300335 -0.457615 0.315970 0.831114
-0.246720 -0.456099 0.193762 -0.417218 0.129552 0.899525
-0.063086 -0.454383 0.329595 -0.666114 0.442863 0.600137
-0.115327 -0.465629 0.255602 0.432654 0.828499 -0.355526
-0.176453 -0.495434 0.185927 0.114974 -0.002945 0.993364
-0.216865 -0.491807 0.178167 -0.254062 0.139293 0.957105
-0.149475 -0.493906 0.174138 0.088182 0.126115 0.988089
-0.168139 -0.485252 0.136126 -0.031074 0.235144 0.971464
-0.045265 -0.544792 0.228409 -0.530664 0.546795 -0.647619
-0.057961 -0.537376 0.206384 -0.616646 0.424104 -0.663237
-0.134685 -0.544008 0.164005 -0.154459 0.207082 0.966053
0.050562 -0.556717 0.297524 0.362473 0.530255 -0.766448
-0.085174 -0.555890 0.130234 0.334036 0.577586 0.744858
-0.025942 -0.594471 0.159085 0.413146 0.406213 0.815047
-0.560909 -0.040655 0.515589 -0.936810 -0.327244 -0.123687
-0.598321 -0.031339 0.447641 -0.809184 -0.332933 0.484126
-0.501397 -0.097434 0.501222 -0.324889 -0.246294 -0.913119
-0.488358 -0.092422 0.472521 -0.275301 0.058357 0.959585
-0.542097 -0.098464 0.374402 -0.759012 -0.163599 0.630188
-0.433984 -0.137586 0.424013 -0.441474 0.027146 -0.896863
-0.454043 -0.155127 0.373000 -0.269942 -0.897084 0.349818
-0.332863 -0.188113 0.479305 -0.016490 -0.337448 -0.941200
-0.437334 -0.212381 0.321979 -0.728884 -0.506993 0.460095
-0.300126 -0.238781 0.407464 0.078271 -0.405756 -0.910624
-0.469430 -0.281685 0.155132 0.445977 0.121243 0.886795
-0.389151 -0.300281 0.190727 0.165627 -0.374931 0.912137
-0.397923 -0.303406 0.149591 0.345892 0.523697 0.778524
-0.194248 -0.298432 0.433229 -0.935319 0.267342 -0.231747
-0.273357 -0.329123 0.274986 -0.894270 0.423325 0.145178
-0.339842 -0.322625 0.156974 0.233210 0.483397 0.843765
-0.399988 -0.339161 0.157625 0.152490 0.711391 0.686054
-0.264390 -0.347327 0.206909 -0.929269 -0.274139 0.247604
-0.296073 -0.368185 0.166360 0.041826 0.398961 0.916013
-0.117157 -0.358713 0.398589 -0.117809 0.211515 -0.970249
-0.276818 -0.363101 0.166914 -0.258157 0.228812 0.938616
-0.251855 -0.380273 0.140925 -0.049971 0.141168 0.988724
-0.097242 -0.400636 0.299293 0.463454 0.775538 -0.428663
-0.098342 -0.391046 0.278675 0.449777 0.886858 -0.105748
-0.218881 -0.422926 0.133237 -0.208646 0.445898 0.870426
-0.242092 -0.392672 0.138038 -0.181827 0.174674 0.967692
-0.045377 -0.425138 0.343759 -0.804451 0.284653 0.521374
-0.121454 -0.408499 0.229497 0.529357 0.793953 -0.299030
-0.153323 -0.435707 0.144339 -0.391834 0.071316 0.917268
-0.180690 -0.457590 0.123525 -0.417610 0.341301 0.842090
-0.005599 -0.463727 0.265824 -0.915725 -0.238136 0.323635
-0.065404 -0.496184 0.170650 -0.358345 0.828247 0.430808
-0.129464 -0.500764 0.132937 -0.117295 0.126229 0.985042
-0.130993 -0.496127 0.130347 -0.117295 0.126229 0.985042
-0.010143 -0.485263 0.182163 0.061660 0.631016 -0.773315
0.002987 -0.510683 0.141463 -0.176622 0.818679 -0.546414
-0.525350 0.020522 0.502832 0.223734 -0.796466 -0.561770
-0.588214 -0.022757 0.405484 -0.599119 -0.488793 0.634143
-0.485228 -0.041928 0.452647 0.116086 -0.103810 -0.987799
-0.542746 -0.056748 0.344404 -0.036062 -0.187342 0.981633
-0.421791 -0.078406 0.478880 -0.377145 -0.076316 -0.923005
-0.521474 -0.103182 0.355622 -0.701377 0.450145 0.552666
-0.543773 -0.088287 0.300384 -0.474855 -0.474612 0.741118
-0.561664 -0.138665 0.270974 -0.412791 -0.593269 0.691112
-0.425887 -0.120402 0.348854 -0.432321 -0.895273 0.107636
-0.510804 -0.133934 0.224099 -0.245528 -0.624060 -0.741798
-0.318377 -0.163794 0.424215 0.201244 -0.311407 -0.928723
-0.327742 -0.146318 0.383215 0.126811 0.034240 -0.991336
-0.463152 -0.150668 0.281811 -0.693690 -0.702055 0.160975
-0.509066 -0.169436 0.220666 0.542123 -0.204559 0.815020
-0.457952 -0.203964 0.235013 -0.708114 -0.316609 0.631137
-0.456354 -0.208499 0.168950 0.262999 -0.019467 0.964600
-0.416609 -0.220537 0.155002 0.396740 0.297139 0.868508
-0.385860 -0.280442 0.149691 0.373759 0.430349 0.821647
-0.283197 -0.275750 0.256192 -0.381862 0.919761 0.090672
-0.333850 -0.288182 0.153195 0.343432 0.395081 0.852036
-0.366972 -0.302091 0.152301 0.304752 0.436204 0.846672
-0.115935 -0.303881 0.370507 -0.641356 0.695682 -0.323557
-0.294429 -0.325489 0.150494 -0.219257 0.157903 0.962805
-0.116598 -0.328483 0.326114 -0.424640 0.625703 -0.654352
-0.142096 -0.334223 0.260391 -0.616202 -0.787532 -0.009361
-0.207932 -0.332489 0.246623 -0.220606 0.545933 0.808264
-0.247184 -0.374407 0.133278 -0.049971 0.141168 0.988724
-0.077512 -0.330848 0.265634 -0.095711 0.043435 -0.994461
-0.169831 -0.348010 0.168949 -0.786452 0.445940 -0.427354
-0.219376 -0.386423 0.141094 -0.618583 0.664776 0.418841
-0.218684 -0.382816 0.105688 -0.233467 0.226464 0.945625
-0.149490 -0.391694 0.142771 -0.954554 -0.179199 0.238147
-0.014187 -0.410111 0.205078 0.202807 0.399490 -0.894023
-0.126162 -0.437173 0.077530 -0.318767 0.224764 0.920798
-0.160469 -0.423157 0.077857 -0.479049 0.288392 0.829061
-0.067733 -0.448918 0.089898 -0.257621 0.769533 0.584337
0.020877 -0.475585 0.124752 -0.271022 0.556429 0.785451
0.032506 -0.499235 0.137532 -0.176158 0.310197 0.934209
-0.478231 0.000467 0.417871 0.705970 -0.521289 -0.479441
-0.532518 0.016392 0.374400 0.295114 -0.944250 0.145942
-0.549240 0.004844 0.353622 0.328114 -0.938609 0.106553
-0.561356 -0.003412 0.322306 0.228760 -0.661169 0.714510
-0.386308 -0.026663 0.447726 -0.000349 -0.342183 -0.939633
-0.421743 -0.060520 0.392895 -0.454742 -0.325560 0.828987
-0.484063 -0.072558 0.285577 -0.350410 -0.875703 0.332199
-0.344036 -0.099430 0.414084 -0.329968 0.028935 -0.943549
-0.492056 -0.112857 0.247691 -0.333480 -0.877676 -0.344204
-0.509824 -0.116287 0.218400 -0.333480 -0.877676 -0.344204
-0.340973 -0.115551 0.341427 0.833684 -0.525913 -0.168484
-0.452043 -0.115986 0.262273 0.055889 -0.992535 -0.108400
-0.475708 -0.112540 0.216368 -0.118430 0.092091 0.988683
-0.264173 -0.127748 0.362108 0.310587 -0.116508 -0.943378
-0.432000 -0.139700 0.175984 0.091323 -0.046287 0.994745
-0.272239 -0.151566 0.328303 0.513702 -0.410100 -0.753610
-0.349999 -0.168980 0.223463 0.748421 -0.454740 0.482782
-0.405748 -0.169037 0.152594 0.252248 0.310471 0.916504
-0.198378 -0.183510 0.308232 -0.979969 0.195089 -0.040022
-0.359867 -0.211628 0.154766 -0.657969 -0.545380 -0.519267
-0.374187 -0.233926 0.153057 0.445325 0.448894 0.774713
-0.236350 -0.224816 0.229881 -0.863963 0.128173 0.486969
-0.305382 -0.262734 0.153724 0.417587 0.411588 0.810071
-0.249338 -0.251312 0.142515 0.465127 0.180290 0.866690
-0.289817 -0.283233 0.149114 0.202447 0.301458 0.931739
-0.068058 -0.287148 0.336402 -0.321635 0.855221 -0.406383
-0.104503 -0.274384 0.298187 0.567592 0.744925 -0.350609
-0.112763 -0.253801 0.257221 -0.470741 -0.677605 -0.565026
-0.156120 -0.286722 0.233597 0.468438 0.872099 0.141454
-0.222258 -0.288030 0.112308 0.428684 -0.111179 0.896588
-0.232373 -0.334050 0.110632 0.059663 -0.061153 0.996344
-0.041809 -0.322922 0.280643 -0.095711 0.043435 -0.994461
-0.133969 -0.293348 0.187577 0.392825 0.718539 0.573925
-0.200552 -0.362325 0.078821 -0.249104 0.039524 0.967670
-0.158495 -0.365472 0.041319 -0.083306 0.238330 0.967605
-0.119396 -0.402910 0.044215 -0.127314 0.554267 0.822544
-0.118876 -0.396068 0.038837 -0.127314 0.554267 0.822544
-0.067859 -0.403460 0.043425 -0.137957 0.744877 0.652784
-0.003746 -0.438935 0.089705 -0.040981 0.670446 0.740826
-0.013374 -0.426563 0.075283 0.090751 0.855034 0.510569
0.042755 -0.452121 0.082413 -0.120773 0.267913 0.955843
-0.458473 0.060613 0.417688 0.495982 -0.821525 -0.281245
-0.483561 0.031537 0.377269 0.724366 -0.688997 -0.024016
-0.523850 0.022844 0.317177 0.744524 -0.627971 0.226575
-0.399113 0.013628 0.415451 0.250520 -0.588549 -0.768668
-0.535871 0.014856 0.256398 -0.031261 -0.672095 0.739805
-0.364551 -0.005812 0.443927 0.018088 0.116138 -0.993068
-0.464595 -0.030452 0.312269 -0.284847 -0.643762 -0.710235
-0.532415 -0.061294 0.210409 -0.435684 -0.414380 0.799043
-0.383507 -0.025131 0.329252 -0.643906 -0.633582 -0.428905
-0.420035 -0.032175 0.308637 -0.420202 -0.886217 -0.195065
-0.482625 -0.056974 0.215967 -0.540924 -0.669387 0.509237
-0.299248 -0.059309 0.378907 -0.172278 -0.382465 -0.907767
-0.446587 -0.090532 0.157928 0.014982 -0.047410 0.998763
-0.296845 -0.097403 0.320468 0.645894 -0.724974 -0.239234
-0.354685 -0.127805 0.255565 0.810538 -0.563642 -0.159174
-0.375396 -0.102724 0.242341 0.571826 -0.812826 -0.111034
-0.424888 -0.122321 0.174506 0.405394 -0.444788 0.798636
-0.226882 -0.126044 0.354661 -0.720918 0.218351 -0.657723
-0.248120 -0.137530 0.316367 0.356710 -0.362494 -0.861020
-0.365519 -0.158260 0.146443 -0.040085 0.358337 0.932731
-0.393605 -0.137208 0.139217 -0.116124 0.380056 0.917645
-0.294262 -0.150238 0.185868 0.348778 0.156207 0.924096
-0.338251 -0.169756 0.151814 -0.113149 -0.914082 -0.389424
-0.137167 -0.189424 0.346291 -0.696775 -0.254559 -0.670600
-0.265268 -0.191334 0.149116 0.412977 0.329877 0.848900
-0.024110 -0.214758 0.375176 0.087251 0.399060 -0.912764
-0.127082 -0.188868 0.253603 0.360128 0.105603 -0.926906
-0.149323 -0.205051 0.218508 -0.617089 -0.729143 -0.295890
-0.197447 -0.245601 0.187207 -0.847319 -0.501872 0.173708
-0.200203 -0.217797 0.131874 0.230730 -0.118453 0.965781
-0.109535 -0.216799 0.221598 -0.425835 -0.177394 -0.887241
-0.207506 -0.255620 0.114341 0.273453 -0.219069 0.936607
-0.035338 -0.276265 0.217931 0.233142 -0.208538 -0.949819
-0.013269 -0.278831 0.238340 0.190860 0.030694 -0.981137
-0.158694 -0.347193 0.038719 -0.011303 0.179580 0.983679
-0.083041 -0.345983 0.009471 0.107289 0.493119 0.863321
-0.129194 -0.328158 0.020616 0.241691 0.284126 0.927824
-0.003399 -0.377520 0.104807 0.623489 0.570262 0.534847
-0.020551 -0.379337 0.030575 0.031835 0.885659 0.463243
-0.055109 -0.371329 0.020714 0.028074 0.669797 0.742013
0.084682 -0.375887 0.111211 0.271136 0.539564 0.797092
0.013400 -0.394970 0.047006 0.210563 0.865407 0.454679
0.080668 -0.436496 0.072458 0.045575 0.357461 0.932816
0.105595 -0.454933 0.023480 0.188243 0.263068 0.946235
-0.462816 0.051179 0.364514 0.213244 -0.966595 0.142203
-0.448010 0.046879 0.319173 -0.641634 -0.291204 -0.709581
-0.491986 0.045216 0.303149 0.461558 -0.864418 0.199364
-0.516299 0.028825 0.214804 -0.092900 -0.797900 0.595588
-0.362923 0.017120 0.381667 0.104721 -0.781515 0.615035
-0.357455 0.037035 0.331605 -0.575954 -0.721440 -0.384449
-0.463814 0.001085 0.262184 -0.780954 -0.581546 0.227850
-0.517274 0.028457 0.169066 0.024074 -0.890321 0.454697
-0.347599 -0.000010 0.339741 0.270484 -0.961951 -0.038584
-0.367345 -0.037060 0.215935 0.325785 -0.153674 0.932871
-0.339053 -0.103511 0.204424 -0.272515 -0.386898 0.880934
-0.395075 -0.114312 0.124877 -0.154567 0.351176 0.923463
-0.218288 -0.109137 0.271893 0.167746 -0.272959 -0.947288
-0.247421 -0.056505 0.262319 -0.126582 -0.310152 -0.942222
-0.324730 -0.075794 0.171379 -0.454804 -0.078427 0.887132
-0.339653 -0.104944 0.114650 0.023676 0.787295 0.616122
-0.375631 -0.108353 0.116958 -0.010094 0.654377 0.756101
-0.128266 -0.102908 0.344834 0.006491 -0.843559 -0.536998
-0.188813 -0.125313 0.274160 0.020482 -0.345034 -0.938367
-0.291708 -0.151152 0.160688 0.132485 0.393109 0.909897
-0.325596 -0.131945 0.136947 0.064273 0.810812 0.581768
-0.055277 -0.150334 0.354647 0.066403 -0.340661 -0.937838
-0.230461 -0.169322 0.150891 -0.051757 0.232836 0.971138
-0.177643 -0.174899 0.121827 0.283206 -0.099374 0.953897
-0.217344 -0.194148 0.143826 0.241752 0.283563 0.927981
-0.048115 -0.191099 0.261156 0.171935 0.510867 -0.842291
-0.145712 -0.213119 0.078969 0.307215 -0.257892 0.916030
-0.027139 -0.239926 0.192402 0.528362 -0.016085 -0.848867
-0.124480 -0.251142 0.041874 0.820693 0.311050 0.479281
-0.039598 -0.252954 0.114717 0.023956 0.997883 -0.060465
-0.114673 -0.297125 0.018607 0.327704 0.241026 0.913519
-0.036143 -0.293680 0.089283 0.874045 0.179648 0.451411
-0.090442 -0.307098 0.008041 0.327704 0.241026 0.913519
0.021668 -0.358075 0.073486 0.327654 0.539814 0.775399
-0.042543 -0.348237 0.011020 0.317246 0.670125 0.671035
0.076729 -0.362068 0.074727 0.314617 0.737739 0.597291
-0.402130 0.107367 0.399821 0.647086 -0.300947 0.700508
-0.424101 0.082699 0.278878 0.535081 -0.833409 -0.138267
-0.485976 0.049991 0.219590 0.364807 -0.913581 0.179680
-0.326710 0.089953 0.396164 -0.078173 0.217950 -0.972824
-0.346259 0.055147 0.369819 0.279726 -0.260382 0.924097
-0.337569 0.076382 0.312095 -0.475367 -0.870229 0.129335
-0.449436 0.075603 0.209495 0.330173 -0.943036 0.040848
-0.488803 0.048523 0.145399 0.487340 -0.768110 0.415339
-0.283153 0.019789 0.339916 -0.204120 0.077884 -0.975843
-0.314890 -0.007422 0.232482 -0.531990 -0.808385 -0.251994
-0.413903 -0.032094 0.059547 -0.309734 0.207465 0.927913
-0.281200 -0.057988 0.122867 0.344323 -0.743713 -0.573003
-0.345104 -0.074743 0.084179 -0.127059 0.841470 0.525151
-0.159138 -0.050664 0.272688 -0.382796 -0.439827 -0.812416
-0.272688 -0.092834 0.122205 -0.189865 0.404891 0.894435
-0.282138 -0.101337 0.120035 -0.299452 0.467893 0.831507
-0.085007 -0.089845 0.318329 0.090853 -0.628291 -0.772656
-0.115187 -0.109454 0.275578 -0.510350 0.406655 -0.757743
-0.142791 -0.118475 0.243762 -0.817617 -0.228607 -0.528432
-0.149483 -0.098876 0.188763 0.798477 -0.529292 0.286853
-0.204319 -0.129469 0.133060 -0.091663 0.465297 0.880396
-0.240214 -0.125514 0.139682 -0.197211 0.379953 0.903739
-0.225707 -0.129466 0.080047 -0.199011 0.495332 0.845601
-0.106830 -0.169552 0.188516 0.398778 -0.395453 -0.827402
-0.181545 -0.141784 0.124493 0.016383 0.509885 0.860087
-0.117033 -0.168572 0.125196 0.952483 0.138617 0.271223
-0.139165 -0.209133 0.074374 0.307215 -0.257892 0.916030
-0.031913 -0.203087 0.173924 0.153425 0.290443 -0.944513
-0.134421 -0.207076 0.070656 0.413781 -0.221531 0.883012
0.016669 -0.217988 0.182062 0.044941 0.664592 -0.745854
-0.004952 -0.228796 0.141751 0.012688 0.810993 -0.584918
-0.108892 -0.238580 0.036019 0.811533 0.454712 0.366949
0.062274 -0.294784 0.053819 0.418412 0.600157 0.681721
0.085839 -0.326954 0.039553 0.390534 0.787537 0.476728
-0.338757 0.151798 0.381016 0.051278 -0.549732 0.833766
-0.368605 0.082541 0.246093 0.620344 -0.781365 -0.068131
-0.428832 0.088504 0.216227 0.355108 -0.933184 0.055375
-0.466270 0.064472 0.116836 0.487340 -0.768110 0.415339
-0.430530 0.089360 0.130721 0.448947 -0.886672 -0.110722
-0.335035 0.053772 0.169008 0.969420 -0.092834 0.227171
-0.408027 0.018068 0.118391 0.935726 0.049462 0.349242
-0.181858 0.050940 0.293568 0.850041 0.365924 -0.378853
-0.218183 0.009466 0.272162 0.044315 -0.334177 -0.941468
-0.375855 -0.033289 0.045574 -0.197012 0.365769 0.909615
-0.179373 -0.015029 0.244268 0.508820 -0.138301 0.849691
-0.322772 -0.052854 0.063600 -0.210397 0.814662 0.540425
-0.366302 -0.024820 0.037531 -0.178704 0.440728 0.879672
-0.072815 -0.021832 0.271767 0.047130 -0.705493 -0.707148
-0.128870 -0.027868 0.263612 -0.460188 -0.623182 -0.632354
-0.252809 -0.053471 0.075110 -0.226635 0.629090 0.743561
0.009836 -0.094623 0.267915 0.154022 0.450725 -0.879275
-0.025091 -0.093074 0.232939 -0.482583 0.384546 -0.786917
-0.071445 -0.069817 0.177971 0.563209 0.530772 -0.633306
-0.159217 -0.122306 0.101131 -0.024777 0.494416 0.868872
-0.166474 -0.089859 0.087167 0.336368 0.684603 0.646665
-0.057864 -0.116741 0.172465 0.470093 0.590709 0.655801
-0.114274 -0.110884 0.066921 0.323255 0.132057 0.937052
0.020720 -0.133722 0.184717 0.792393 0.396103 -0.463913
-0.021039 -0.148170 0.162545 0.445092 0.312737 -0.839100
-0.050753 -0.167267 0.045749 0.314968 -0.066157 0.946794
-0.000019 -0.173794 0.067106 -0.358630 0.852413 0.380494
0.117591 -0.256550 0.094070 0.277070 0.404634 -0.871495
0.052496 -0.269916 0.040893 -0.048320 0.069436 0.996415
-0.307334 0.174161 0.323457 0.234816 -0.970112 0.061188
-0.319842 0.165859 0.259272 0.684567 -0.564901 0.460711
-0.412766 0.101683 0.144542 0.432140 -0.897760 -0.085335
-0.227784 0.133986 0.325940 -0.847253 -0.316270 -0.426773
-0.240043 0.127553 0.281077 0.987373 0.158415 0.000087
-0.275899 0.113649 0.232609 0.965482 0.249509 0.074764
-0.317660 0.118555 0.199799 0.489655 -0.346209 0.800235
-0.433404 0.087476 0.112551 0.349281 -0.791369 0.501735
-0.292526 0.070355 0.206816 0.509034 0.060921 0.858588
-0.320374 0.045592 0.151854 0.812027 -0.272101 -0.516307
-0.186765 0.035711 0.248395 0.263485 -0.185579 -0.946645
-0.221894 0.078796 0.198241 0.847277 -0.330098 0.416122
-0.296504 0.052481 0.158336 -0.370899 -0.635311 0.677358
-0.139317 0.032169 0.266127 -0.541999 -0.419898 -0.727958
-0.146713 0.017427 0.245506 0.753596 -0.008481 0.657284
-0.247070 0.032399 0.119336 0.584884 -0.499965 0.638706
-0.348681 -0.008352 0.025190 -0.222347 0.544947 0.808452
-0.071382 0.027210 0.282433 -0.627451 -0.189983 -0.755124
-0.075654 0.032645 0.261518 -0.627451 -0.189983 -0.755124
-0.267086 -0.012491 0.035815 -0.078320 0.895609 0.437893
-0.281014 -0.010566 0.032445 0.122523 -0.881786 -0.455457
-0.046231 0.000851 0.271560 -0.426745 -0.303826 -0.851809
-0.112739 -0.021415 0.190415 0.692670 -0.499381 0.520410
-0.109330 -0.028789 0.127248 0.629394 0.752535 0.193790
-0.159779 -0.050080 0.105071 0.035856 0.870952 0.490058
-0.202569 -0.050461 0.068734 -0.197458 0.620470 0.758964
-0.078773 -0.045474 0.107851 0.957173 -0.273855 0.093937
-0.067637 -0.091300 0.034309 0.296788 0.073337 -0.952123
-0.028818 -0.129129 0.088318 0.807616 -0.431645 -0.401795
0.055700 -0.153605 0.101555 -0.493131 0.816914 0.299121
0.077040 -0.196426 -0.023367 0.002292 -0.001972 0.999995
-0.240017 0.221230 0.321831 -0.151172 -0.768709 -0.621477
-0.279901 0.193634 0.280594 -0.652972 -0.751651 0.092996
-0.302507 0.167856 0.266906 0.992317 0.089052 0.085890
-0.313241 0.170679 0.229181 0.838384 0.239909 -0.489445
-0.264500 0.143599 0.215861 0.825503 0.268247 -0.496576
-0.299939 0.154651 0.194409 -0.446172 -0.664554 0.599415
-0.357156 0.138344 0.098158 0.406751 -0.909766 0.082946
-0.355181 0.142435 0.072488 0.483946 -0.851552 0.201633
-0.135502 0.153651 0.295587 -0.343414 -0.148396 -0.927387
-0.185590 0.051954 0.135321 0.682424 0.727585 -0.070118
-0.297380 0.027950 0.011260 -0.022295 -0.943892 -0.329502
-0.019298 0.018570 0.245161 -0.351369 -0.245799 -0.903395
0.010335 -0.008072 0.240101 -0.366981 -0.033965 -0.929608
-0.033592 -0.029346 0.128567 0.098519 0.269065 -0.958070
0.070287 -0.012606 0.187312 0.095827 0.835000 -0.541842
-0.045091 -0.052802 0.010116 0.236680 0.223982 -0.945418
-0.012429 -0.097347 0.024868 -0.017579 0.331704 0.943220
0.088138 -0.102965 0.078446 -0.114438 -0.097053 -0.988678
0.046238 -0.129241 0.035891 -0.728477 0.652199 -0.209660
-0.009611 -0.125891 -0.008197 -0.088839 0.291919 0.952308
0.063983 -0.142022 -0.005124 -0.648814 0.740853 -0.173718
-0.198697 0.250210 0.308363 -0.019601 -0.238223 -0.971013
-0.174725 0.185273 0.283233 0.093199 0.073059 -0.992963
-0.226799 0.231010 0.243442 0.335424 -0.797891 0.500861
-0.284943 0.190914 0.163297 0.200075 -0.969131 0.144069
-0.348125 0.147291 0.083873 0.483946 -0.851552 0.201633
-0.167879 0.171691 0.230691 0.329860 -0.098638 0.938862
-0.304195 0.153845 0.122225 0.632595 -0.774417 -0.010105
-0.320513 0.166598 0.083207 0.617276 -0.775840 0.130544
-0.155233 0.127911 0.169711 0.256908 -0.279819 0.925040
-0.223205 0.142888 0.085773 0.698445 0.190315 0.689895
-0.039682 0.144798 0.268631 -0.231402 -0.479796 -0.846315
-0.127821 0.102533 0.190095 0.206320 0.377021 -0.902933
-0.159224 0.103945 0.124750 0.689064 -0.708118 -0.154143
-0.202699 0.078786 0.056272 0.342991 -0.914965 0.212594
-0.000891 0.080357 0.238110 -0.259553 -0.178273 -0.949132
-0.131203 0.080121 0.133272 0.597743 -0.325042 0.732838
-0.123883 0.079984 0.076552 0.817981 -0.573349 -0.046671
-0.182660 0.090643 0.025216 0.644320 -0.556597 -0.524455
-0.007204 -0.027143 0.073879 0.418344 0.138631 0.897647
-0.090736 -0.026710 0.009907 0.038590 -0.291544 0.955779
0.107591 -0.084468 0.007704 0.411132 0.319551 0.853732
0.107941 -0.106036 -0.002269 0.411132 0.319551 0.853732
0.200154 -0.179754 -0.082862 -0.022845 0.168137 -0.985499
-0.157035 0.263619 0.255126 0.169806 -0.649037 0.741564
-0.174056 0.235430 0.202260 -0.021958 -0.915823 0.400983
-0.246682 0.186339 0.119632 0.600969 -0.731948 0.321074
-0.243680 0.220265 0.089495 0.485925 -0.808102 0.332939
-0.296924 0.164869 0.046018 0.854362 -0.320529 0.409057
-0.063678 0.179393 0.261349 -0.161421 -0.526618 -0.834636
-0.196198 0.122110 0.046295 0.857959 -0.140062 -0.494256
-0.059573 0.125592 0.112924 0.483168 -0.637718 0.599887
0.081133 0.120510 0.223296 -0.405832 0.474903 -0.780876
-0.057701 0.067255 0.066673 0.047632 0.427708 0.902661
-0.129666 0.090975 -0.006751 -0.028487 0.437859 0.898592
0.066296 0.071803 0.125970 0.391222 0.712711 -0.582227
0.035201 0.036721 0.055064 0.605434 -0.625692 0.491893
-0.022438 0.031841 -0.045742 -0.112702 0.668638 0.734998
0.065214 -0.002213 0.031167 0.363956 0.429677 -0.826386
-0.145991 0.287229 0.283191 0.425856 -0.756116 0.496925
-0.138450 0.292971 0.214356 0.462466 -0.868883 0.176545
-0.165773 0.273858 0.216440 0.426369 -0.814701 0.393030
-0.200432 0.249952 0.169217 0.332257 -0.890964 0.309497
-0.131723 0.242536 0.207301 0.542281 -0.399008 0.739408
-0.167552 0.229880 0.140026 0.362311 -0.885069 0.292204
-0.160567 0.211587 0.070378 0.483571 -0.289740 0.825960
0.055096 0.189616 0.240331 0.195197 -0.303624 -0.932583
-0.106357 0.152825 -0.011410 0.247950 -0.352748 -0.902269
0.085419 0.135053 0.200747 -0.405832 0.474903 -0.780876
0.032324 0.156711 0.148796 0.973046 -0.183401 -0.139805
-0.122046 0.130395 -0.030463 0.370279 -0.733567 -0.569888
0.110544 0.114718 0.204103 0.047955 0.406703 -0.912301
0.109561 0.094013 0.105202 0.585252 -0.650893 0.483548
0.081925 0.010297 0.003671 -0.065334 0.078199 -0.994795
0.039716 0.035879 -0.048128 0.390485 -0.667430 -0.634081
-0.099191 0.320314 0.229426 0.415190 -0.909276 -0.028896
-0.058203 0.292569 0.208480 0.318897 -0.625080 0.712446
-0.132651 0.297367 0.164586 0.229097 -0.931321 0.283118
-0.133546 0.296983 0.129445 0.511229 -0.821016 0.254119
-0.167762 0.273331 0.090575 0.558101 -0.795949 0.234499
-0.034409 0.298717 0.227290 -0.174198 -0.470740 -0.864904
-0.053991 0.237878 0.175507 0.563402 0.123166 -0.816951
-0.152308 0.262454 0.078313 0.607404 -0.780398 0.148456
-0.183477 0.262693 0.039812 0.495999 -0.868104 -0.019485
-0.020106 0.201164 0.082752 0.132467 0.990955 -0.021486
0.062214 0.166717 0.125300 0.761798 0.480174 -0.434853
-0.062331 0.166475 0.018757 0.130279 -0.920633 0.368053
-0.094382 0.166192 -0.050713 0.474693 0.609010 0.635431
-0.015778 0.132103 -0.041583 0.323109 0.172043 0.930592
0.149879 0.162651 0.121957 0.887186 -0.167186 -0.430059
0.069089 0.100511 0.041010 0.115946 0.901748 -0.416422
0.040258 0.098268 -0.059351 0.152367 0.912239 0.380269
0.125919 0.101002 0.049044 -0.115528 0.860476 -0.496220
0.101464 0.075618 0.007030 0.104220 0.985523 -0.133723
0.167926 0.044917 -0.055115 -0.207003 0.316911 -0.925590
0.196020 -0.006232 -0.043844 0.011528 0.247603 -0.968793
-0.080516 0.333922 0.148660 0.426127 -0.804032 0.414666
-0.066927 0.308386 0.099429 0.266313 -0.845785 0.462305
-0.141379 0.292408 -0.001763 0.438993 -0.898223 0.021916
-0.182809 0.263623 -0.027561 -0.234291 -0.482743 0.843840
0.050871 0.294839 0.162851 0.702740 -0.362953 -0.611900
-0.058001 0.274071 0.105854 0.423470 0.183177 -0.887197
-0.073595 0.256712 0.053946 0.468579 0.570069 0.674874
-0.009687 0.234032 0.031461 0.378861 -0.863430 0.333096
0.092734 0.153858 0.004087 0.042389 0.996610 0.070514
0.032712 0.127386 -0.091180 0.183037 0.748713 0.637123
0.121979 0.118812 -0.011950 0.514008 0.499910 -0.697055
0.140489 0.074546 -0.080957 0.010042 0.488961 0.872248
-0.030184 0.368902 0.178623 0.457038 -0.754336 -0.471269
-0.023542 0.373712 0.154560 0.397953 -0.814185 -0.422772
-0.037430 0.364399 0.096868 0.243520 -0.855171 0.457581
-0.082457 0.333344 0.035506 0.117496 -0.992406 0.036412
-0.093825 0.325563 0.010934 0.203115 -0.978189 0.043485
-0.137390 0.295450 -0.038768 0.483613 -0.869995 -0.096060
-0.143968 0.291018 -0.062923 0.370266 -0.291093 0.882138
0.095490 0.305562 0.174143 0.543981 -0.482700 0.686356
0.055540 0.273379 0.084945 0.110132 -0.901325 0.418909
0.084631 0.264273 0.065034 0.134728 0.624462 -0.769348
-0.004361 0.230906 -0.021341 0.167370 -0.379498 0.909928
0.141801 0.210135 -0.014259 0.545131 0.079790 -0.834545
0.075288 0.188949 -0.087878 0.382968 0.839709 0.384999
0.147151 0.153490 -0.017605 0.419994 0.353104 -0.836016
0.204141 0.110042 -0.121194 0.070386 -0.163667 -0.984001
0.021594 0.397115 0.091552 0.516482 -0.856116 -0.017642
-0.029632 0.370286 0.033146 0.368847 -0.901316 0.227115
0.071301 0.367296 0.123736 -0.024176 -0.851931 -0.523096
-0.010465 0.337330 0.013747 0.454659 -0.790931 0.409528
-0.100788 0.321238 -0.067999 0.569158 -0.790688 0.225549
0.154584 0.342242 0.160219 0.129818 0.854369 -0.503191
0.076162 0.335984 0.085180 0.626590 0.193834 -0.754860
-0.020911 0.301062 -0.057650 0.242433 -0.325921 -0.913785
0.066991 0.206725 -0.120588 0.119869 0.193831 0.973684
0.122573 0.208935 -0.090367 0.339290 -0.579721 -0.740815
0.240601 0.131595 -0.131122 -0.001467 0.080491 -0.996754
0.080726 0.440066 0.118519 0.560457 0.527792 0.638219
0.000725 0.391376 0.052632 0.283601 -0.955375 -0.082635
0.073992 0.369100 0.076782 0.821189 0.043276 0.569013
0.023563 0.391412 0.018028 0.513136 -0.825340 -0.235595
-0.012280 0.382712 -0.009861 0.305912 -0.840941 0.446359
-0.050798 0.356250 -0.077499 0.391663 -0.891189 0.228873
0.108262 0.351144 0.044122 0.015163 -0.951426 0.307504
0.097951 0.340684 0.026195 0.053939 0.220584 -0.973875
0.073067 0.285108 -0.081293 0.334683 0.305007 -0.891604
0.223666 0.235587 -0.119359 0.123417 0.276240 0.953131
0.126733 0.478939 0.129254 0.219843 -0.486914 0.845330
0.089876 0.453530 0.077231 0.320899 -0.919706 0.226194
0.083591 0.449179 0.071012 0.320899 -0.919706 0.226194
0.073966 0.442935 0.000303 0.672214 -0.734384 0.093853
0.022444 0.407059 -0.020287 0.364596 -0.906545 0.212711
0.153525 0.403353 0.103040 0.558543 0.822324 -0.108689
0.133257 0.416546 0.045925 0.216378 0.742089 -0.634416
0.016741 0.403370 -0.063709 0.450741 -0.860591 0.237097
-0.008320 0.386270 -0.124871 0.162112 -0.366856 0.916044
0.167889 0.357488 -0.040688 0.546915 0.297725 -0.782460
0.096424 0.317135 -0.120378 0.407963 0.522810 0.748489
0.109451 0.286875 -0.161251 0.221561 0.333199 0.916455
0.241220 0.273161 -0.084998 0.008257 0.135485 -0.990745
0.217914 0.238858 -0.148852 0.406708 0.492857 0.769208
0.118583 0.453325 -0.017488 0.132058 -0.985911 0.102663
0.107479 0.455254 -0.039848 0.302529 -0.933112 -0.194366
0.053954 0.429407 -0.067005 0.471098 -0.850193 0.235029
0.056926 0.431992 -0.140777 0.462864 -0.490274 0.738505
0.146441 0.414994 -0.018493 0.315923 0.608093 -0.728297
0.068894 0.398049 -0.116265 0.773780 -0.137526 0.618346
0.172257 0.364781 -0.125365 0.709463 -0.379442 -0.593873
0.261976 0.311224 -0.124807 0.239638 0.227433 -0.943847
0.193541 0.331890 -0.159272 0.113344 0.619282 0.776944
0.150045 0.495840 0.041284 0.300044 -0.866706 0.398489
0.180668 0.517484 0.006657 0.210308 -0.956696 0.201252
0.151496 0.488814 -0.042740 0.170242 -0.923438 0.343918
0.117635 0.473424 -0.082171 0.226607 -0.971382 0.071182
0.064772 0.437472 -0.140099 0.462864 -0.490274 0.738505
0.246425 0.390790 -0.155094 0.348008 -0.022253 -0.937227
0.199235 0.530654 -0.020885 0.375935 -0.896030 0.236226
0.166665 0.508103 -0.052759 0.330192 -0.910405 0.249270
0.151647 0.498009 -0.111730 0.497714 -0.733043 0.463604
0.141734 0.491256 -0.137513 0.672529 -0.670996 0.312200
0.180961 0.432540 -0.195210 0.288351 -0.000798 -0.957525
0.259681 0.404050 -0.224879 0.201753 -0.010042 -0.979385
0.268894 0.373199 -0.202516 0.201753 -0.010042 -0.979385
0.297343 0.347915 -0.261370 0.155329 0.053333 -0.986422
0.271930 0.570974 0.024981 0.385852 -0.888826 0.247196
0.234770 0.555620 -0.039167 0.417019 -0.879590 0.228946
0.193999 0.527662 -0.118376 0.367201 -0.790969 0.489419
0.217609 0.477458 -0.186912 0.029062 0.292057 -0.955959
0.156306 0.502122 -0.236614 0.106200 -0.737571 0.666866
0.216034 0.464719 -0.180129 0.305055 0.116783 -0.945147
0.240825 0.560879 -0.188679 0.374379 -0.843659 0.384811
0.221331 0.547268 -0.190921 0.141050 -0.910362 0.389032
0.197137 0.530809 -0.257494 -0.046621 0.992119 -0.116305
0.260231 0.504554 -0.242136 0.115021 0.241235 -0.963626
0.273822 0.583691 -0.151164 0.319300 -0.829167 0.458836
0.234976 0.557158 -0.242496 0.296125 -0.947559 0.120176
0.249563 0.567637 -0.283137 0.602397 -0.723447 0.337256
0.304810 0.605615 -0.189270 0.616905 -0.721269 0.314958
0.322066 0.577683 -0.231280 0.616905 -0.721269 0.314958
0.264882 0.578399 -0.290864 0.616905 -0.721269 0.314958
0.316868 0.550485 -0.314187 0.616905 -0.721269 0.314958
