ply
format ascii 1.0
element vertex 200
property float x
property float y
property float z
end_header
0.245803 0.483574 0.005904
0.884901 0.479797 0.008446
-0.941990 -0.068755 0.008867
0.297949 0.801801 -0.007736
-0.061862 -0.506854 0.000875
0.147882 -0.973772 -0.005665
-0.441035 0.832691 0.005315
-0.680792 0.594294 -0.007225
0.234905 -0.746602 -0.009965
0.742809 -0.581087 -0.005690
0.964842 0.744816 -0.004214
0.922956 0.078447 0.003557
-0.590441 0.881952 0.003813
0.933129 0.787483 -0.004024
-0.277620 -0.668088 -0.007086
-0.869721 -0.397282 0.002062
-0.993234 0.355868 -0.003242
-0.380084 0.637036 -0.000385
-0.368414 -0.037563 0.004093
-0.885998 0.950199 -0.009543
0.499590 0.689762 -0.009639
0.575477 -0.267631 0.001570
-0.981843 -0.906546 -0.006382
0.910360 -0.606957 0.005115
0.859311 0.884088 -0.003112
-0.290414 0.049404 0.005512
-0.783894 0.496796 0.005945
0.719389 -0.926737 0.008916
-0.817640 -0.318519 0.002217
0.836174 -0.320081 0.008484
0.090288 -0.375099 -0.003664
-0.645044 -0.843608 -0.007023
0.378349 0.993454 -0.006769
-0.902896 0.973398 0.000671
-0.188224 -0.525327 0.001879
0.652591 -0.088670 -0.001565
-0.888586 0.832139 -0.009346
-0.012872 0.676859 -0.007389
0.463329 0.899597 0.002608
0.576019 -0.786739 -0.001309
-0.701509 0.689468 -0.004104
-0.093690 0.998600 0.007045
0.952015 -0.092920 -0.000237
0.459010 -0.041915 -0.004180
-0.192421 -0.706987 -0.002460
0.976775 0.919632 0.002539
-0.001355 -0.323042 -0.008217
-0.455380 0.564038 0.007348
-0.277348 0.572045 0.005498
0.389193 0.328037 0.005193
-0.273136 0.408939 -0.004383
-0.028630 0.539495 0.003818
-0.412296 0.891095 0.002994
0.161322 -0.976839 0.000940
-0.498615 0.343286 -0.000741
0.633359 0.294874 0.005953
-0.304231 0.288126 0.004757
0.656377 -0.299910 0.006858
0.739823 0.376674 0.009522
0.913033 0.036279 0.000587
-0.667655 0.673241 0.008748
-0.045522 0.382851 0.004394
0.460707 -0.656346 0.005607
0.161691 0.331112 -0.001584
0.247474 0.549409 0.002737
0.440829 -0.944756 -0.006800
-0.117863 0.300234 -0.005619
0.371914 0.261730 -0.009163
-0.056829 -0.547515 -0.008917
-0.732946 -0.365298 -0.006369
-0.613280 -0.928685 -0.000693
-0.239402 0.223588 0.001803
-0.524307 0.806365 -0.009987
-0.189249 -0.442944 -0.001799
-0.769851 0.662740 -0.002522
-0.927876 0.227128 -0.008104
0.090442 -0.321253 0.001618
0.916601 0.637044 -0.001618
0.625980 0.284593 -0.002611
-0.715775 0.191875 0.001277
0.914425 0.935994 0.002172
-0.297768 0.786934 -0.009981
-0.784163 0.131624 0.002303
-0.718599 0.258913 0.007826
-0.248303 -0.136632 -0.005473
-0.417011 0.944909 -0.002404
0.922278 0.827495 0.001916
-0.480351 0.961961 -0.000074
-0.169017 -0.361695 0.009686
-0.016491 -0.427203 -0.000461
-0.756228 0.243373 -0.001131
-0.413794 0.563413 0.006536
-0.973593 0.065129 -0.004524
0.870506 0.563814 -0.005087
-0.464623 -0.690469 0.009777
-0.413623 0.216075 -0.000507
0.289753 0.207707 0.004869
-0.763642 0.520797 -0.003986
0.066996 -0.327757 -0.004064
0.059735 -0.071327 -0.002779
0.490034 0.181609 -0.009271
-0.495154 -0.088773 0.008331
0.775881 0.091185 -0.009709
0.556765 -0.144537 0.001513
0.416362 0.264471 -0.000362
0.823431 -0.229054 -0.002163
0.703803 -0.607064 -0.004071
0.660047 -0.867891 0.006726
0.389243 -0.134360 -0.004273
0.561458 0.821351 -0.007146
-0.043175 0.098191 -0.000046
-0.338526 -0.692945 0.001717
0.623646 -0.863161 -0.005400
0.639187 0.583501 0.003272
-0.948893 0.445197 0.009574
0.996669 0.402496 -0.009022
0.684125 -0.561536 0.002915
0.904490 0.424887 -0.007307
-0.415014 0.835996 -0.007005
0.221224 -0.172128 -0.006776
0.244810 -0.912874 -0.007836
-0.241602 -0.855992 -0.008849
0.150511 0.484675 0.007569
-0.731334 -0.136659 -0.003709
0.200435 -0.020840 0.008771
-0.251604 -0.888498 0.003946
-0.697782 0.262692 0.000117
0.820845 0.109782 0.002418
-0.473507 0.103351 -0.004916
0.501157 0.033991 -0.007324
-0.531159 -0.257572 0.004735
-0.641359 0.426593 0.003100
-0.829513 0.335906 -0.008176
-0.750417 0.187949 -0.005228
0.753853 -0.039064 -0.003534
0.592927 -0.941078 0.004500
-0.892682 -0.698398 0.009041
0.362225 -0.553824 -0.007678
0.945395 0.330126 0.006412
-0.720470 0.249595 -0.002914
-0.529962 -0.333470 0.002275
-0.302657 -0.228504 -0.007271
0.662201 0.295779 0.006090
-0.133211 0.703152 0.000350
0.185254 0.146517 0.004803
-0.208980 -0.806002 -0.009337
-0.595185 -0.921094 0.007785
-0.038016 0.520695 -0.009991
-0.059627 0.779554 0.002389
-0.142710 -0.068853 -0.008005
-0.690653 -0.681918 -0.002507
-0.228685 0.760686 -0.006958
-0.491866 -0.445137 -0.006769
-0.425894 -0.529664 -0.000359
-0.935809 0.849040 -0.002621
0.875884 0.375428 0.003476
-0.056537 0.890809 -0.007642
0.337131 -0.417799 0.003489
0.458596 -0.673543 -0.005980
-0.950139 -0.539055 -0.008436
-0.197858 0.947188 -0.002715
-0.376321 -0.063926 -0.004337
0.464695 0.435857 -0.006733
-0.518934 0.344373 0.008810
0.291747 -0.138704 0.009509
-0.987455 -0.878266 0.005585
-0.179662 -0.910103 0.000968
0.979211 0.037880 -0.003000
-0.812371 -0.857563 0.007976
-0.017680 0.871472 -0.008925
-0.513073 -0.899085 -0.002054
-0.879723 -0.489140 -0.001851
-0.388102 -0.897318 -0.009248
0.943249 -0.641227 0.000173
-0.195285 0.062618 -0.008313
-0.372224 -0.784039 0.000839
0.842605 0.196573 0.007135
-0.571180 -0.965183 0.000793
-0.026920 0.142844 -0.002467
0.250199 0.451277 0.008260
-0.384778 -0.101916 0.006528
-0.552053 -0.768626 -0.003766
-0.824731 0.544810 0.006389
-0.374248 -0.740373 -0.008360
-0.510301 -0.831351 -0.001427
0.153966 -0.509227 -0.008771
0.401205 -0.903938 -0.006003
-0.427963 -0.252475 -0.008029
-0.158844 -0.372141 0.005046
0.112168 0.792180 0.003082
0.519437 0.149458 -0.001156
0.633601 0.310917 0.009095
0.456040 0.402353 -0.004646
0.624152 -0.235189 -0.007395
-0.868142 -0.661274 -0.004748
0.351793 -0.428958 -0.008730
0.527576 0.114450 -0.009451
-0.898739 -0.739764 -0.002857
0.719596 0.898439 0.002240
-0.537806 -0.142194 -0.002752
