ply
format ascii 1.0
element vertex 50
property float x
property float y
property float z
end_header
0.853862 0.337387 0.364849
0.988161 0.082316 0.703612
-0.970201 -0.343890 -0.264044
0.030860 0.730557 0.551464
0.065641 0.378894 -0.463820
0.304336 0.043418 -0.104212
-0.507151 0.985108 0.145700
0.705609 0.019296 0.497744
-0.090686 -0.558991 -0.970350
0.927737 0.484915 0.799829
-0.764151 -0.936976 0.920716
-0.269332 0.948402 -0.869483
-0.200354 -0.963594 0.495395
-0.174793 -0.571966 -0.020251
0.013452 -0.457371 0.471125
-0.465407 0.379310 -0.014435
-0.356548 0.232569 0.476987
-0.237067 0.064343 0.608949
0.519905 0.704675 -0.924594
-0.834025 -0.917155 0.488431
0.188835 -0.430948 -0.285867
0.914818 -0.211766 -0.425128
-0.007829 0.452559 -0.886852
0.639748 0.846209 -0.420765
-0.914740 0.486693 0.671525
-0.156592 0.647248 0.840636
-0.092060 -0.119665 0.694767
0.476736 -0.859360 -0.506643
-0.595854 -0.057959 -0.002998
-0.278054 -0.330215 -0.887358
-0.084355 0.178142 -0.374537
0.010558 -0.677842 -0.942728
0.079704 0.804323 -0.288931
0.191787 0.107694 0.469001
0.903834 -0.981765 -0.523010
-0.379620 -0.260781 -0.826456
-0.779032 0.404060 -0.126564
0.818200 -0.543024 0.682936
-0.843478 -0.091219 -0.545312
0.409576 -0.402726 0.859055
0.681080 -0.541179 0.785531
-0.224023 -0.307250 0.963044
0.723986 -0.113353 0.184641
0.042293 -0.463088 -0.057142
0.389203 0.290855 -0.608832
0.390511 0.309795 -0.977459
0.175404 -0.022742 -0.668193
-0.862191 0.905275 0.403557
0.749546 0.502348 0.001802
-0.290737 -0.348336 -0.128473
