ply
format ascii 1.0
element vertex 200
property float x
property float y
property float z
end_header
-0.731272 0.694867 0.005275
-0.489862 -0.009130 -0.001010
0.303186 0.577447 -0.008123
-0.943305 0.671530 -0.001345
0.524560 -0.995788 -0.001092
0.443080 -0.542476 0.008905
0.802855 -0.938820 -0.009491
0.082825 0.878298 -0.002376
-0.566801 -0.155767 -0.009419
-0.556617 -0.124225 -0.000084
-0.533831 -0.538267 -0.005624
-0.080793 -0.420437 -0.009570
0.675156 0.112909 0.002846
-0.628187 0.985087 0.007199
-0.758220 -0.334610 0.004430
0.422384 0.872881 -0.001558
0.660071 0.340611 -0.003933
0.175161 0.764958 0.006924
0.010568 0.178005 -0.009309
-0.514520 0.594808 -0.001714
-0.653985 0.097598 0.004061
0.348972 -0.250594 -0.001221
0.016853 0.556885 0.000419
-0.213490 -0.020613 -0.009409
-0.913025 0.406764 0.009664
0.186367 -0.212801 -0.006593
0.004477 0.964153 0.005410
0.079235 0.720580 -0.005356
0.027543 0.904935 0.001556
-0.081737 -0.461441 0.000960
0.914233 -0.988582 0.005673
0.640972 0.772359 0.004810
0.618280 0.037357 0.001227
-0.147819 -0.887753 0.007400
0.139999 -0.600321 0.000094
-0.030150 -0.286420 -0.003078
0.076958 0.246979 0.002249
-0.083706 -0.944050 -0.005408
-0.645577 0.168922 0.007220
0.596878 0.594195 0.006329
-0.489412 0.683490 0.003462
-0.833532 -0.966619 -0.009709
0.511174 -0.500882 -0.007810
0.249604 -0.311154 -0.008610
-0.680749 0.054761 -0.006637
-0.454171 0.423180 -0.000906
-0.355996 -0.052458 -0.009527
-0.226886 -0.158163 -0.006239
-0.782477 0.799637 0.000202
-0.581818 0.211297 0.006341
-0.958364 -0.964271 -0.007071
0.437671 -0.679545 0.004092
0.356352 0.089404 -0.005588
0.951189 0.595622 0.000332
-0.553608 0.297013 -0.002102
0.151692 -0.357508 0.002619
-0.882430 -0.402788 0.009358
0.751068 -0.387227 0.007170
-0.379273 0.878577 0.004877
-0.167655 -0.495284 -0.009830
0.757436 -0.924167 0.006388
0.924402 0.140561 -0.006570
0.735562 0.947550 0.004080
0.017747 -0.244062 -0.003061
-0.588476 0.348306 -0.001341
-0.611763 -0.791152 0.003319
-0.407855 -0.000400 -0.003493
0.743243 0.799357 -0.009638
-0.598294 -0.344519 0.009741
0.565401 -0.321809 -0.005739
0.348910 0.675402 0.008644
-0.312300 0.764786 0.003742
-0.031003 0.971016 -0.005307
0.450930 -0.830640 -0.006606
0.821976 -0.574064 0.005182
0.200418 0.682264 -0.002638
-0.319430 -0.417569 0.007348
0.207965 0.908615 0.007745
-0.729308 0.102341 -0.007915
-0.921724 -0.853613 0.007323
0.576233 0.657012 -0.003182
0.230372 0.563807 -0.002439
0.141563 -0.552572 -0.008365
-0.466553 0.781536 0.001289
0.850134 -0.084461 -0.004456
0.574029 0.655536 -0.009752
0.340823 -0.816634 -0.007698
0.770120 -0.919953 -0.005207
0.976317 -0.157973 -0.007689
-0.665233 -0.517159 0.004880
-0.794332 0.821529 -0.002434
0.940528 0.818445 -0.004120
-0.493180 -0.045980 -0.007997
0.304100 -0.920760 -0.009790
0.965167 -0.408900 0.001931
-0.100311 -0.373438 -0.008741
0.826784 0.939627 0.009396
-0.777275 -0.569613 0.002356
0.959906 0.085826 0.003764
0.323669 -0.481828 0.000832
-0.385358 -0.507238 -0.008373
-0.438427 0.966753 -0.001042
0.304021 0.286932 0.008815
-0.219043 -0.386431 -0.003455
-0.366530 0.694270 0.007870
-0.394381 -0.331333 0.000885
0.157971 0.191925 -0.005098
-0.959252 -0.512481 -0.008553
0.102410 -0.858167 -0.008497
0.270764 -0.418357 0.005844
-0.013478 0.725298 -0.006916
0.002859 0.589967 -0.008458
0.898456 -0.653516 0.005524
0.969792 0.643100 -0.003604
-0.786245 0.028717 0.008387
-0.413021 0.787518 -0.007166
0.820963 -0.936480 -0.003679
0.806177 0.607713 0.008143
0.681437 0.492370 0.003792
-0.643690 -0.134724 -0.006842
0.429649 0.335557 -0.004948
-0.871172 0.926772 0.006165
0.098540 0.082755 0.007026
-0.093381 -0.208579 -0.003227
-0.484062 -0.951183 0.002929
-0.166632 0.141207 -0.008754
-0.290113 -0.723432 -0.007497
-0.481774 0.657869 -0.002044
-0.197836 0.224890 -0.005329
-0.985046 0.057403 0.000018
0.297679 -0.123366 0.003730
0.462844 -0.523251 -0.000099
-0.042346 -0.549876 -0.001755
0.120815 0.813879 0.008354
-0.449549 0.292830 -0.009036
-0.856897 0.023383 0.007548
-0.681065 0.532056 0.007660
-0.376396 0.385114 0.006980
-0.256771 0.402565 0.004728
0.189156 0.712554 0.007932
0.920158 0.142465 -0.006474
-0.498809 -0.564763 0.001390
0.515500 -0.895734 0.003633
0.434307 -0.304037 0.000301
-0.670404 0.459792 -0.009186
0.962442 0.615887 0.002569
-0.464948 0.825726 0.009189
-0.721748 0.551515 0.006839
0.319435 0.400816 -0.001099
0.848616 0.942415 -0.002353
0.605423 -0.134157 -0.006705
-0.349065 -0.747340 0.008178
0.918848 -0.761627 0.002014
-0.183552 -0.763820 -0.004090
-0.503567 0.499154 -0.009920
-0.620323 -0.122454 -0.009579
0.255053 0.211255 0.006707
-0.586788 -0.430437 0.000847
-0.453549 0.171476 -0.004982
0.367054 0.582181 0.006173
0.947232 0.090754 -0.000184
0.711395 0.538135 0.001411
-0.233487 -0.431905 -0.007837
0.615098 -0.763857 0.004945
0.090574 0.929891 0.005221
0.947040 -0.726812 0.000007
0.145157 -0.377497 0.000061
-0.286362 0.056788 -0.009983
-0.115371 -0.100896 -0.003904
-0.201195 0.566175 0.003668
-0.015402 0.295336 -0.002449
-0.592172 -0.992249 -0.004448
0.196328 0.763326 0.006588
0.021920 0.974036 -0.000768
0.669187 -0.182069 0.004893
0.975183 -0.389327 -0.006594
0.240067 0.061912 -0.002812
-0.992962 -0.221675 -0.001483
-0.189496 0.722491 0.001689
0.467662 0.795818 0.004975
-0.014596 0.491537 0.002807
0.297491 0.259351 -0.001860
0.258524 0.267465 0.008742
0.564947 0.692536 0.005350
0.630652 0.210925 -0.003011
-0.470833 0.416040 0.007479
0.088494 -0.695860 0.006660
-0.030914 -0.065795 -0.009092
0.020562 0.489495 -0.001548
-0.289645 0.313687 -0.009605
0.014327 0.892254 0.003809
-0.196153 0.377816 0.002100
-0.582221 -0.584583 0.007721
-0.461862 -0.850230 0.006614
0.046396 -0.263584 0.000230
0.473451 -0.662893 0.003061
0.426874 0.630007 -0.004605
0.219333 -0.535772 0.001221
-0.655274 0.579535 0.007334
-0.340713 -0.555363 0.009276
