ply
format ascii 1.0
element vertex 200
property float x
property float y
property float z
end_header
-0.524071 0.088458 -0.002601
0.207840 0.251441 -0.008689
-0.973664 0.674938 -0.004813
-0.531338 0.991290 -0.000595
0.672923 -0.047294 0.002781
-0.698767 0.269721 0.007361
0.046362 0.482504 0.003428
-0.871937 0.516460 0.001822
-0.397465 -0.937976 0.007311
-0.054502 0.437648 0.007576
0.428259 0.842197 -0.002101
0.601818 -0.110758 0.008712
0.757733 -0.805091 -0.007281
-0.566026 0.930960 -0.001277
0.253297 -0.397948 0.000145
-0.228267 -0.298179 0.001701
0.168504 0.808404 0.003640
0.857891 0.712801 0.009820
0.342547 -0.673801 0.007213
0.929266 0.809392 0.001382
0.427634 -0.577750 0.006632
0.147065 -0.430085 -0.008731
0.707885 0.979612 -0.008230
0.601191 -0.179076 -0.006985
-0.412218 0.537584 0.007455
-0.911620 0.229065 -0.009101
0.436881 -0.338092 0.007618
0.961272 0.010841 0.009970
-0.380660 -0.846059 0.001995
-0.937244 -0.605230 -0.001841
0.220934 -0.687602 -0.009151
0.735558 -0.372339 0.009173
0.793319 -0.244422 -0.000792
0.040146 0.287777 0.001913
0.118522 0.240252 0.008812
0.014054 -0.137617 0.004406
-0.524729 -0.397826 0.009556
0.042255 0.096861 -0.009771
-0.169579 0.159930 -0.009599
0.231596 0.264361 -0.008798
0.254682 -0.067499 0.003586
-0.294846 0.413900 0.004761
-0.955635 -0.878846 0.003520
0.926611 -0.497755 -0.000874
0.185344 -0.359949 -0.002721
-0.374659 -0.261692 0.001912
-0.399192 -0.245679 0.005445
-0.946158 0.138516 0.004703
-0.379967 -0.554924 0.006076
-0.522610 -0.625211 -0.001295
0.396133 -0.796317 -0.003561
-0.332493 0.667078 -0.001231
0.711070 -0.661432 -0.003266
0.300465 0.769797 -0.000978
-0.549944 -0.758161 0.000593
-0.618392 0.613554 0.006770
-0.632827 -0.442816 0.006145
0.283875 0.612516 -0.003094
-0.740622 -0.416114 0.005877
-0.457651 -0.307291 -0.001662
-0.160458 -0.180956 0.008412
-0.688004 -0.990676 0.008865
0.759957 0.973827 -0.001313
0.900322 0.854754 -0.005558
0.491046 0.673397 0.003260
0.038030 -0.421916 -0.003179
-0.545067 -0.863865 0.001774
-0.425978 0.620384 -0.009098
0.807219 0.387411 0.008477
0.793134 0.799350 0.001539
-0.973711 0.490597 -0.006564
-0.400224 0.325792 0.000499
-0.172499 0.878085 0.002243
-0.317295 -0.495050 0.007233
-0.045605 0.564650 -0.002963
-0.605333 0.069274 0.006336
-0.657395 0.583344 0.008435
0.612102 0.646998 -0.009850
0.257214 0.725109 -0.009001
-0.457206 -0.462828 0.000545
-0.154032 -0.054200 0.005530
-0.996383 -0.890333 -0.007463
-0.750748 -0.863167 0.009494
0.708898 -0.827744 0.000042
-0.368208 -0.370840 -0.002974
0.293827 0.173226 -0.002783
-0.617836 -0.342447 -0.007525
0.111052 0.432086 -0.002395
-0.840198 -0.642888 -0.002535
0.208870 0.565244 -0.002395
0.602322 0.245853 -0.001368
-0.255160 -0.007697 0.004058
-0.158972 0.388246 -0.000783
-0.509833 0.071675 0.003903
-0.856838 -0.150223 -0.001483
0.759339 0.872968 -0.002515
0.795708 0.581834 -0.004756
-0.071714 -0.753708 0.006264
0.324579 0.774687 0.005849
0.335123 0.467470 0.001277
-0.793734 0.175518 -0.009902
-0.712963 0.548608 -0.009114
-0.816402 -0.801401 0.007609
-0.641693 -0.953025 0.006831
-0.757433 0.687887 0.003471
0.672364 0.904823 0.001582
0.597494 -0.927461 0.005348
0.022651 0.430316 -0.007865
0.497930 0.869125 -0.008777
-0.351506 0.127955 0.006561
-0.515748 -0.640455 -0.005001
0.231962 0.507087 -0.002125
-0.265057 -0.206721 -0.002994
-0.163565 -0.833479 0.000006
0.946113 -0.174337 0.004948
-0.678759 0.381676 0.005122
0.347712 0.034184 -0.000326
0.285906 0.794803 -0.007013
-0.808279 0.496310 0.008332
0.034508 -0.113893 0.004378
-0.627778 -0.465285 -0.006016
0.171235 -0.370305 -0.005354
0.382265 0.906851 -0.004083
0.410667 -0.173599 0.007073
0.169297 -0.465653 -0.005648
-0.953750 -0.041021 -0.002345
-0.655505 -0.279059 -0.003559
0.548409 -0.712780 0.009824
-0.040820 0.198001 -0.000639
0.669223 0.643230 0.001142
-0.037401 0.441418 0.007133
-0.199475 0.467177 0.009205
-0.065210 -0.540797 -0.005304
0.435377 0.350702 0.009174
0.707763 -0.515816 -0.006208
-0.482754 -0.625629 0.004095
0.717191 0.799520 -0.004900
0.730198 -0.373166 -0.001534
0.457937 -0.828149 -0.008147
0.667858 -0.416473 -0.002867
0.160600 0.351015 -0.009862
-0.330396 -0.127557 -0.000282
-0.579807 0.170211 0.009107
-0.218160 0.088713 -0.007616
-0.450478 0.330866 -0.007749
0.774378 0.817524 -0.008062
0.882575 -0.251553 0.005448
0.514647 -0.408932 0.003518
0.308157 0.612110 -0.004688
0.508379 0.922653 0.003457
0.072335 -0.773408 -0.000122
-0.295684 0.436187 0.003571
0.132783 -0.636040 0.002913
0.261769 -0.641791 0.007798
0.310743 -0.753738 0.008637
-0.717231 -0.336940 0.004410
0.194866 0.109848 0.002950
-0.084592 -0.375115 -0.006472
-0.862807 0.431671 0.005090
0.086270 0.479277 -0.002816
-0.468308 -0.233241 0.007451
-0.915778 0.009424 -0.005056
0.537803 -0.291781 -0.003343
-0.193322 0.082996 0.005434
-0.294231 0.693767 -0.007757
-0.459025 -0.800703 -0.007746
0.557966 0.454579 -0.006303
-0.621661 -0.166689 0.004866
0.631496 0.497401 0.001838
-0.707058 -0.203161 -0.006127
0.055202 0.136736 -0.005958
-0.499699 0.563326 -0.009398
0.606313 0.782400 0.008986
-0.233707 0.105213 0.001661
0.267284 0.953953 0.003733
-0.401193 0.720022 -0.000319
0.202728 0.453669 -0.009953
0.540913 0.323875 -0.000163
0.047279 -0.078933 -0.006131
0.059096 -0.925875 0.000009
0.291917 -0.111556 0.001320
0.918044 0.784101 -0.007288
0.584751 0.246556 -0.008988
-0.280198 -0.533172 -0.008443
0.077760 0.859645 -0.003538
0.741022 0.389319 -0.007313
0.716582 0.202252 0.008540
0.431904 0.479439 -0.003128
0.613361 0.863480 0.007229
-0.125951 0.513699 -0.000300
-0.781756 -0.914597 -0.008441
-0.599394 -0.678355 -0.000057
0.398556 0.074871 -0.001558
0.298485 -0.390700 -0.000712
0.514198 -0.197084 -0.006388
0.798823 0.439384 -0.002661
-0.258054 0.058662 0.001929
-0.552306 -0.994599 -0.005820
0.566361 -0.713046 -0.000800
-0.609401 -0.581425 -0.006585
