ply
format ascii 1.0
element vertex 200
property float x
property float y
property float z
end_header
-0.352334 -0.698302 0.003019
-0.855127 0.071764 -0.002686
-0.884002 0.014871 -0.009250
-0.132709 -0.860289 -0.008186
-0.150962 0.653704 -0.007524
-0.553522 0.254866 0.008954
0.154206 -0.206639 0.009525
-0.906835 0.716937 -0.004208
-0.711490 -0.764416 -0.003830
0.632253 -0.638547 0.001632
0.277827 -0.255205 0.000955
-0.874422 -0.880798 -0.005881
0.360800 -0.144815 -0.003717
0.171124 -0.093631 -0.004005
0.588759 0.397989 -0.005118
0.148847 0.050393 0.007503
0.458891 -0.424124 0.009603
-0.763868 -0.163754 0.005143
-0.696031 -0.022074 -0.009216
0.336432 0.529142 0.001461
0.750956 -0.372505 0.003906
0.188740 0.159790 -0.000876
0.679936 0.889362 -0.000518
0.328304 -0.878661 0.004030
0.294258 0.986192 0.006438
-0.430809 -0.228417 0.003373
-0.954874 -0.076609 -0.006639
-0.765808 -0.882091 0.005365
-0.741320 -0.504770 -0.002181
0.742844 -0.838837 -0.001016
0.098880 0.766768 0.006386
0.727969 -0.443158 -0.001694
-0.282458 0.768386 0.009155
-0.698158 -0.647565 -0.005361
-0.533328 -0.030075 0.001782
-0.474507 -0.991813 -0.001621
-0.261493 0.132682 0.009062
0.380987 0.030983 0.002352
0.352400 -0.892014 0.007991
0.559939 0.749026 0.005957
-0.215242 -0.202042 -0.007929
0.268579 -0.875504 -0.008653
-0.582474 -0.675394 -0.003199
-0.894849 -0.999533 -0.006975
-0.797071 -0.272780 -0.009490
0.748665 0.228138 -0.007029
-0.495484 -0.305221 -0.002717
-0.754316 0.697874 0.009862
-0.068021 -0.032331 -0.008282
-0.795625 -0.314728 -0.004705
0.657711 -0.677123 -0.009538
0.901971 0.056515 -0.007068
0.086345 -0.945915 0.000562
0.957002 0.726650 0.003924
-0.477770 -0.266600 -0.006659
0.543876 0.065185 0.005581
-0.340670 -0.553917 0.006230
0.969852 0.705258 0.006122
0.636666 0.479746 -0.005465
0.035277 -0.288875 -0.009420
-0.944126 -0.441163 -0.004817
0.385044 0.913030 -0.001055
0.874042 0.976076 0.009100
-0.270728 -0.559075 -0.005463
-0.606588 -0.591253 0.002481
0.800617 0.680871 -0.000411
0.305956 0.599287 -0.008304
0.321171 0.819554 0.005646
0.500281 -0.043935 -0.006430
0.578271 -0.334966 0.006016
0.943315 -0.208323 -0.001972
0.893594 0.449597 -0.006600
-0.745923 -0.697699 0.008097
0.613004 -0.707651 0.006530
0.960612 0.314537 -0.002992
0.097320 -0.738032 -0.009715
0.941780 0.299349 0.000532
0.867250 -0.132381 0.007435
0.652311 -0.577915 -0.004963
-0.414067 -0.518921 0.001729
-0.481270 -0.161975 -0.007379
0.820034 -0.292432 -0.000837
0.166698 0.808594 -0.001587
0.835442 0.003298 0.000636
0.047013 -0.962590 -0.001198
-0.633784 -0.992135 0.005983
-0.655307 -0.053014 0.004504
0.112951 -0.348036 0.000367
0.110884 0.568545 -0.007878
0.120592 -0.503011 -0.004462
0.544522 0.015428 0.001235
0.519986 0.824976 -0.001135
0.225056 0.011106 0.000243
0.385462 -0.095308 0.000666
-0.043927 0.883002 0.003984
0.753071 0.884361 -0.004808
0.119028 0.886534 0.006800
-0.725731 -0.756756 -0.001158
-0.854908 -0.518722 -0.008538
0.338944 0.567872 0.007941
-0.691107 0.432240 0.003205
-0.714042 0.765666 0.009351
-0.560824 0.905008 -0.002035
-0.025478 0.979743 0.006649
-0.677068 -0.136956 0.000312
-0.321768 -0.608511 -0.003629
0.444302 -0.961034 0.001081
-0.119084 -0.963836 -0.003370
0.247854 0.024525 -0.008714
0.970166 0.576726 0.009434
-0.790441 -0.468871 -0.009208
0.557995 -0.459108 -0.007409
-0.155492 0.822828 0.006380
-0.482782 -0.701264 0.008383
0.141190 0.400835 -0.008211
-0.884947 0.376411 -0.001494
-0.855172 0.876699 0.002689
0.603257 -0.832515 0.007125
-0.866755 0.725550 -0.000925
-0.321696 0.106128 0.008533
-0.464281 -0.741550 0.000538
-0.523128 -0.781097 -0.006771
-0.899241 -0.596464 -0.003760
-0.389989 0.518997 -0.004201
0.000177 -0.644200 -0.003060
-0.963674 -0.499102 -0.009693
0.466161 0.102098 -0.006211
-0.050479 0.869286 -0.007874
0.637840 -0.135645 -0.000100
0.669228 -0.213828 0.000134
0.375483 0.964881 -0.003146
0.664573 0.413451 0.002720
-0.190605 -0.304896 -0.008912
-0.740363 -0.858554 0.004818
-0.488812 -0.673507 -0.008310
0.682538 0.741076 0.003411
-0.436133 -0.515574 -0.004139
-0.081094 -0.684934 -0.001084
-0.473514 0.923573 0.009452
0.094147 -0.511107 0.009313
-0.380904 -0.286832 -0.009979
-0.236747 -0.050713 0.000055
-0.598040 0.009471 -0.009901
-0.471663 -0.820493 -0.002010
-0.916666 -0.955012 -0.003915
-0.534381 0.171167 0.000584
0.501081 0.315087 0.004320
0.758181 -0.220967 -0.003477
0.969458 -0.701074 0.004483
0.286439 -0.912424 0.006706
0.783885 0.254664 0.004677
0.624438 -0.721385 0.000475
0.008742 0.669875 0.006094
0.652818 0.168123 0.007857
0.365791 0.386652 -0.005401
-0.937679 -0.733814 -0.002786
-0.790167 0.671642 0.001171
0.255534 0.252453 0.003613
-0.021411 -0.993371 0.005954
0.496531 0.005942 0.000704
0.318599 -0.867899 0.004736
-0.495613 -0.851100 -0.004689
0.458670 -0.589565 0.004797
0.951470 -0.012102 -0.002349
-0.041980 0.367393 0.005339
0.233948 0.285526 -0.008451
-0.705150 -0.492119 0.004864
-0.391166 0.135523 -0.009751
-0.878678 -0.462454 0.003440
0.384370 0.351415 -0.004183
0.033071 -0.070674 -0.000673
-0.762994 0.787326 -0.006015
0.956251 0.872509 -0.009650
-0.082058 0.639795 0.009362
-0.101098 -0.462686 -0.005803
0.891175 -0.578582 0.001629
-0.716519 0.048131 0.009055
-0.734790 0.640434 0.000175
0.773724 0.406674 -0.005372
0.795411 -0.027719 -0.009503
-0.992819 -0.016608 -0.000985
-0.396098 -0.718586 -0.003121
-0.367844 0.680462 -0.009965
0.501468 0.678222 -0.007599
0.852798 0.426047 0.008031
-0.420334 -0.255556 -0.002142
0.997585 0.178353 -0.002786
-0.143894 -0.449689 -0.009035
-0.796580 0.669352 -0.004288
0.871180 -0.501351 -0.004685
0.021926 -0.620302 -0.002533
0.912331 0.768533 0.006239
0.261792 0.826848 0.008814
0.098456 0.439145 -0.009010
0.464705 -0.098279 0.005053
0.288981 -0.427583 -0.009020
0.853554 -0.745377 -0.000556
-0.312674 -0.404456 0.004781
0.952592 -0.479662 0.003120
-0.398327 0.114643 -0.002113
