ply
format ascii 1.0
element vertex 50
property float x
property float y
property float z
end_header
0.341903 -0.593949 -0.377632
-0.094655 0.763531 0.249486
0.055464 -0.971407 -0.804312
-0.305044 -0.314363 -0.931140
0.889607 -0.857587 -0.313314
-0.460179 -0.626086 -0.096396
0.173875 -0.411809 -0.864225
0.207585 0.207352 0.104652
-0.082539 -0.772799 -0.524866
-0.686194 -0.846876 0.209449
0.730037 0.696037 -0.974070
0.178168 -0.650612 0.240890
-0.082935 -0.054290 -0.707619
-0.749006 0.772250 -0.439660
0.834311 0.753140 0.391820
0.245882 -0.920016 -0.468797
0.954529 0.161890 0.300050
-0.524611 0.354041 -0.899486
-0.492288 0.937097 0.609510
-0.507747 0.786900 0.253667
-0.438625 -0.915488 0.246212
0.291616 -0.987959 -0.569092
-0.644532 0.570578 -0.626963
-0.551695 -0.609241 0.891315
0.797895 -0.175640 0.403501
0.590216 0.672674 -0.161271
-0.023836 -0.875840 -0.340812
-0.400306 -0.741733 0.567641
-0.963672 -0.868458 -0.440901
0.055143 -0.804837 0.395122
0.549380 -0.065692 -0.372278
-0.446940 -0.943348 0.313724
-0.257840 0.510814 0.476133
-0.365508 0.205650 -0.580648
0.889642 -0.248006 0.925969
-0.957132 0.804283 0.598581
-0.178372 -0.498268 0.831301
-0.734088 -0.414196 0.031749
-0.849352 -0.486599 0.062359
-0.748006 0.184528 0.698542
-0.017417 0.523130 0.118328
0.688853 -0.235912 0.315116
-0.437738 -0.394962 -0.659245
0.909830 -0.932993 0.535427
-0.168042 -0.979163 0.945547
0.180320 -0.545440 -0.178496
-0.784121 -0.541091 -0.701364
-0.223676 0.416019 0.420595
0.913530 -0.721967 0.825987
0.268103 -0.541727 0.266132
