ply
format ascii 1.0
element vertex 50
property float x
property float y
property float z
end_header
-0.128180 0.910133 -0.890176
-0.440857 -0.214774 -0.589541
0.530619 -0.420272 -0.945180
-0.504988 -0.839306 0.857874
0.382695 -0.038134 0.296731
-0.010633 -0.125050 0.428014
-0.211425 0.550704 -0.312069
-0.202529 0.493829 0.270374
-0.422431 0.513778 0.717973
-0.633780 0.695696 0.802905
-0.898180 -0.577472 0.953014
-0.759354 0.608505 -0.434692
-0.322637 0.008747 0.039859
0.376166 -0.434078 -0.771009
-0.779197 -0.494884 0.104893
0.339937 -0.019451 -0.384003
0.632845 0.125865 0.126627
0.385906 -0.228241 -0.959742
0.525557 0.045922 0.574031
0.191502 -0.180648 0.146894
-0.211111 -0.583186 -0.554513
0.529228 -0.858450 0.815261
0.012988 -0.050648 -0.322020
-0.485049 0.986234 -0.351631
-0.513947 -0.415690 -0.288868
-0.750223 0.596384 0.058856
0.333947 -0.392070 -0.821137
0.029710 0.625756 0.745861
0.875366 -0.218408 0.038623
0.424485 -0.414751 0.262169
0.033326 -0.264318 -0.107100
-0.729297 0.173130 0.087095
0.119696 -0.285905 0.824366
0.827563 -0.625958 0.618127
0.650854 -0.065310 -0.798592
0.802176 0.291129 0.834163
-0.624026 -0.223728 -0.566692
0.156977 0.877906 -0.413830
-0.988902 0.292398 -0.416893
-0.892174 -0.878452 0.943035
0.327219 0.101745 -0.859131
0.576046 -0.307499 0.954968
-0.479286 -0.207873 -0.030278
-0.503308 -0.995318 0.094930
0.303161 -0.024670 0.013810
-0.204711 -0.104838 0.857763
-0.042130 0.922616 -0.564812
-0.068604 -0.858922 0.713342
-0.164771 0.912895 0.638347
-0.691101 0.763619 0.565028
