ply
format ascii 1.0
element vertex 200
property float x
property float y
property float z
end_header
0.912069 0.895655 -0.008869
-0.830256 0.670998 0.004719
0.339461 -0.383727 0.002119
0.213603 0.162408 -0.006832
-0.138661 -0.212936 0.004460
0.989639 0.898791 0.000884
-0.110292 -0.463519 -0.009282
-0.945110 -0.070212 -0.003631
-0.239970 0.783579 0.000515
0.121021 -0.527753 -0.009523
-0.349714 -0.726605 0.000204
0.997367 0.348959 -0.006363
0.787143 0.593520 0.004688
0.813187 0.525771 0.005795
-0.292426 0.961953 0.009238
-0.677631 0.508008 0.004303
-0.077187 0.060711 -0.000200
0.849664 0.001682 0.006630
-0.292152 0.765702 0.007994
-0.077976 0.135410 0.008407
0.447546 -0.026783 -0.005564
-0.350666 0.399143 -0.006679
0.815881 -0.463725 0.008228
-0.380874 0.914723 0.004124
0.008498 0.035496 0.003028
0.175889 -0.376311 -0.005844
0.023783 0.868309 0.002465
-0.849249 0.640800 0.004519
0.815307 -0.617195 0.004896
-0.882482 0.305820 -0.004538
-0.546767 0.750982 -0.007875
0.044725 0.707886 -0.005103
-0.579042 0.761164 -0.001542
0.433922 -0.936254 -0.002753
-0.656238 0.345531 -0.008342
0.909124 -0.949311 0.004588
-0.957710 -0.488620 0.006267
-0.685763 -0.632522 0.003830
-0.228868 -0.913678 0.009800
-0.697160 -0.927462 -0.003116
0.230479 0.484919 -0.007738
-0.325572 -0.938378 -0.001027
0.531940 0.479893 0.008040
0.511324 0.724892 0.004107
-0.054441 -0.548945 0.003217
-0.367388 -0.795902 -0.001044
0.749526 -0.744927 0.001699
-0.214095 0.029605 -0.007123
0.919462 -0.481807 0.002122
-0.160489 -0.963934 0.001159
-0.718861 -0.886438 -0.009329
-0.677670 -0.808256 0.002702
0.016518 0.966932 0.008683
0.989050 -0.535052 -0.001106
-0.498438 0.182475 0.002483
0.600415 0.418997 -0.004868
-0.153966 0.052380 -0.009904
-0.929001 -0.182547 -0.007777
0.447539 -0.518269 -0.008005
-0.636480 -0.536949 -0.005653
0.041473 -0.071194 -0.003805
0.283518 -0.575101 0.008131
0.926233 0.457862 -0.001325
0.023003 0.162153 -0.008975
-0.163967 0.050129 -0.006375
-0.812426 0.605310 -0.002676
0.038419 0.842901 0.002210
-0.420838 0.967042 -0.002555
-0.961890 0.370621 -0.007977
-0.388155 0.681223 0.003451
-0.968556 -0.097153 -0.001787
-0.028274 -0.583506 0.001775
-0.852421 -0.431281 -0.002542
0.870541 -0.846904 0.005100
-0.615282 0.143105 -0.002164
-0.073551 0.507161 -0.002099
-0.756541 -0.756460 -0.008390
0.700142 0.281983 0.009193
0.385305 -0.950662 0.003183
0.554424 0.447037 -0.000041
-0.284831 -0.085929 0.005974
-0.462115 0.052607 -0.000449
0.909394 0.608700 0.008641
0.672011 -0.406473 -0.005367
-0.022421 -0.481189 -0.001447
0.358280 0.837160 0.001718
0.635707 -0.808105 -0.002879
0.995496 -0.706998 -0.001665
-0.866321 -0.827701 0.007910
0.977274 0.296164 -0.007430
-0.407235 -0.536601 0.003415
0.362198 -0.122308 0.000480
-0.775859 0.081786 0.008999
0.511555 -0.807691 0.000330
0.430730 -0.485479 0.007898
-0.078118 0.406462 -0.001917
0.990266 0.565631 0.001469
-0.710470 -0.117633 -0.009412
0.190328 0.763635 -0.006392
0.020343 -0.035083 -0.001902
0.420920 0.873340 0.004108
-0.055002 0.923955 -0.003385
0.491226 0.316970 0.005232
0.704146 -0.550002 0.002425
-0.194552 0.333944 0.009545
0.269662 -0.976788 -0.000709
0.423153 0.766442 0.003002
0.632140 -0.965725 0.008865
0.458927 0.212888 0.008106
0.769359 -0.799085 0.006312
0.534001 -0.600924 0.004885
0.172455 -0.617011 0.006084
-0.724254 0.224647 -0.001312
-0.492618 0.132189 -0.000658
-0.590005 0.933562 -0.008543
-0.993925 -0.029154 0.006744
0.316804 0.509339 -0.000300
0.349605 -0.330219 -0.004661
0.005801 -0.944944 -0.008404
0.507919 -0.652601 0.005005
0.568752 -0.191018 0.003500
0.574845 0.728048 -0.007303
-0.674860 -0.236673 -0.000707
-0.410362 -0.979200 0.001148
0.933828 -0.267081 0.000760
-0.235342 -0.114399 0.007410
-0.383139 0.298130 -0.000324
0.077138 0.829406 -0.008466
0.648741 -0.391661 0.002926
0.591682 0.306819 -0.002141
0.681410 -0.814102 0.002666
-0.217748 0.060932 0.007019
0.595730 0.257680 -0.003838
-0.534172 -0.084924 -0.005358
-0.445027 0.915509 -0.007761
0.637233 -0.241572 -0.002708
-0.363217 -0.845229 -0.000852
-0.667006 -0.115982 -0.004160
0.789146 0.843485 -0.001160
0.279240 0.859284 -0.003475
-0.800891 -0.524316 -0.006209
0.356941 -0.252423 -0.002878
0.590195 -0.533656 0.006171
0.265813 -0.199480 0.006470
-0.315494 0.757163 0.008519
0.005213 0.379967 0.008976
0.485120 0.502014 0.007386
0.871142 0.507069 0.009581
-0.416788 0.244972 0.003413
-0.265131 -0.209644 -0.006505
0.915425 -0.291993 -0.000467
0.787130 -0.627100 0.009213
-0.745889 -0.943941 -0.002984
-0.281650 0.835289 0.007664
0.523122 -0.127144 0.000854
-0.526461 0.667059 -0.002202
-0.430693 0.275612 -0.006988
-0.367299 0.852355 -0.008099
-0.715600 -0.591309 -0.004980
-0.159205 -0.499648 -0.003146
-0.507037 -0.519823 0.002212
-0.327084 -0.254422 0.005356
-0.876623 -0.711915 0.007016
-0.140445 0.557607 -0.007344
0.045980 0.690748 -0.003239
0.536357 0.220752 -0.002109
0.994702 -0.215394 -0.000524
0.238971 -0.366322 0.006753
0.195072 0.176001 0.000772
0.969867 0.977860 0.006816
-0.090848 -0.176420 0.000495
-0.907685 -0.783491 0.009905
-0.743579 0.874769 0.003595
0.830181 -0.845327 -0.003884
0.595855 -0.982309 -0.007881
-0.298718 -0.653724 -0.007063
0.339529 -0.816154 0.009430
0.298723 -0.900467 0.007974
-0.516947 -0.037072 0.001175
-0.722733 0.004318 -0.008794
-0.600786 0.837147 0.006441
0.045770 0.363691 0.007510
-0.720068 -0.015794 -0.007365
-0.766959 -0.783529 -0.005764
-0.893687 -0.569566 -0.002417
0.245376 0.717211 0.008084
0.435170 0.014175 0.008340
-0.674006 -0.789109 0.006356
0.254264 -0.579371 -0.002454
-0.405212 -0.138273 -0.001445
-0.203688 0.595480 0.006230
0.124926 -0.054440 -0.004311
0.530709 0.973773 -0.005418
0.406178 0.398112 0.003165
-0.938770 0.103450 -0.005960
-0.611312 0.159566 0.002902
0.250865 0.484397 0.004053
-0.049699 -0.904417 0.005444
0.646164 0.670951 0.001962
-0.923661 -0.608231 -0.007833
