ply
format ascii 1.0
element vertex 252
property float x
property float y
property float z
end_header
0.826661 -0.060000 -0.717143
0.926707 -0.060000 -0.629620
1.014695 -0.060000 -0.528734
1.088382 -0.060000 -0.415952
1.145713 -0.060000 -0.293247
1.184971 -0.060000 -0.163059
1.204922 -0.060000 -0.028213
1.204922 -0.060000 0.108213
1.184971 -0.060000 0.243059
1.145713 -0.060000 0.373247
1.088382 -0.060000 0.495952
1.014695 -0.060000 0.608734
0.926707 -0.060000 0.709620
0.826661 -0.060000 0.797143
0.782759 0.159386 -0.711033
0.885576 0.196809 -0.633342
0.978951 0.230794 -0.539316
1.059376 0.260067 -0.429721
1.123390 0.283366 -0.306437
1.167964 0.299589 -0.172434
1.190849 0.307919 -0.031594
1.190849 0.307919 0.111594
1.167964 0.299589 0.252434
1.123390 0.283366 0.386437
1.059376 0.260067 0.509721
0.978951 0.230794 0.619316
0.885576 0.196809 0.713342
0.782759 0.159386 0.791033
0.673508 0.354103 -0.714296
0.753493 0.421217 -0.631355
0.824957 0.481183 -0.533665
0.885652 0.532112 -0.422368
0.933422 0.572196 -0.299393
0.966414 0.599879 -0.167427
0.983269 0.614023 -0.029789
0.983269 0.614023 0.109789
0.966414 0.599879 0.247427
0.933422 0.572196 0.379393
0.885652 0.532112 0.502368
0.824957 0.481183 0.613665
0.753493 0.421217 0.711355
0.673508 0.354103 0.794296
0.506118 0.504852 -0.723669
0.551137 0.582828 -0.625645
0.589053 0.648501 -0.517431
0.619542 0.701309 -0.401246
0.642444 0.740976 -0.279159
0.657706 0.767411 -0.153045
0.665331 0.780619 -0.024602
0.665331 0.780619 0.104602
0.657706 0.767411 0.233045
0.642444 0.740976 0.359159
0.619542 0.701309 0.481246
0.589053 0.648501 0.597431
0.551137 0.582828 0.705645
0.506118 0.504852 0.803669
0.294166 0.587465 -0.729779
0.308174 0.666910 -0.621923
0.319366 0.730383 -0.506849
0.327888 0.778715 -0.387478
0.333968 0.813194 -0.265969
0.337849 0.835204 -0.143670
0.339732 0.845888 -0.021221
0.339732 0.845888 0.101221
0.337849 0.835204 0.223670
0.333968 0.813194 0.345969
0.327888 0.778715 0.467478
0.319366 0.730383 0.586849
0.308174 0.666910 0.701923
0.294166 0.587465 0.809779
0.066318 0.584721 -0.726516
0.051441 0.669093 -0.623911
0.039194 0.738551 -0.512500
0.029568 0.793142 -0.394831
0.022488 0.833297 -0.273013
0.017849 0.859607 -0.148677
0.015557 0.872605 -0.023027
0.015557 0.872605 0.103027
0.017849 0.859607 0.228677
0.022488 0.833297 0.353013
0.029568 0.793142 0.474831
0.039194 0.738551 0.592500
0.051441 0.669093 0.703911
0.066318 0.584721 0.806516
-0.143331 0.500025 -0.717143
-0.193354 0.586668 -0.629620
-0.237348 0.662867 -0.528734
-0.274191 0.726682 -0.415952
-0.302856 0.776332 -0.293247
-0.322485 0.810330 -0.163059
-0.332461 0.827609 -0.028213
-0.332461 0.827609 0.108213
-0.322485 0.810330 0.243059
-0.302856 0.776332 0.373247
-0.274191 0.726682 0.495952
-0.237348 0.662867 0.608734
-0.193354 0.586668 0.709620
-0.143331 0.500025 0.797143
-0.311373 0.352311 -0.711033
-0.395190 0.422642 -0.633342
-0.471311 0.486515 -0.539316
-0.536874 0.541529 -0.429721
-0.589059 0.585317 -0.306437
-0.625395 0.615807 -0.172434
-0.644051 0.631461 -0.031594
-0.644051 0.631461 0.111594
-0.625395 0.615807 0.252434
-0.589059 0.585317 0.386437
-0.536874 0.541529 0.509721
-0.471311 0.486515 0.619316
-0.395190 0.422642 0.713342
-0.311373 0.352311 0.791033
-0.425378 0.160339 -0.714296
-0.523493 0.196050 -0.631355
-0.611157 0.227958 -0.533665
-0.685610 0.255056 -0.422368
-0.744209 0.276384 -0.299393
-0.784679 0.291114 -0.167427
-0.805355 0.298640 -0.029789
-0.805355 0.298640 0.109789
-0.784679 0.291114 0.247427
-0.744209 0.276384 0.379393
-0.685610 0.255056 0.502368
-0.611157 0.227958 0.613665
-0.523493 0.196050 0.711355
-0.425378 0.160339 0.794296
-0.472235 -0.060000 -0.723669
-0.562274 -0.060000 -0.625645
-0.638106 -0.060000 -0.517431
-0.699084 -0.060000 -0.401246
-0.744887 -0.060000 -0.279159
-0.775412 -0.060000 -0.153045
-0.790663 -0.060000 -0.024602
-0.790663 -0.060000 0.104602
-0.775412 -0.060000 0.233045
-0.744887 -0.060000 0.359159
-0.699084 -0.060000 0.481246
-0.638106 -0.060000 0.597431
-0.562274 -0.060000 0.705645
-0.472235 -0.060000 0.803669
-0.437804 -0.284862 -0.729779
-0.513610 -0.312453 -0.621923
-0.574174 -0.334497 -0.506849
-0.620292 -0.351283 -0.387478
-0.653192 -0.363257 -0.265969
-0.674194 -0.370901 -0.143670
-0.684388 -0.374611 -0.021221
-0.684388 -0.374611 0.101221
-0.674194 -0.370901 0.223670
-0.653192 -0.363257 0.345969
-0.620292 -0.351283 0.467478
-0.574174 -0.334497 0.586849
-0.513610 -0.312453 0.701923
-0.437804 -0.284862 0.809779
-0.321504 -0.480812 -0.726516
-0.387134 -0.535882 -0.623911
-0.441162 -0.581217 -0.512500
-0.483626 -0.616849 -0.394831
-0.514862 -0.643058 -0.273013
-0.535327 -0.660231 -0.148677
-0.545438 -0.668715 -0.023027
-0.545438 -0.668715 0.103027
-0.535327 -0.660231 0.228677
-0.514862 -0.643058 0.353013
-0.483626 -0.616849 0.474831
-0.441162 -0.581217 0.592500
-0.387134 -0.535882 0.703911
-0.321504 -0.480812 0.806516
-0.143331 -0.620025 -0.717143
-0.193354 -0.706668 -0.629620
-0.237348 -0.782867 -0.528734
-0.274191 -0.846682 -0.415952
-0.302856 -0.896332 -0.293247
-0.322485 -0.930330 -0.163059
-0.332461 -0.947609 -0.028213
-0.332461 -0.947609 0.108213
-0.322485 -0.930330 0.243059
-0.302856 -0.896332 0.373247
-0.274191 -0.846682 0.495952
-0.237348 -0.782867 0.608734
-0.193354 -0.706668 0.709620
-0.143331 -0.620025 0.797143
0.068615 -0.691698 -0.711033
0.049615 -0.799451 -0.633342
0.032360 -0.897309 -0.539316
0.017498 -0.981596 -0.429721
0.005669 -1.048683 -0.306437
-0.002568 -1.095396 -0.172434
-0.006797 -1.119380 -0.031594
-0.006797 -1.119380 0.111594
-0.002568 -1.095396 0.252434
0.005669 -1.048683 0.386437
0.017498 -0.981596 0.509721
0.032360 -0.897309 0.619316
0.049615 -0.799451 0.713342
0.068615 -0.691698 0.791033
0.291869 -0.694442 -0.714296
0.310000 -0.797268 -0.631355
0.326200 -0.889141 -0.533665
0.339958 -0.967169 -0.422368
0.350787 -1.028580 -0.299393
0.358265 -1.070994 -0.167427
0.362086 -1.092662 -0.029789
0.362086 -1.092662 0.109789
0.358265 -1.070994 0.247427
0.350787 -1.028580 0.379393
0.339958 -0.967169 0.502368
0.326200 -0.889141 0.613665
0.310000 -0.797268 0.711355
0.291869 -0.694442 0.794296
0.506118 -0.624852 -0.723669
0.551137 -0.702828 -0.625645
0.589053 -0.768501 -0.517431
0.619542 -0.821309 -0.401246
0.642444 -0.860976 -0.279159
0.657706 -0.887411 -0.153045
0.665331 -0.900619 -0.024602
0.665331 -0.900619 0.104602
0.657706 -0.887411 0.233045
0.642444 -0.860976 0.359159
0.619542 -0.821309 0.481246
0.589053 -0.768501 0.597431
0.551137 -0.702828 0.705645
0.506118 -0.624852 0.803669
0.683639 -0.482603 -0.729779
0.745436 -0.534457 -0.621923
0.794809 -0.575886 -0.506849
0.832404 -0.607432 -0.387478
0.859225 -0.629937 -0.265969
0.876345 -0.644303 -0.143670
0.884655 -0.651276 -0.021221
0.884655 -0.651276 0.101221
0.876345 -0.644303 0.223670
0.859225 -0.629937 0.345969
0.832404 -0.607432 0.467478
0.794809 -0.575886 0.586849
0.745436 -0.534457 0.701923
0.683639 -0.482603 0.809779
0.795185 -0.283909 -0.726516
0.875692 -0.313211 -0.623911
0.941968 -0.337334 -0.512500
0.994058 -0.356293 -0.394831
1.032374 -0.370239 -0.273013
1.057478 -0.379376 -0.148677
1.069882 -0.383890 -0.023027
1.069882 -0.383890 0.103027
1.057478 -0.379376 0.228677
1.032374 -0.370239 0.353013
0.994058 -0.356293 0.474831
0.941968 -0.337334 0.592500
0.875692 -0.313211 0.703911
0.795185 -0.283909 0.806516
