ply
format ascii 1.0
element vertex 252
property float x
property float y
property float z
end_header
0.649448 0.000000 -0.760406
0.744491 0.000000 -0.667633
0.826401 0.000000 -0.563082
0.893733 0.000000 -0.448599
0.945300 0.000000 -0.326203
0.980191 0.000000 -0.198052
0.997793 0.000000 -0.066408
0.997793 0.000000 0.066408
0.980191 0.000000 0.198052
0.945300 0.000000 0.326203
0.893733 0.000000 0.448599
0.826401 0.000000 0.563082
0.744491 0.000000 0.667633
0.649448 0.000000 0.760406
0.603667 0.219717 -0.752165
0.704853 0.256546 -0.672653
0.796248 0.289810 -0.577356
0.874601 0.318329 -0.467170
0.936737 0.340944 -0.343993
0.979887 0.356650 -0.210697
1.002005 0.364700 -0.070968
1.002005 0.364700 0.070968
0.979887 0.356650 0.210697
0.936737 0.340944 0.343993
0.874601 0.318329 0.467170
0.796248 0.289810 0.577356
0.704853 0.256546 0.672653
0.603667 0.219717 0.752165
0.492114 0.412933 -0.752165
0.574601 0.482148 -0.672653
0.649107 0.544665 -0.577356
0.712981 0.598262 -0.467170
0.763635 0.640766 -0.343993
0.798811 0.670282 -0.210697
0.816842 0.685412 -0.070968
0.816842 0.685412 0.070968
0.798811 0.670282 0.210697
0.763635 0.640766 0.343993
0.712981 0.598262 0.467170
0.649107 0.544665 0.577356
0.574601 0.482148 0.672653
0.492114 0.412933 0.752165
0.324724 0.562439 -0.760406
0.372245 0.644748 -0.667633
0.413200 0.715684 -0.563082
0.446867 0.773996 -0.448599
0.472650 0.818654 -0.326203
0.490096 0.848871 -0.198052
0.498896 0.864114 -0.066408
0.498896 0.864114 0.066408
0.490096 0.848871 0.198052
0.472650 0.818654 0.326203
0.446867 0.773996 0.448599
0.413200 0.715684 0.563082
0.372245 0.644748 0.667633
0.324724 0.562439 0.760406
0.113998 0.646513 -0.768647
0.128307 0.727667 -0.662612
0.139865 0.793216 -0.548809
0.148770 0.843719 -0.430028
0.155197 0.880167 -0.308412
0.159341 0.903669 -0.185407
0.161367 0.915155 -0.061848
0.161367 0.915155 0.061848
0.159341 0.903669 0.185407
0.155197 0.880167 0.308412
0.148770 0.843719 0.430028
0.139865 0.793216 0.548809
0.128307 0.727667 0.662612
0.113998 0.646513 0.768647
-0.113998 0.646513 -0.768647
-0.128307 0.727667 -0.662612
-0.139865 0.793216 -0.548809
-0.148770 0.843719 -0.430028
-0.155197 0.880167 -0.308412
-0.159341 0.903669 -0.185407
-0.161367 0.915155 -0.061848
-0.161367 0.915155 0.061848
-0.159341 0.903669 0.185407
-0.155197 0.880167 0.308412
-0.148770 0.843719 0.430028
-0.139865 0.793216 0.548809
-0.128307 0.727667 0.662612
-0.113998 0.646513 0.768647
-0.324724 0.562439 -0.760406
-0.372245 0.644748 -0.667633
-0.413200 0.715684 -0.563082
-0.446867 0.773996 -0.448599
-0.472650 0.818654 -0.326203
-0.490096 0.848871 -0.198052
-0.498896 0.864114 -0.066408
-0.498896 0.864114 0.066408
-0.490096 0.848871 0.198052
-0.472650 0.818654 0.326203
-0.446867 0.773996 0.448599
-0.413200 0.715684 0.563082
-0.372245 0.644748 0.667633
-0.324724 0.562439 0.760406
-0.492114 0.412933 -0.752165
-0.574601 0.482148 -0.672653
-0.649107 0.544665 -0.577356
-0.712981 0.598262 -0.467170
-0.763635 0.640766 -0.343993
-0.798811 0.670282 -0.210697
-0.816842 0.685412 -0.070968
-0.816842 0.685412 0.070968
-0.798811 0.670282 0.210697
-0.763635 0.640766 0.343993
-0.712981 0.598262 0.467170
-0.649107 0.544665 0.577356
-0.574601 0.482148 0.672653
-0.492114 0.412933 0.752165
-0.603667 0.219717 -0.752165
-0.704853 0.256546 -0.672653
-0.796248 0.289810 -0.577356
-0.874601 0.318329 -0.467170
-0.936737 0.340944 -0.343993
-0.979887 0.356650 -0.210697
-1.002005 0.364700 -0.070968
-1.002005 0.364700 0.070968
-0.979887 0.356650 0.210697
-0.936737 0.340944 0.343993
-0.874601 0.318329 0.467170
-0.796248 0.289810 0.577356
-0.704853 0.256546 0.672653
-0.603667 0.219717 0.752165
-0.649448 0.000000 -0.760406
-0.744491 0.000000 -0.667633
-0.826401 0.000000 -0.563082
-0.893733 0.000000 -0.448599
-0.945300 0.000000 -0.326203
-0.980191 0.000000 -0.198052
-0.997793 0.000000 -0.066408
-0.997793 0.000000 0.066408
-0.980191 0.000000 0.198052
-0.945300 0.000000 0.326203
-0.893733 0.000000 0.448599
-0.826401 0.000000 0.563082
-0.744491 0.000000 0.667633
-0.649448 0.000000 0.760406
-0.616896 -0.224532 -0.768647
-0.694332 -0.252716 -0.662612
-0.756878 -0.275481 -0.548809
-0.805068 -0.293021 -0.430028
-0.839846 -0.305679 -0.308412
-0.862271 -0.313841 -0.185407
-0.873231 -0.317830 -0.061848
-0.873231 -0.317830 0.061848
-0.862271 -0.313841 0.185407
-0.839846 -0.305679 0.308412
-0.805068 -0.293021 0.430028
-0.756878 -0.275481 0.548809
-0.694332 -0.252716 0.662612
-0.616896 -0.224532 0.768647
-0.502898 -0.421982 -0.768647
-0.566025 -0.474951 -0.662612
-0.617013 -0.517735 -0.548809
-0.656297 -0.550699 -0.430028
-0.684649 -0.574488 -0.308412
-0.702929 -0.589828 -0.185407
-0.711865 -0.597325 -0.061848
-0.711865 -0.597325 0.061848
-0.702929 -0.589828 0.185407
-0.684649 -0.574488 0.308412
-0.656297 -0.550699 0.430028
-0.617013 -0.517735 0.548809
-0.566025 -0.474951 0.662612
-0.502898 -0.421982 0.768647
-0.324724 -0.562439 -0.760406
-0.372245 -0.644748 -0.667633
-0.413200 -0.715684 -0.563082
-0.446867 -0.773996 -0.448599
-0.472650 -0.818654 -0.326203
-0.490096 -0.848871 -0.198052
-0.498896 -0.864114 -0.066408
-0.498896 -0.864114 0.066408
-0.490096 -0.848871 0.198052
-0.472650 -0.818654 0.326203
-0.446867 -0.773996 0.448599
-0.413200 -0.715684 0.563082
-0.372245 -0.644748 0.667633
-0.324724 -0.562439 0.760406
-0.111553 -0.632650 -0.752165
-0.130252 -0.738693 -0.672653
-0.147141 -0.834476 -0.577356
-0.161620 -0.916591 -0.467170
-0.173102 -0.981710 -0.343993
-0.181076 -1.026932 -0.210697
-0.185163 -1.050112 -0.070968
-0.185163 -1.050112 0.070968
-0.181076 -1.026932 0.210697
-0.173102 -0.981710 0.343993
-0.161620 -0.916591 0.467170
-0.147141 -0.834476 0.577356
-0.130252 -0.738693 0.672653
-0.111553 -0.632650 0.752165
0.111553 -0.632650 -0.752165
0.130252 -0.738693 -0.672653
0.147141 -0.834476 -0.577356
0.161620 -0.916591 -0.467170
0.173102 -0.981710 -0.343993
0.181076 -1.026932 -0.210697
0.185163 -1.050112 -0.070968
0.185163 -1.050112 0.070968
0.181076 -1.026932 0.210697
0.173102 -0.981710 0.343993
0.161620 -0.916591 0.467170
0.147141 -0.834476 0.577356
0.130252 -0.738693 0.672653
0.111553 -0.632650 0.752165
0.324724 -0.562439 -0.760406
0.372245 -0.644748 -0.667633
0.413200 -0.715684 -0.563082
0.446867 -0.773996 -0.448599
0.472650 -0.818654 -0.326203
0.490096 -0.848871 -0.198052
0.498896 -0.864114 -0.066408
0.498896 -0.864114 0.066408
0.490096 -0.848871 0.198052
0.472650 -0.818654 0.326203
0.446867 -0.773996 0.448599
0.413200 -0.715684 0.563082
0.372245 -0.644748 0.667633
0.324724 -0.562439 0.760406
0.502898 -0.421982 -0.768647
0.566025 -0.474951 -0.662612
0.617013 -0.517735 -0.548809
0.656297 -0.550699 -0.430028
0.684649 -0.574488 -0.308412
0.702929 -0.589828 -0.185407
0.711865 -0.597325 -0.061848
0.711865 -0.597325 0.061848
0.702929 -0.589828 0.185407
0.684649 -0.574488 0.308412
0.656297 -0.550699 0.430028
0.617013 -0.517735 0.548809
0.566025 -0.474951 0.662612
0.502898 -0.421982 0.768647
0.616896 -0.224532 -0.768647
0.694332 -0.252716 -0.662612
0.756878 -0.275481 -0.548809
0.805068 -0.293021 -0.430028
0.839846 -0.305679 -0.308412
0.862271 -0.313841 -0.185407
0.873231 -0.317830 -0.061848
0.873231 -0.317830 0.061848
0.862271 -0.313841 0.185407
0.839846 -0.305679 0.308412
0.805068 -0.293021 0.430028
0.756878 -0.275481 0.548809
0.694332 -0.252716 0.662612
0.616896 -0.224532 0.768647
