ply
format ascii 1.0
element vertex 50
property float x
property float y
property float z
end_header
0.536000 0.724731 0.095115
-0.823036 -0.233707 -0.974181
-0.360627 0.818539 -0.624181
-0.816880 -0.632386 0.279855
-0.381466 -0.140147 0.299212
-0.875986 0.727822 0.062547
0.980452 -0.480938 -0.310752
0.025681 0.812688 0.561182
0.647193 -0.270142 -0.026584
0.390464 0.487316 -0.966619
-0.719910 -0.172924 0.388012
0.605762 0.773791 -0.700192
0.046539 0.957125 -0.971978
0.276819 -0.850549 -0.851266
0.182973 0.573257 -0.245171
-0.519467 -0.154943 -0.741153
-0.084928 -0.017695 -0.769146
-0.963344 0.275782 0.901135
-0.112029 0.635778 0.698233
-0.628346 -0.211608 0.394595
-0.953296 -0.036547 -0.675850
0.256663 0.691955 0.513330
0.112172 0.583903 0.766479
0.808600 0.131948 0.209310
-0.799349 0.626429 -0.466040
0.517560 0.070488 0.254632
-0.765633 -0.893143 0.326466
-0.012085 -0.181421 -0.368345
-0.490106 0.440949 -0.147578
-0.061427 0.138649 0.118039
0.133387 -0.250994 -0.859618
0.214185 0.671689 -0.370947
0.980262 -0.984404 0.400503
0.027429 -0.810190 -0.835340
0.866558 0.866695 0.415150
0.699262 -0.680337 0.102512
0.356553 0.566280 -0.954304
0.910659 0.579461 -0.636380
-0.779469 -0.471629 0.417295
-0.643109 0.169604 -0.988019
-0.134827 0.027134 -0.717825
0.804964 0.146505 0.951405
-0.174884 -0.451737 0.499722
0.966816 -0.305564 -0.409671
0.836614 0.461298 0.047331
0.951211 0.878676 0.200553
0.726503 0.253738 0.530341
-0.058039 0.628840 0.876100
-0.166699 -0.650317 0.422531
-0.594941 0.707072 0.265040
