ply
format ascii 1.0
element vertex 50
property float x
property float y
property float z
end_header
0.763194 0.552995 -0.653519
0.720055 -0.313804 -0.454691
-0.656004 -0.816265 0.119457
0.265439 -0.671378 -0.266476
0.428515 0.230374 0.638346
-0.150168 0.041006 -0.426023
-0.509709 0.635057 0.188309
0.878428 0.794653 0.381574
-0.441130 0.689153 0.865034
0.193185 -0.064413 0.406246
-0.639271 0.918912 0.737646
-0.463765 0.165074 0.157758
-0.705742 -0.930679 -0.792794
-0.324003 -0.084500 -0.126783
-0.109609 -0.932713 -0.051030
-0.453933 0.089938 -0.989678
-0.567871 -0.442106 -0.794552
-0.802796 -0.757981 -0.577026
0.408871 -0.660422 -0.868355
0.047715 0.632210 0.252004
-0.698011 -0.686224 -0.507284
0.812588 0.274787 0.614132
0.113904 -0.676401 0.457334
-0.300268 -0.690228 -0.136672
-0.358475 -0.479582 0.362575
0.473634 -0.596953 0.339834
-0.019054 0.922832 -0.437785
0.477480 0.197230 -0.473453
-0.749097 0.826388 -0.071418
-0.518348 -0.154953 -0.105120
-0.643514 -0.546715 -0.146673
0.952898 0.919539 0.356600
-0.532137 -0.606194 -0.629836
-0.329291 -0.158954 -0.953940
0.455059 -0.442691 0.067608
-0.344075 0.834959 -0.651443
0.609857 -0.984568 -0.128492
0.359710 -0.345382 -0.270513
0.041206 0.712176 0.167624
-0.291977 -0.661724 0.815909
-0.611065 0.211561 0.063165
-0.763951 -0.936572 0.157869
-0.256537 0.263549 0.718488
0.849484 0.023187 -0.830045
0.946083 0.919560 -0.856476
-0.711756 -0.961152 -0.715981
0.245816 0.570133 -0.334185
-0.976434 0.689850 0.904127
0.703020 -0.435368 0.014328
-0.004583 -0.965781 0.345923
